<?xml version="1.0" encoding="utf-8"?>
<!-- Generator: Adobe Illustrator 24.2.1, SVG Export Plug-In . SVG Version: 6.00 Build 0)  -->
<svg version="1.1" id="Layer_1" xmlns="http://www.w3.org/2000/svg" xmlns:xlink="http://www.w3.org/1999/xlink" x="0px" y="0px"
	 viewBox="0 0 595.28 841.89" style="enable-background:new 0 0 595.28 841.89;" xml:space="preserve">
<style type="text/css">
	.st0{clip-path:url(#SVGID_2_);fill:url(#SVGID_3_);}
	.st1{clip-path:url(#SVGID_2_);}
	.st2{fill:#FFFFFF;}
	.st3{fill:#F7F5BE;}
	.st4{clip-path:url(#SVGID_2_);fill:none;stroke:#E5E516;stroke-miterlimit:10;}
	.st5{clip-path:url(#SVGID_2_);fill:url(#SVGID_4_);}
	.st6{clip-path:url(#SVGID_2_);fill:#FFFFFF;}
	.st7{clip-path:url(#SVGID_2_);fill:url(#SVGID_5_);}
	.st8{clip-path:url(#SVGID_2_);fill:url(#SVGID_6_);}
	.st9{clip-path:url(#SVGID_2_);fill:url(#SVGID_7_);}
	.st10{clip-path:url(#SVGID_2_);fill:url(#SVGID_8_);}
	.st11{clip-path:url(#SVGID_2_);fill:#918B8B;}
	.st12{fill:none;}
	.st13{fill:#E2DCDC;}
	.st14{fill:url(#SVGID_9_);}
	.st15{fill:url(#SVGID_10_);}
	.st16{fill:url(#SVGID_11_);}
	.st17{fill:url(#SVGID_12_);}
	.st18{fill:url(#SVGID_13_);}
	.st19{fill:url(#SVGID_14_);}
	.st20{fill:#B8ABAB;}
</style>
<g>
	<defs>
		<rect id="SVGID_1_" x="-0.51" y="-0.07" width="595.82" height="842.16"/>
	</defs>
	<clipPath id="SVGID_2_">
		<use xlink:href="#SVGID_1_"  style="overflow:visible;"/>
	</clipPath>
	<linearGradient id="SVGID_3_" gradientUnits="userSpaceOnUse" x1="299.7517" y1="848.1283" x2="299.7517" y2="-3.4612">
		<stop  offset="0" style="stop-color:#A894B3"/>
		<stop  offset="1" style="stop-color:#230037"/>
	</linearGradient>
	<rect x="-3.69" y="-3.46" class="st0" width="606.89" height="851.59"/>
	<g class="st1">
		<path class="st2" d="M235.99,538H78.88c-19.14,0-34.79-15.66-34.79-34.79v-0.71c0-19.14,15.66-34.79,34.79-34.79h157.11
			c19.14,0,34.79,15.66,34.79,34.79v0.71C270.78,522.34,255.12,538,235.99,538z"/>
		<ellipse class="st2" cx="111.76" cy="464.78" rx="32.14" ry="37.1"/>
		<ellipse class="st2" cx="168.43" cy="445.74" rx="41.45" ry="53.21"/>
		<ellipse class="st2" cx="209.88" cy="468.68" rx="36.37" ry="41.49"/>
	</g>
	<g class="st1">
		<ellipse class="st3" cx="160.68" cy="68.44" rx="13.53" ry="21.68"/>
	</g>
	<g class="st1">
		<ellipse class="st3" cx="89.95" cy="387.98" rx="13.53" ry="21.68"/>
	</g>
	<g class="st1">
		<ellipse class="st3" cx="90.77" cy="570.22" rx="10.68" ry="18.85"/>
	</g>
	<g class="st1">
		<ellipse class="st3" cx="558.71" cy="531" rx="10.68" ry="18.85"/>
	</g>
	<g class="st1">
		<ellipse class="st3" cx="471.54" cy="141.99" rx="10.68" ry="18.85"/>
	</g>
	<g class="st1">
		<ellipse class="st3" cx="578.04" cy="255.18" rx="8.55" ry="13.9"/>
	</g>
	<path class="st4" d="M196.47,311.26l-176.88,1.04c-6.95,0.05-13.89-5.84-13.94-13.2v0c-0.06-7.36,5.59-13.43,12.54-13.48
		l74.32-0.64"/>
	<path class="st4" d="M-92.95,260.48l182.06-2.47c7.16-0.11,14.34,5.73,14.45,13.09v0c0.11,7.36-5.65,13.47-12.81,13.58l-76.5,1.24"
		/>
	<path class="st4" d="M508.2,36.77c-8.14,0-14.8-6.02-14.8-13.38v0c0-7.36,6.66-13.38,14.8-13.38l127.31,0.52"/>
	<path class="st4" d="M507.14,36.67l68.17,0.17c8.14,0.01,16.2,5.97,16.19,13.33v0c-0.01,7.36-6.68,13.37-14.83,13.36l-211.89,0.01"
		/>
	
		<radialGradient id="SVGID_4_" cx="290.5" cy="242.5" r="141.5" gradientTransform="matrix(1.0166 0 0 1.0102 -3.6924 -2.451)" gradientUnits="userSpaceOnUse">
		<stop  offset="0" style="stop-color:#FFFFFF"/>
		<stop  offset="1" style="stop-color:#BCBEC0"/>
	</radialGradient>
	<ellipse class="st5" cx="291.62" cy="242.52" rx="143.84" ry="142.94"/>
	<g class="st1">
		<path class="st2" d="M554.32,349.09H359.3c-20.73,0-37.69-16.96-37.69-37.69v-0.77c0-20.73,16.96-37.69,37.69-37.69h195.02
			c20.73,0,37.69,16.96,37.69,37.69v0.77C592.01,332.13,575.05,349.09,554.32,349.09z"/>
		<ellipse class="st2" cx="402.33" cy="269.77" rx="38.34" ry="40.19"/>
		<ellipse class="st2" cx="469.93" cy="249.15" rx="49.44" ry="57.64"/>
		<ellipse class="st2" cx="519.37" cy="274" rx="43.39" ry="44.95"/>
	</g>
	<g class="st1">
		<path class="st2" d="M167.66,206.66H56.73c-11.43,0-20.78-9.35-20.78-20.78v-0.42c0-11.43,9.35-20.78,20.78-20.78h110.93
			c11.43,0,20.78,9.35,20.78,20.78v0.42C188.44,197.31,179.09,206.66,167.66,206.66z"/>
		<ellipse class="st2" cx="81.47" cy="162.93" rx="21.62" ry="22.16"/>
		<ellipse class="st2" cx="119.59" cy="151.56" rx="27.88" ry="31.78"/>
		<ellipse class="st2" cx="147.47" cy="165.26" rx="24.47" ry="24.78"/>
	</g>
	<ellipse class="st6" cx="414.8" cy="124.97" rx="4.52" ry="4.49"/>
	<ellipse class="st6" cx="534.46" cy="124.56" rx="4.11" ry="4.09"/>
	<ellipse class="st6" cx="63.64" cy="63.68" rx="6.17" ry="6.13"/>
	<ellipse class="st6" cx="337.08" cy="430.21" rx="4.93" ry="4.9"/>
	<ellipse class="st6" cx="513.08" cy="421.22" rx="4.93" ry="4.9"/>
	<ellipse class="st6" cx="310.36" cy="34.26" rx="6.17" ry="6.13"/>
	
		<linearGradient id="SVGID_5_" gradientUnits="userSpaceOnUse" x1="-693.0259" y1="647.6298" x2="-693.0259" y2="503.1622" gradientTransform="matrix(1 1.607891e-03 -1.607891e-03 1 0.4725 0.4685)">
		<stop  offset="0" style="stop-color:#262262"/>
		<stop  offset="1" style="stop-color:#812990"/>
	</linearGradient>
	<path class="st7" d="M-718.45,514.79l-97.08,127.12l243.87,5.27l-53.04-115.23C-637.03,503.76-686.38,491.5-718.45,514.79z"/>
	
		<linearGradient id="SVGID_6_" gradientUnits="userSpaceOnUse" x1="-504.9688" y1="188.9893" x2="-504.9688" y2="399.6763" gradientTransform="matrix(1 1.607891e-03 -1.607891e-03 1 0.4725 0.4685)">
		<stop  offset="0" style="stop-color:#262262"/>
		<stop  offset="0.1648" style="stop-color:#2C2364"/>
		<stop  offset="0.3934" style="stop-color:#3D256B"/>
		<stop  offset="0.6593" style="stop-color:#572678"/>
		<stop  offset="0.9513" style="stop-color:#79288A"/>
		<stop  offset="1" style="stop-color:#812990"/>
	</linearGradient>
	<polygon class="st8" points="-504.79,180.77 -548.63,391.39 -461.62,391.53 	"/>
	
		<linearGradient id="SVGID_7_" gradientUnits="userSpaceOnUse" x1="24.8671" y1="850.413" x2="24.8671" y2="639.7247" gradientTransform="matrix(1.1475 1.845113e-03 -1.382809e-03 0.86 5.7351 121.2657)">
		<stop  offset="0" style="stop-color:#262262"/>
		<stop  offset="1" style="stop-color:#812990"/>
	</linearGradient>
	<polygon class="st9" points="108.71,671.62 -42.23,852.57 57.61,852.73 	"/>
	
		<linearGradient id="SVGID_8_" gradientUnits="userSpaceOnUse" x1="90.5045" y1="647.6005" x2="90.5045" y2="858.2877" gradientTransform="matrix(1.1475 1.845113e-03 -1.382809e-03 0.86 5.7351 121.2657)">
		<stop  offset="0" style="stop-color:#262262"/>
		<stop  offset="0.1648" style="stop-color:#2C2364"/>
		<stop  offset="0.3934" style="stop-color:#3D256B"/>
		<stop  offset="0.6593" style="stop-color:#572678"/>
		<stop  offset="0.9513" style="stop-color:#79288A"/>
		<stop  offset="1" style="stop-color:#812990"/>
	</linearGradient>
	<polygon class="st10" points="108.71,671.62 58.5,852.74 158.33,852.89 	"/>
	<ellipse class="st6" cx="406.17" cy="533.18" rx="5.76" ry="5.72"/>
	<polygon class="st11" points="73.04,712 93.03,717.23 107.15,701.86 121.38,715.94 108.91,672.25 	"/>
	<g class="st1">
		<polygon class="st12" points="195.67,685.27 195.96,685.12 210.44,621.44 		"/>
		<polygon class="st13" points="167.59,684.18 181.17,692.81 195.67,685.27 210.44,621.44 		"/>
		
			<linearGradient id="SVGID_9_" gradientUnits="userSpaceOnUse" x1="122.5382" y1="858.9371" x2="122.5382" y2="620.6296" gradientTransform="matrix(1 1.607891e-03 -1.607891e-03 1 0.4725 0.4685)">
			<stop  offset="0" style="stop-color:#262262"/>
			<stop  offset="1" style="stop-color:#812990"/>
		</linearGradient>
		<polygon class="st14" points="167.59,684.18 47.87,859.48 155.33,859.64 195.67,685.27 181.17,692.81 		"/>
		
			<linearGradient id="SVGID_10_" gradientUnits="userSpaceOnUse" x1="210.9244" y1="629.5364" x2="210.9244" y2="867.8292" gradientTransform="matrix(1 1.607891e-03 -1.607891e-03 1 0.4725 0.4685)">
			<stop  offset="0" style="stop-color:#262262"/>
			<stop  offset="0.1648" style="stop-color:#2C2364"/>
			<stop  offset="0.3934" style="stop-color:#3D256B"/>
			<stop  offset="0.6593" style="stop-color:#572678"/>
			<stop  offset="0.9513" style="stop-color:#79288A"/>
			<stop  offset="1" style="stop-color:#812990"/>
		</linearGradient>
		<polygon class="st15" points="217.74,703.9 202.5,681.72 195.96,685.12 156.28,859.64 263.75,859.8 227.34,697.03 		"/>
		<polygon class="st2" points="217.74,703.9 227.34,697.03 210.44,621.44 195.96,685.12 202.5,681.72 		"/>
	</g>
	<g class="st1">
		<polygon class="st12" points="328.7,628.95 329.05,628.76 346.9,547.85 		"/>
		<polygon class="st13" points="294.04,627.57 310.81,638.53 328.7,628.95 346.9,547.85 		"/>
		
			<linearGradient id="SVGID_11_" gradientUnits="userSpaceOnUse" x1="270.6309" y1="855.0934" x2="270.6309" y2="604.5561" gradientTransform="matrix(1.3456 1.707151e-03 -1.951923e-03 1.2083 -125.1575 -183.2499)">
			<stop  offset="0" style="stop-color:#262262"/>
			<stop  offset="1" style="stop-color:#812990"/>
		</linearGradient>
		<polygon class="st16" points="294.04,627.57 146.34,850.32 278.96,850.49 328.7,628.95 310.81,638.53 		"/>
		
			<linearGradient id="SVGID_12_" gradientUnits="userSpaceOnUse" x1="351.7067" y1="613.9225" x2="351.7067" y2="864.4662" gradientTransform="matrix(1.3456 1.707151e-03 -1.951923e-03 1.2083 -125.1575 -183.2499)">
			<stop  offset="0" style="stop-color:#262262"/>
			<stop  offset="0.1648" style="stop-color:#2C2364"/>
			<stop  offset="0.3934" style="stop-color:#3D256B"/>
			<stop  offset="0.6593" style="stop-color:#572678"/>
			<stop  offset="0.9513" style="stop-color:#79288A"/>
			<stop  offset="1" style="stop-color:#812990"/>
		</linearGradient>
		<polygon class="st17" points="355.94,652.62 337.13,624.44 329.05,628.76 280.13,850.49 412.74,850.67 367.79,643.89 		"/>
		<polygon class="st2" points="355.94,652.62 367.79,643.89 346.9,547.85 329.05,628.76 337.13,624.44 		"/>
	</g>
	<g class="st1">
		
			<linearGradient id="SVGID_13_" gradientUnits="userSpaceOnUse" x1="-1114.9125" y1="857.9496" x2="-1114.9125" y2="599.9408" gradientTransform="matrix(-1 1.607891e-03 1.607891e-03 1 -583.0978 0.4685)">
			<stop  offset="0" style="stop-color:#262262"/>
			<stop  offset="1" style="stop-color:#812990"/>
		</linearGradient>
		<polygon class="st18" points="428.72,598.78 637.26,856.46 499.41,856.63 		"/>
		
			<linearGradient id="SVGID_14_" gradientUnits="userSpaceOnUse" x1="-1010.9756" y1="609.5837" x2="-1010.9756" y2="867.5406" gradientTransform="matrix(-1 1.607891e-03 1.607891e-03 1 -583.0978 0.4685)">
			<stop  offset="0" style="stop-color:#262262"/>
			<stop  offset="0.1648" style="stop-color:#2C2364"/>
			<stop  offset="0.3934" style="stop-color:#3D256B"/>
			<stop  offset="0.6593" style="stop-color:#572678"/>
			<stop  offset="0.9513" style="stop-color:#79288A"/>
			<stop  offset="1" style="stop-color:#812990"/>
		</linearGradient>
		<polygon class="st19" points="428.72,598.78 498.18,856.63 360.33,856.8 		"/>
		<polygon class="st20" points="408.19,668.54 445.01,677.54 459.33,664.04 496.15,680.54 429.67,598.78 		"/>
	</g>
</g>
</svg>
