<?xml version="1.0" encoding="utf-8"?>
<!-- Generator: Adobe Illustrator 24.2.1, SVG Export Plug-In . SVG Version: 6.00 Build 0)  -->
<svg version="1.1" id="Layer_1" xmlns="http://www.w3.org/2000/svg" xmlns:xlink="http://www.w3.org/1999/xlink" x="0px" y="0px"
	 viewBox="0 0 595.28 841.89" style="enable-background:new 0 0 595.28 841.89;" xml:space="preserve">
<style type="text/css">
	.st0{fill:#006838;stroke:#000000;stroke-miterlimit:10;}
	.st1{fill:#F6E105;}
	.st2{fill:none;}
	.st3{fill:#FFFFFF;}
	.st4{fill:#F1F2F2;}
	.st5{fill:none;stroke:#FFFFFF;stroke-miterlimit:10;}
	.st6{fill:#FFFEFF;}
</style>
<rect x="1" y="-1" class="st0" width="595" height="845"/>
<path class="st1" d="M122.61,436.79c-43.82,0-79.34,35.52-79.34,79.34s35.52,79.34,79.34,79.34c43.82,0,79.34-35.52,79.34-79.34
	S166.42,436.79,122.61,436.79z M147.23,479.78c0-2.59,2.1-4.69,4.69-4.69s4.69,2.1,4.69,4.69v35.17c0,2.59-2.1,4.69-4.69,4.69
	s-4.69-2.1-4.69-4.69V479.78z M88.61,479.78c0-2.59,2.1-4.69,4.69-4.69s4.69,2.1,4.69,4.69v35.17c0,2.59-2.1,4.69-4.69,4.69
	s-4.69-2.1-4.69-4.69V479.78z M164.01,550.13c-13.11,11.13-28.85,16.69-43.69,16.69c-14.92,0-28.94-5.62-38.47-16.85
	c-1.68-1.97-1.44-4.93,0.54-6.61c1.97-1.68,4.93-1.44,6.61,0.54c15.68,18.46,46.61,18.05,68.95-0.92c1.97-1.68,4.93-1.44,6.61,0.54
	C166.23,545.49,165.99,548.45,164.01,550.13z"/>
<path class="st1" d="M301.34,436.79c-43.82,0-79.34,35.52-79.34,79.34s35.52,79.34,79.34,79.34c43.82,0,79.34-35.52,79.34-79.34
	S345.16,436.79,301.34,436.79z M325.96,479.78c0-2.59,2.1-4.69,4.69-4.69s4.69,2.1,4.69,4.69v35.17c0,2.59-2.1,4.69-4.69,4.69
	s-4.69-2.1-4.69-4.69V479.78z M267.34,479.78c0-2.59,2.1-4.69,4.69-4.69s4.69,2.1,4.69,4.69v35.17c0,2.59-2.1,4.69-4.69,4.69
	s-4.69-2.1-4.69-4.69V479.78z M342.75,550.13c-13.11,11.13-28.85,16.69-43.69,16.69c-14.92,0-28.94-5.62-38.47-16.85
	c-1.68-1.97-1.44-4.93,0.54-6.61c1.97-1.68,4.93-1.44,6.61,0.54c15.68,18.46,46.61,18.05,68.95-0.92c1.97-1.68,4.93-1.44,6.61,0.54
	C344.96,545.49,344.72,548.45,342.75,550.13z"/>
<path class="st1" d="M474.61,436.79c-43.82,0-79.34,35.52-79.34,79.34s35.52,79.34,79.34,79.34c43.82,0,79.34-35.52,79.34-79.34
	S518.42,436.79,474.61,436.79z M499.23,479.78c0-2.59,2.1-4.69,4.69-4.69s4.69,2.1,4.69,4.69v35.17c0,2.59-2.1,4.69-4.69,4.69
	s-4.69-2.1-4.69-4.69V479.78z M440.61,479.78c0-2.59,2.1-4.69,4.69-4.69s4.69,2.1,4.69,4.69v35.17c0,2.59-2.1,4.69-4.69,4.69
	s-4.69-2.1-4.69-4.69V479.78z M516.01,550.13c-13.11,11.13-28.85,16.69-43.69,16.69c-14.92,0-28.94-5.62-38.47-16.85
	c-1.68-1.97-1.44-4.93,0.54-6.61c1.97-1.68,4.93-1.44,6.61,0.54c15.68,18.46,46.61,18.05,68.95-0.92c1.97-1.68,4.93-1.44,6.61,0.54
	C518.23,545.49,517.99,548.45,516.01,550.13z"/>
<g>
	<path class="st2" d="M227.41,238.31l9.87-20.58c-0.09-4.6-0.21-9.91-0.37-15.93l-10.43,10.11c0.87,5.32,1.32,10.94,1.32,16.87
		C227.79,232.06,227.66,235.23,227.41,238.31z"/>
	<path class="st2" d="M344.74,228.74l0.75-4.53l-0.74,0.17C344.74,226.06,344.74,227.51,344.74,228.74z"/>
	<path class="st2" d="M267.95,241.66l-9.54,2.15c0.05,3.62,0.12,7.6,0.2,11.94c0.05,2.62,0.09,5.11,0.13,7.46l9.95,2.18l5.78-10.74
		c-0.97-1.94-1.98-3.94-3.04-6.04C270.46,246.63,269.3,244.32,267.95,241.66z"/>
	<path class="st2" d="M318.18,258.85l0.32-3.55l4.76,0.42c0.28-11.24,0.42-19.77,0.42-25.58c0-0.33,0-0.68,0-1.02L310.89,232v42.61
		l11.91,2.6c0.07-4.97,0.2-10.94,0.38-17.92L318.18,258.85z"/>
	<path class="st2" d="M237.1,248.6l-5.76,1.3l-0.78-3.48l6.63-1.49c0.15-6.08,0.22-11.01,0.22-14.78c0-1.33-0.01-2.8-0.02-4.4
		l-11.72,24.42c-0.4,1.88-0.86,3.72-1.38,5.52l12.51,2.74c0-0.15,0.01-0.3,0.01-0.46C236.93,254.61,237.02,251.5,237.1,248.6z"/>
	<path class="st2" d="M259.55,225.3c-0.15-0.34-0.43-0.68-0.85-1.02c-0.3,0.4-0.45,1.02-0.45,1.87c0,3.66,0.04,8.33,0.11,14.01
		l7.93-1.78C264.35,234.59,262.11,230.24,259.55,225.3z"/>
	<path class="st2" d="M289.86,199.95c-0.06-1.73-0.12-3.4-0.17-5.01l-22.56-5.32l11.67,24.02c1.88,3.91,4.73,9.62,8.53,17.14
		l3.18-5.91C290.46,218.99,290.25,210.68,289.86,199.95z"/>
	<path class="st2" d="M96.58,232.02c0.12,0,0.27-0.18,0.46-0.52l-1.47-0.32C95.94,231.73,96.27,232.02,96.58,232.02z"/>
	<path class="st2" d="M310.89,228.34l12.77-2.87c-0.05-5.8-0.19-13.34-0.41-22.62l-11.8-2.78c-0.01,0.23-0.01,0.45-0.02,0.69
		C311.1,212.68,310.92,221.87,310.89,228.34z"/>
	<path class="st2" d="M183.74,198.13c-3.75,1.18-7.03,4.22-9.84,9.13c-3.59,6.24-5.38,13.41-5.38,21.52
		c0,5.68,0.73,10.73,2.17,15.17l14.34,3.14l12.73-12.34l-13.21-36.66L183.74,198.13z"/>
	<path class="st2" d="M55.15,218.69l0.18,0.04c0-0.22-0.01-0.42-0.01-0.64L55.15,218.69z"/>
	<path class="st2" d="M151.25,199.79l-13.16,0.67c-0.32,13.15-0.47,23.05-0.47,29.68c0,1.9,0.02,4.1,0.05,6.59l9.85,2.15
		c-0.3-3.26-0.45-6.62-0.45-10.1C147.07,218.08,148.47,208.42,151.25,199.79z"/>
	<path class="st2" d="M344.85,213.69c-0.03,2.6-0.05,4.94-0.07,7.03l1.35-0.3l1.95-11.71l-3.17-0.75
		C344.9,209.71,344.88,211.61,344.85,213.69z"/>
	<path class="st2" d="M76.71,233.8c-0.08-0.28-0.25-0.6-0.51-0.94c-0.26,0.51-0.4,1.33-0.4,2.47c0,5.56,0.09,13.89,0.28,25.01
		c0.19,11.11,0.28,19.45,0.28,25.01c0,0.07-0.01,0.12-0.01,0.19l10.54-16.59c-0.7-2.46-1.44-5.07-2.21-7.84
		C81.15,248.51,78.49,239.41,76.71,233.8z"/>
	<path class="st2" d="M344.97,198.59c0,1.54-0.01,3.45-0.02,5.71l3.73,0.88l1.65-9.91C346.76,195.67,344.97,196.77,344.97,198.59z"
		/>
	<path class="st2" d="M173.56,250.47c1.03,1.76,2.15,3.25,3.35,4.5l5.05-4.9l-9.71-2.12C172.66,248.81,173.09,249.66,173.56,250.47z
		"/>
	<path class="st2" d="M115.66,231.16c-0.06,0.05-0.17,0.29-0.31,0.68l0.71,0.16C115.97,231.51,115.84,231.23,115.66,231.16z"/>
	<path class="st2" d="M323.16,199.17c-0.28-11.57-0.43-20.44-0.44-26.59l-11.1,20.61c-0.03,1.06-0.05,2.14-0.08,3.25L323.16,199.17z
		"/>
	<path class="st2" d="M414.96,224.46L396.01,220c0.23,2.65,0.36,5.32,0.36,8.02l0.73-1.63l15.66,7.04c0.1-0.42,0.2-0.83,0.31-1.25
		C413.72,229.52,414.35,226.96,414.96,224.46z"/>
	<path class="st2" d="M434.17,241.97l0.66-13.42c-1.49,6.66-2.24,10.66-2.24,11.97C432.59,241.21,433.13,241.69,434.17,241.97z"/>
	<path class="st2" d="M455.1,284.98c-0.03-0.16-0.07-0.32-0.1-0.49c-1.28-8.16-2.28-12.53-3-13.1c-0.6-0.4-5.66-0.6-15.17-0.6
		c-0.17,0-0.34,0-0.51,0l-0.5,10.13L455.1,284.98z"/>
	<path class="st2" d="M415.81,221c1.17-4.78,2.27-9.23,3.27-13.34l-23.94,5.39c0.17,1.06,0.33,2.13,0.46,3.2L415.81,221z"/>
	<path class="st2" d="M426.59,271.56c-0.55,0.78-1.16,3.13-1.82,7.03l7.52,1.58l0.46-9.34
		C428.96,270.94,426.91,271.18,426.59,271.56z"/>
	<path class="st2" d="M441.76,242.39c2.49,0,3.87-0.45,4.13-1.36c0.08-0.28,0.11-0.68,0.11-1.19c0-1.87-0.87-7.03-2.6-15.48
		c-1.7-8.17-2.94-13.38-3.74-15.65c-0.11,0.33-0.22,0.72-0.35,1.16l-1.59,32.46C438.79,242.37,440.14,242.39,441.76,242.39z"/>
	<path class="st2" d="M482.8,202.42c0-2.26-0.05-5.3-0.15-9.06l-24.11,5.42l26.02,10.16c-0.15-0.36-0.3-0.71-0.46-1.08
		C483.23,205.65,482.8,203.84,482.8,202.42z"/>
	<path class="st2" d="M201.92,235.71l2.41,6.7c1.07-3.4,1.72-7.03,1.93-10.91L201.92,235.71z"/>
	<path class="st2" d="M521.88,211.81l-8.39,4.98c1.14,2.17,2.16,4.02,3.05,5.53C517.91,219.9,519.7,216.39,521.88,211.81z"/>
	<path class="st2" d="M258.98,283.43l7.96-14.78l-8.13-1.78C258.91,273.59,258.97,279.1,258.98,283.43z"/>
	<path class="st2" d="M272.32,266.18l8.94,1.96c-1.45-2.9-3.06-6.09-4.82-9.6L272.32,266.18z"/>
	<path class="st2" d="M368.97,204.54c-3.79-6.2-8.8-9.34-15.01-9.43L352.15,206l19.77,4.66
		C371.11,208.46,370.14,206.41,368.97,204.54z"/>
	<path class="st2" d="M200.68,250.51c0.11-0.18,0.23-0.36,0.34-0.55c0.48-0.82,0.92-1.67,1.33-2.53l-3.24-9l-9.88,9.57
		L200.68,250.51z"/>
	<path class="st2" d="M179.66,257.28c2.32,1.53,4.91,2.3,7.77,2.3c4.16,0,7.84-1.97,11.03-5.89l-12.31-2.69L179.66,257.28z"/>
	<polygon class="st2" points="351.56,209.52 349.88,219.57 372.55,214.47 	"/>
	<path class="st2" d="M363.45,259.29c2.28-1.62,4.27-3.9,5.97-6.87c3.51-6.18,5.26-14.32,5.26-24.41c0-3.65-0.28-7.04-0.83-10.19
		l-24.6,5.53l-4.34,26.03c0.03,3.33,0.05,6.09,0.05,8.25L363.45,259.29z"/>
	<path class="st2" d="M355.37,262.16l-7.62-0.68c1.49,0.49,3.58,0.73,6.27,0.73C354.48,262.21,354.93,262.19,355.37,262.16z"/>
	<path class="st2" d="M190.01,197.81l-1.71,0.09l12.29,34.13l5.7-5.52c-0.26-7.59-1.95-14.13-5.1-19.58
		C198.17,201.68,194.44,198.65,190.01,197.81z"/>
	<path class="st2" d="M527.6,261.82l4.12-2.93l-1.65-2.69l-2.03-0.26c-0.31,1.1-0.47,2.14-0.47,3.12
		C527.57,259.87,527.58,260.8,527.6,261.82z"/>
	<polygon class="st2" points="534.68,256.79 534.61,256.78 534.64,256.82 	"/>
	<path class="st3" d="M138.18,196.88c0.02-0.7,0.03-1.39,0.05-2.07l-1.36,2.14L138.18,196.88z"/>
	<path class="st3" d="M115.74,259.57c-0.28,11.45-0.42,20.04-0.42,25.77c0,1.99,0.55,2.98,1.64,2.98H137c1.09,0,1.64-0.88,1.64-2.64
		c0-6.12-0.17-15.37-0.51-27.73c-0.19-6.79-0.32-12.64-0.41-17.56l-21.56-4.72C116.14,241.35,116,249.3,115.74,259.57z"/>
	<path class="st3" d="M54.84,190.88c0.01,0.8,0.02,1.56,0.03,2.26c0.09,4.53,0.18,8.7,0.25,12.5l4.26-15.13L54.84,190.88z"/>
	<path class="st3" d="M88.22,273.52c1.75,6.01,3.25,10.95,4.51,14.8c0.38,1.13,1.55,1.7,3.51,1.7c1.32,0,2.07-0.03,2.26-0.09
		c0.57-0.23,1.04-0.99,1.42-2.3c2.72-10.04,5.43-20.1,8.15-30.19c2.87-10.61,4.92-18,6.18-22.18l-1.51-0.33L88.22,273.52z"/>
	<path class="st3" d="M76.37,285.34c0-5.56-0.09-13.89-0.28-25.01c-0.19-11.11-0.28-19.45-0.28-25.01c0-1.13,0.13-1.96,0.4-2.47
		c0.26,0.34,0.43,0.65,0.51,0.94c1.77,5.61,4.43,14.71,7.98,27.3c0.77,2.77,1.51,5.38,2.21,7.84l22.12-34.82l-11.98-2.62
		c-0.19,0.33-0.35,0.52-0.46,0.52c-0.31,0-0.64-0.28-1.01-0.84l-40.2-8.79c0.04,3.14,0.05,5.72,0.05,7.76
		c0,6.18-0.2,15.47-0.59,27.85c-0.4,12.39-0.59,21.68-0.59,27.85c0,0.91,0.08,1.55,0.25,1.91c0.17,0.37,0.63,0.55,1.39,0.55H74.6
		l1.77-2.79C76.37,285.47,76.37,285.41,76.37,285.34z"/>
	<path class="st3" d="M65.51,168.72c-3.89,0.18-6.84,0.27-8.83,0.27c-1.62,0-2.42,0.57-2.38,1.7l0.06,1.45
		c0.2,6.02,0.34,11.08,0.42,15.17l5.62-0.45L65.51,168.72z"/>
	<path class="st3" d="M81.13,185.22l-4.02-13.25c-0.76-2.38-1.34-3.57-1.75-3.57c-1.49,0-3.53,0.05-6.1,0.15l-5.07,18.01
		L81.13,185.22z"/>
	<path class="st3" d="M138.09,200.46l-3.57,0.18l-19.75,31.08l0.57,0.12c0.15-0.39,0.25-0.64,0.31-0.68
		c0.18,0.06,0.31,0.35,0.4,0.84l21.61,4.73c-0.03-2.49-0.05-4.69-0.05-6.59C137.62,223.5,137.78,213.61,138.09,200.46z"/>
	<path class="st3" d="M138.37,187.94c0.14-7.38,0.21-13.3,0.21-17.75c0-1.36-0.57-2.04-1.7-2.04c-0.94,0-2.39,0.14-4.33,0.42
		c-1.94,0.28-3.39,0.43-4.33,0.43c-1.13,0-2.8-0.08-5.01-0.26c-2.21-0.17-3.86-0.26-4.95-0.26c-0.76,0-1.45,1.11-2.09,3.32
		c-3.09,9.91-5.86,18.78-8.32,26.63l24.66-1.26L138.37,187.94z"/>
	<path class="st3" d="M130.16,200.86l-23.45,1.19c-2.98,9.5-5.48,17.37-7.46,23.58c-0.3,0.95-0.58,1.77-0.83,2.51l12.66,2.77
		L130.16,200.86z"/>
	<path class="st3" d="M55.32,218.08c0,0.22,0.01,0.43,0.01,0.64l38.53,8.43c-0.07-0.22-0.15-0.43-0.22-0.66l-11.45-37.77
		l-19.03,1.51L55.32,218.08z"/>
	<path class="st3" d="M211.19,280.35c0.72-0.79,1.42-1.62,2.11-2.51l-0.39-1.08L211.19,280.35z"/>
	<path class="st3" d="M223.15,255.42l1.14,0.25c0.52-1.79,0.98-3.63,1.38-5.52L223.15,255.42z"/>
	<path class="st3" d="M200.68,250.51l3.01,0.66l-1.35-3.73c-0.41,0.86-0.85,1.7-1.33,2.53
		C200.91,250.15,200.79,250.33,200.68,250.51z"/>
	<polygon class="st3" points="209.23,256.03 213.38,267.54 217.98,257.95 	"/>
	<path class="st3" d="M227.41,238.31c0.26-3.08,0.39-6.25,0.39-9.53c0-5.94-0.45-11.56-1.32-16.87l-20.22,19.59
		c-0.21,3.88-0.86,7.51-1.93,10.91l3.48,9.66l11.76,2.57L227.41,238.31z"/>
	<path class="st3" d="M173.56,250.47c-0.47-0.81-0.9-1.66-1.31-2.52l-24.32-5.32c1.5,11.58,4.95,21.7,10.39,30.36l18.59-18.02
		C175.71,253.72,174.59,252.23,173.56,250.47z"/>
	<path class="st3" d="M205.12,255.13l-6.65-1.45c-3.19,3.92-6.87,5.89-11.03,5.89c-2.86,0-5.45-0.77-7.77-2.3l-19.31,18.72
		c7.36,10.31,16.39,15.47,27.08,15.47c6.22,0,11.85-1.72,16.93-5.12l6.86-14.29L205.12,255.13z"/>
	<path class="st3" d="M201.19,206.93c3.14,5.45,4.83,11.99,5.1,19.58l19.4-18.81c-0.86-4.03-2-7.88-3.39-11.54l-32.29,1.65
		C194.44,198.65,198.17,201.68,201.19,206.93z"/>
	<path class="st3" d="M173.9,207.27c2.81-4.91,6.09-7.95,9.84-9.13l-32.49,1.66c-2.78,8.63-4.18,18.29-4.18,28.99
		c0,3.48,0.15,6.84,0.45,10.1l23.18,5.07c-1.44-4.44-2.17-9.49-2.17-15.17C168.53,220.68,170.32,213.5,173.9,207.27z"/>
	<path class="st3" d="M220.84,192.67c-1.3-2.92-2.77-5.71-4.43-8.37c-7.74-12.3-17.4-18.46-28.98-18.46
		c-3.54,0-6.89,0.58-10.07,1.71l9.67,26.84L220.84,192.67z"/>
	<path class="st3" d="M215.08,272.25l0.75,2.08c0.23-0.35,0.47-0.7,0.7-1.06c2.73-4.35,4.95-9.07,6.69-14.17l-1.65-0.36
		L215.08,272.25z"/>
	<path class="st3" d="M174.08,168.97c-5.92,2.98-11.15,8.08-15.69,15.33c-2.31,3.69-4.27,7.64-5.87,11.85l30.79-1.57L174.08,168.97z
		"/>
	<path class="st3" d="M289.78,285.17c0.94,1.87,1.75,2.81,2.43,2.81c0.98,0,2.45,0.11,4.42,0.34c1.96,0.23,3.43,0.34,4.42,0.34
		c0.91,0,2.27-0.06,4.1-0.17c1.83-0.11,3.2-0.17,4.1-0.17c1.09,0,1.64-0.77,1.64-2.3v-7.76l-27.57-6.03
		C286.29,278.15,288.44,282.47,289.78,285.17z"/>
	<path class="st3" d="M311.63,193.18l-1.56,2.9l1.48,0.35C311.57,195.32,311.6,194.24,311.63,193.18z"/>
	<path class="st3" d="M271.44,248.6c1.06,2.1,2.07,4.11,3.04,6.04l8.86-16.45l-15.38,3.46C269.3,244.32,270.46,246.63,271.44,248.6z
		"/>
	<path class="st3" d="M258.41,243.81l-21.31,4.8c-0.08,2.89-0.17,6.01-0.28,9.35c0,0.15-0.01,0.3-0.01,0.46l21.94,4.8
		c-0.04-2.36-0.08-4.84-0.13-7.46C258.53,251.4,258.47,247.43,258.41,243.81z"/>
	<path class="st3" d="M287.94,237.16l-11.51,21.37c1.77,3.51,3.37,6.7,4.82,9.6l29.63,6.48V232L287.94,237.16z"/>
	<path class="st3" d="M258.89,172.68l-1.21-2.5c-0.94-1.93-1.64-2.89-2.09-2.89c-1.1,0-2.59,0.25-4.47,0.77
		c-2.23,0.62-3.72,0.99-4.47,1.11c-3.21,0.45-5.91,0.68-8.09,0.68c-1.47,0-2.21,0.62-2.21,1.87c0,5.79,0.14,14.22,0.43,25.25
		L256.34,178L258.89,172.68z"/>
	<path class="st3" d="M251.89,187.28L236.9,201.8c0.16,6.02,0.29,11.33,0.37,15.93L251.89,187.28z"/>
	<path class="st3" d="M290.5,224.88l14.21-26.4l-15.03-3.54c0.05,1.61,0.11,3.27,0.17,5.01
		C290.25,210.68,290.46,218.99,290.5,224.88z"/>
	<path class="st3" d="M237.39,225.74c0.01,1.6,0.02,3.07,0.02,4.4c0,3.77-0.07,8.7-0.22,14.78l21.17-4.76
		c-0.08-5.69-0.11-10.36-0.11-14.01c0-0.85,0.15-1.47,0.45-1.87c0.41,0.34,0.7,0.68,0.85,1.02c2.56,4.94,4.81,9.3,6.74,13.08
		l19.29-4.34l1.75-3.25c-3.8-7.52-6.65-13.24-8.53-17.14l-11.67-24.02l-5.37-1.27l0.82-3.47l2.55,0.6l-3.64-7.5l-2.19,2.12
		L237.39,225.74z"/>
	<path class="st3" d="M311.8,185.33c0.11-5.56,0.16-10.13,0.16-13.7c0-1.76-0.36-2.64-1.08-2.64c-2.26,0-5.68,0.14-10.25,0.43
		c-4.57,0.28-7.98,0.42-10.25,0.42c-0.79,0-1.19,1.05-1.19,3.15c0,4.45,0.12,10.54,0.36,18.26l16.9,3.98L311.8,185.33z"/>
	<path class="st3" d="M258.8,266.87l-22.11-4.84c-0.31,10.33-0.47,18.22-0.47,23.64c0,1.76,0.55,2.64,1.64,2.64h18.48l2.63-4.89
		C258.97,279.1,258.91,273.59,258.8,266.87z"/>
	<path class="st3" d="M311.43,200.76c0.01-0.23,0.01-0.46,0.02-0.69l-3.13-0.74L290.18,233l20.71-4.66
		C310.92,221.87,311.1,212.68,311.43,200.76z"/>
	<path class="st3" d="M354.02,262.21c-2.69,0-4.78-0.24-6.27-0.73l-4.78-0.42l-3.31,19.85l27.45,6l5.73-23.2l-17.46-1.55
		C354.93,262.19,354.48,262.21,354.02,262.21z"/>
	<path class="st3" d="M396.36,228.02c0-2.7-0.13-5.37-0.36-8.02l-8.23-1.94l-10.48,42.47l13.09,1.16
		c3.77-9.46,5.75-20.04,5.95-31.73l-0.71-0.32L396.36,228.02z"/>
	<path class="st3" d="M344.91,249.4l-1.35,8.13l1.41,0.13C344.96,255.48,344.94,252.73,344.91,249.4z"/>
	<path class="st3" d="M322.8,277.22l13.37,2.92l3.23-19.4l-16.23-1.44C323,266.27,322.87,272.25,322.8,277.22z"/>
	<path class="st3" d="M344.78,220.72c0.02-2.09,0.04-4.43,0.07-7.03c0.02-2.08,0.04-3.97,0.06-5.73l-21.66-5.1
		c0.22,9.28,0.36,16.82,0.41,22.62L344.78,220.72z"/>
	<path class="st3" d="M395.14,213.04l-6.48,1.46l-0.02,0.09l6.97,1.64C395.47,215.17,395.31,214.1,395.14,213.04z"/>
	<path class="st3" d="M373.85,217.83c0.55,3.14,0.83,6.53,0.83,10.19c0,10.09-1.75,18.23-5.26,24.41c-1.7,2.97-3.69,5.25-5.97,6.87
		l10.25,0.91l10.61-42.96l-3.82-0.9L373.85,217.83z"/>
	<path class="st3" d="M368.97,204.54c1.17,1.86,2.14,3.92,2.95,6.11l8.59,2.02l5.22-1.17l4.25-17.2
		c-2.41-5.93-5.35-10.77-8.83-14.51c-5.06-5.44-12.06-8.85-21-10.21c-0.53-0.08-1.16-0.15-1.89-0.22l-4.29,25.74
		C360.17,195.2,365.17,198.34,368.97,204.54z"/>
	<path class="st3" d="M323.68,229.12c0,0.35,0,0.69,0,1.02c0,5.81-0.14,14.34-0.42,25.58l16.73,1.49l4.74-28.47
		c0-1.23,0.01-2.68,0.02-4.36L323.68,229.12z"/>
	<path class="st3" d="M338.35,288.79c1.05,0.03,1.96,0.04,2.71,0.04c9.1,0,14.92-0.05,17.48-0.15l-19.47-4.26L338.35,288.79z"/>
	<path class="st3" d="M322.75,280.86c-0.02,2.05-0.03,3.88-0.03,5.51c0,1.31,0.55,1.96,1.64,1.96c1.85,0,4.63,0.08,8.35,0.26
		c0.72,0.03,1.39,0.06,2.04,0.09l0.83-5L322.75,280.86z"/>
	<path class="st3" d="M323.16,199.17l21.78,5.13c0.02-2.25,0.02-4.17,0.02-5.71c0-1.82,1.79-2.92,5.35-3.32l4.36-26.14
		c-4.07-0.2-9.78-0.31-17.12-0.31c-6.1,0-10.49,0.23-13.17,0.68l-1.65,3.07C322.74,178.73,322.88,187.6,323.16,199.17z"/>
	<path class="st3" d="M394.49,209.53c-0.57-2.79-1.26-5.56-2.09-8.3c-0.08-0.28-0.18-0.54-0.26-0.82l-2.52,10.22L394.49,209.53z"/>
	<path class="st3" d="M371.08,285.72c5.83-2.8,10.7-7.57,14.59-14.33c1.18-2.02,2.25-4.11,3.23-6.26l-12.47-1.11L371.08,285.72z"/>
	<path class="st3" d="M437.82,167.74c-0.92-0.07-2.03-0.18-3.38-0.36c-2.13-0.28-3.71-0.43-4.73-0.43c-0.6,0-1.13,1.08-1.58,3.23
		c-0.36,1.68-1.57,6.79-3.63,15.29l12.22,4.77L437.82,167.74z"/>
	<polygon class="st3" points="446.38,197.86 440.03,195.37 439.84,199.33 	"/>
	<path class="st3" d="M432.59,240.52c0-1.31,0.75-5.31,2.24-11.97l1.21-24.71l-16.96,3.82c-1.01,4.11-2.1,8.56-3.27,13.34l1.92,0.45
		l-0.82,3.47l-1.96-0.46c-0.61,2.49-1.24,5.06-1.9,7.72c-0.1,0.42-0.2,0.83-0.31,1.25l21.36,9.6l0.05-1.07
		C433.13,241.69,432.59,241.21,432.59,240.52z"/>
	<path class="st3" d="M400.27,286.53c0,1.65,2.89,2.47,8.66,2.47c7.32,0,11.62-0.23,12.91-0.68c0.91-0.35,1.69-2.43,2.36-6.2
		l-22.04-4.64C400.9,282.94,400.27,285.97,400.27,286.53z"/>
	<path class="st3" d="M436.33,270.8c0.17,0,0.33,0,0.51,0c9.51,0,14.57,0.2,15.17,0.6c0.72,0.57,1.72,4.93,3,13.1
		c0.03,0.17,0.06,0.33,0.1,0.49l18.58,3.91c2.44-0.11,4.01-0.3,4.7-0.58c0.94-0.4,1.42-1.11,1.42-2.13c0-0.92-1.62-7.89-4.85-20.89
		l-37.52-16.87L436.33,270.8z"/>
	<path class="st3" d="M439.65,203.03l-0.34,6.85c0.13-0.44,0.24-0.83,0.35-1.16c0.79,2.27,2.04,7.48,3.74,15.65
		c1.74,8.45,2.6,13.61,2.6,15.48c0,0.51-0.04,0.91-0.11,1.19c-0.26,0.91-1.64,1.36-4.13,1.36c-1.62,0-2.97-0.02-4.04-0.06
		l-0.11,2.28l36.23,16.29c-2-8-4.51-17.87-7.52-29.65c-2.8-10.91-5.25-20.4-7.35-28.47l-6.66-2.6L439.65,203.03z"/>
	<path class="st3" d="M452.6,196.46l4.46-1c-3.53-13.46-5.84-21.95-6.93-25.44c-0.6-1.87-1.26-2.81-1.98-2.81
		c-0.98,0-2.46,0.1-4.44,0.3c-0.87,0.09-1.64,0.15-2.33,0.2l-1.17,23.91L452.6,196.46z"/>
	<path class="st3" d="M426.59,271.56c0.32-0.39,2.37-0.63,6.16-0.72l1.18-23.98l-22.04-9.91c-4.02,16.42-7,28.77-8.93,37.05
		l21.81,4.59C425.43,274.69,426.04,272.34,426.59,271.56z"/>
	<path class="st3" d="M436.53,194.01l-12.88-5.03c-1.03,4.24-2.23,9.18-3.61,14.81l16.19-3.64L436.53,194.01z"/>
	<path class="st3" d="M505.29,184.6c0-0.15,0.01-0.28,0.01-0.43c0.17-5.81,0.25-10.16,0.25-13.06c0-0.85-0.43-1.28-1.3-1.28
		c-2.34,0-5.85-0.14-10.53-0.42c-4.68-0.28-8.17-0.43-10.47-0.43c-0.67,0-1.04,0.74-1.12,2.2l10.03,16.36L505.29,184.6z"/>
	<path class="st3" d="M504.07,282.95c-0.03,1.09-0.04,2.07-0.04,2.91c0,1.42,0.53,2.24,1.58,2.47c0.87,0.2,2.44,0.34,4.64,0.42
		l4.85-13.65L504.07,282.95z"/>
	<path class="st3" d="M550.44,190.71c-0.01-1.31-0.03-2.71-0.05-4.2l-1.91,5.36L550.44,190.71z"/>
	<path class="st3" d="M521.88,211.81c-2.18,4.58-3.97,8.09-5.34,10.51c-0.89-1.51-1.9-3.36-3.05-5.53l-2.49,1.48l15.39,25.09
		l15.43-43.39L521.88,211.81z"/>
	<path class="st3" d="M514.01,288.82c0.66,0.01,1.35,0.01,2.07,0.01c5.43,0,8.83-0.17,10.19-0.51c0.94-0.23,1.45-0.37,1.53-0.43
		c0.3-0.23,0.45-0.85,0.45-1.87c0-2.95-0.11-7.43-0.34-13.44c-0.09-2.39-0.16-4.54-0.22-6.45l-7.52,5.35L514.01,288.82z"/>
	<path class="st3" d="M550.29,176.15c-0.01-1.33-0.01-2.5-0.01-3.5c0-2.44-0.38-3.66-1.13-3.66c-2.3,0-5.73,0.16-10.27,0.47
		c-2.98,0.2-5.46,0.34-7.45,0.41l12.86,23.19L550.29,176.15z"/>
	<path class="st3" d="M522.18,255.2l-18.32-2.33c0.78,1.93,1.19,3.74,1.19,5.42c0,3.06-0.17,7.67-0.51,13.82
		c-0.13,2.34-0.23,4.45-0.31,6.34l12.97-9.23L522.18,255.2z"/>
	<path class="st3" d="M546.58,197.23l3.61,6.52c0.2-1.19,0.31-2.48,0.31-3.88c0-1.37-0.01-3.06-0.02-5.03l-3.86,2.29L546.58,197.23z
		"/>
	<polygon class="st3" points="527.68,252.3 527.25,251.59 527.02,252.22 	"/>
	<path class="st3" d="M527.6,261.82c-0.02-1.03-0.03-1.95-0.03-2.76c0-0.98,0.16-2.02,0.47-3.12l-2.24-0.28l-3.54,9.96L527.6,261.82
		z"/>
	<path class="st3" d="M528.78,247.27l1.82,2.97c7.51-14.51,13.57-28.4,18.18-41.68l-3.8-6.85L528.78,247.27z"/>
	<path class="st3" d="M482.65,193.35c0.1,3.77,0.15,6.8,0.15,9.06c0,1.42,0.43,3.23,1.3,5.44c0.16,0.37,0.3,0.72,0.46,1.08
		l20.81,8.13l-0.2,0.52l0.91-0.54l-15.61-25.46L482.65,193.35z"/>
	<path class="st3" d="M486.51,213.53c1.82,4.28,3.55,8.3,5.18,12.05l10.19-6.05L486.51,213.53z"/>
	<path class="st3" d="M524.85,247.68l-16.92-27.59l-14.81,8.79c3.49,8.02,6.49,14.75,8.99,20.17l21.28,2.7L524.85,247.68z"/>
	<path class="st3" d="M527.37,169.93h-0.13c-0.34,0.17-0.51,0.85-0.51,2.04c0,2.84,0.14,7.13,0.42,12.89
		c0.28,5.76,0.42,10.05,0.42,12.89c0,1.11-1,3.89-3.01,8.33l17.18-10.2L527.37,169.93z"/>
	<path class="st3" d="M509.14,215.23l2.71-1.61c-0.58-1.14-1.19-2.35-1.82-3.63c-3.32-6.8-4.98-11.06-4.98-12.76
		c0-2.16,0.05-5.15,0.14-8.95l-11.05,2.49L509.14,215.23z"/>
	<path class="st3" d="M482.2,178.13c0.06,2.56,0.14,5.55,0.26,8.98c0.03,0.9,0.06,1.77,0.08,2.61l5.95-1.34L482.2,178.13z"/>
	<polygon class="st2" points="29.48,296.72 32.92,297.69 54.18,222.12 50.69,221.36 	"/>
	<polygon class="st2" points="55.32,218.08 63.16,190.22 59.37,190.52 55.11,205.65 51.66,217.92 55.15,218.69 	"/>
	<polygon class="st2" points="64.19,186.56 69.26,168.55 74.83,148.76 71.39,147.8 65.51,168.72 60.4,186.86 	"/>
	<polygon class="st2" points="63.16,190.22 82.19,188.71 97.33,187.51 97.05,183.96 81.13,185.22 64.19,186.56 60.4,186.86 
		54.77,187.31 40.87,188.41 41.15,191.97 54.84,190.88 59.37,190.52 	"/>
	<polygon class="st2" points="136.87,196.95 138.23,194.81 157.55,164.4 154.54,162.48 138.37,187.94 132.5,197.17 	"/>
	<polygon class="st2" points="109.03,234.12 86.91,268.94 76.37,285.53 74.6,288.32 58.23,314.08 61.24,315.99 88.22,273.52 
		112.74,234.93 	"/>
	<polygon class="st2" points="130.16,200.86 111.07,230.91 114.78,231.73 134.52,200.64 	"/>
	<polygon class="st2" points="454.4,309.65 455.16,306.16 370.6,287.67 369.74,291.13 	"/>
	<polygon class="st2" points="266.94,268.65 268.69,265.38 258.75,263.21 236.81,258.41 224.29,255.68 223.15,255.42 221.56,258.73 
		223.22,259.09 236.69,262.04 258.8,266.87 	"/>
	<polygon class="st2" points="181.97,250.07 185.05,247.09 170.7,243.96 147.52,238.89 137.67,236.73 116.05,232 115.34,231.85 
		114.78,231.73 111.07,230.91 98.41,228.15 93.86,227.15 55.33,218.72 55.15,218.69 51.66,217.92 35.15,214.31 34.38,217.8 
		50.69,221.36 54.18,222.12 55.38,222.39 95.57,231.18 97.04,231.5 109.03,234.12 112.74,234.93 114.25,235.26 116.16,235.68 
		137.72,240.39 147.94,242.63 172.26,247.95 	"/>
	<polygon class="st2" points="189.23,248.01 186.15,250.99 198.47,253.68 205.12,255.13 203.69,251.17 200.68,250.51 	"/>
	<polygon class="st2" points="219.57,254.64 207.81,252.07 209.23,256.03 217.98,257.95 	"/>
	<polygon class="st2" points="336.17,280.14 322.8,277.22 310.89,274.61 281.26,268.13 272.32,266.18 270.56,269.44 283.32,272.23 
		310.89,278.26 322.75,280.86 335.59,283.66 	"/>
	<polygon class="st2" points="367.11,286.91 339.66,280.9 339.07,284.43 358.54,288.68 366.26,290.37 	"/>
	<polygon class="st2" points="237.39,225.74 259.28,180.11 251.89,187.28 237.28,217.73 227.41,238.31 219.57,254.64 217.98,257.95 
		213.38,267.54 215.08,272.25 221.56,258.73 223.15,255.42 225.68,250.16 	"/>
	<polygon class="st2" points="211.21,272.05 204.36,286.34 190.11,316.05 193.32,317.59 211.19,280.35 212.91,276.76 	"/>
	<polygon class="st2" points="263.74,170.83 278.04,141.03 274.82,139.48 258.89,172.68 256.34,178 	"/>
	<polygon class="st2" points="184.57,198.09 197.78,234.75 200.59,232.03 188.3,197.9 	"/>
	<polygon class="st2" points="187.03,194.39 177.37,167.55 170.21,147.68 166.85,148.88 174.08,168.97 183.31,194.58 	"/>
	<polygon class="st2" points="213.38,267.54 209.23,256.03 207.81,252.07 204.33,242.41 201.92,235.71 199.1,238.43 202.35,247.44 
		203.69,251.17 205.12,255.13 211.21,272.05 212.91,276.76 213.3,277.85 234.62,337.04 237.98,335.84 215.82,274.33 215.08,272.25 	
		"/>
	<polygon class="st2" points="186.15,250.99 189.23,248.01 199.1,238.43 201.92,235.71 206.26,231.5 226.48,211.91 236.9,201.8 
		251.89,187.28 259.28,180.11 261.47,177.99 269.65,170.07 267.16,167.51 263.74,170.83 256.34,178 236.77,196.96 225.69,207.7 
		206.29,226.51 200.59,232.03 197.78,234.75 185.05,247.09 181.97,250.07 176.92,254.97 158.33,272.99 122.7,307.52 125.18,310.08 
		160.35,275.99 179.66,257.28 	"/>
	<polygon class="st2" points="134.52,200.64 138.09,200.46 151.25,199.79 183.74,198.13 184.57,198.09 188.3,197.9 190.01,197.81 
		222.3,196.17 234.61,195.54 234.43,191.98 220.84,192.67 187.03,194.39 183.31,194.58 152.52,196.15 138.18,196.88 136.87,196.95 
		132.5,197.17 107.84,198.43 94.42,199.11 94.6,202.68 106.71,202.06 130.16,200.86 	"/>
	<polygon class="st2" points="380.5,212.68 371.92,210.66 352.15,206 351.56,209.52 372.55,214.47 	"/>
	<polygon class="st2" points="261.75,188.36 267.13,189.63 289.69,194.94 304.72,198.49 306.47,195.23 289.57,191.25 265.12,185.49 
		262.57,184.89 	"/>
	<polygon class="st2" points="323.16,199.17 311.54,196.43 310.06,196.08 308.31,199.33 311.45,200.07 323.25,202.85 344.91,207.96 
		348.08,208.7 348.67,205.18 344.94,204.3 	"/>
	<polygon class="st2" points="384.31,217.24 384.77,215.38 380.49,216.34 	"/>
	<polygon class="st2" points="416.92,224.92 417.74,221.45 415.81,221 395.61,216.24 388.63,214.59 387.78,218.06 396.01,220 
		414.96,224.46 	"/>
	<polygon class="st2" points="276.44,258.53 287.94,237.16 283.33,238.2 274.48,254.64 268.69,265.38 266.94,268.65 258.98,283.43 
		256.35,288.32 253.46,293.68 256.6,295.37 270.56,269.44 272.32,266.18 	"/>
	<polygon class="st2" points="304.72,198.49 290.5,224.88 287.32,230.79 285.57,234.04 290.18,233 308.31,199.33 310.06,196.08 
		311.63,193.18 322.72,172.57 324.38,169.5 331.51,156.26 328.36,154.57 311.8,185.33 306.47,195.23 	"/>
	<polygon class="st2" points="388.66,214.5 395.14,213.04 419.08,207.65 436.04,203.84 436.22,200.14 420.03,203.79 394.49,209.53 
		389.61,210.63 	"/>
	<polygon class="st2" points="323.66,225.47 310.89,228.34 290.18,233 285.57,234.04 266.29,238.38 258.36,240.16 237.19,244.92 
		230.56,246.42 231.34,249.9 237.1,248.6 258.41,243.81 267.95,241.66 283.33,238.2 287.94,237.16 310.89,232 323.68,229.12 
		344.75,224.38 345.49,224.21 346.13,220.41 344.78,220.72 	"/>
	<polygon class="st2" points="458.54,198.78 482.65,193.35 490.46,191.59 488.49,188.38 482.54,189.72 457.06,195.45 452.6,196.46 	
		"/>
	<polygon class="st2" points="439.65,203.03 452.32,200.18 446.38,197.86 439.84,199.33 	"/>
	<polygon class="st2" points="494.14,190.77 505.19,188.28 516.7,185.69 515.92,182.21 505.29,184.6 492.17,187.55 	"/>
	<polygon class="st2" points="372.55,214.47 349.88,219.57 349.25,223.37 373.85,217.83 380.49,216.34 384.77,215.38 385.72,211.5 
		380.5,212.68 	"/>
	<polygon class="st2" points="436.71,190.25 424.49,185.48 391.22,172.48 389.93,175.8 423.64,188.97 436.53,194.01 	"/>
	<polygon class="st2" points="505.16,217.59 505.37,217.07 484.56,208.94 458.54,198.78 452.6,196.46 440.21,191.62 440.03,195.37 
		446.38,197.86 452.32,200.18 458.98,202.78 486.51,213.53 501.88,219.54 	"/>
	<polygon class="st2" points="434.12,243.04 412.76,233.43 397.09,226.39 396.36,228.02 395.63,229.64 396.34,229.96 411.89,236.96 
		433.93,246.86 	"/>
	<polygon class="st2" points="437.43,248.44 474.95,265.3 495.96,274.75 497.42,271.5 473.85,260.9 437.61,244.61 	"/>
	<polygon class="st2" points="431.6,294.44 435.16,294.62 435.65,284.53 432.12,283.79 	"/>
	<polygon class="st2" points="436.53,194.01 436.22,200.14 436.04,203.84 434.83,228.55 434.17,241.97 434.12,243.04 433.93,246.86 
		432.75,270.84 432.3,280.18 435.83,280.92 436.33,270.8 437.43,248.44 437.61,244.61 437.73,242.33 439.32,209.87 439.65,203.03 
		439.84,199.33 440.03,195.37 440.21,191.62 441.39,167.71 442.29,149.26 438.73,149.08 437.82,167.74 436.71,190.25 	"/>
	<polygon class="st2" points="435.83,280.92 432.3,280.18 424.77,278.6 402.96,274 398.97,273.16 398.23,276.65 402.15,277.48 
		424.2,282.12 432.12,283.79 435.65,284.53 499.89,298.06 500.63,294.57 473.68,288.89 455.1,284.98 	"/>
	<polygon class="st2" points="344.96,257.65 343.56,257.52 342.97,261.05 347.75,261.48 355.37,262.16 372.84,263.71 373.7,260.2 
		363.45,259.29 	"/>
	<polygon class="st2" points="318.5,255.3 318.18,258.85 323.17,259.29 339.41,260.74 339.99,257.21 323.26,255.72 	"/>
	<polygon class="st2" points="376.43,264.03 388.9,265.14 398.44,265.98 398.76,262.43 390.39,261.69 377.3,260.52 	"/>
	<polygon class="st2" points="339.66,280.9 342.97,261.05 343.56,257.52 344.91,249.4 349.25,223.37 349.88,219.57 351.56,209.52 
		352.15,206 353.96,195.11 358.25,169.37 360.23,157.49 356.71,156.9 354.67,169.13 350.32,195.27 348.67,205.18 348.08,208.7 
		346.13,220.41 345.49,224.21 344.74,228.74 339.99,257.21 339.41,260.74 336.17,280.14 335.59,283.66 334.75,288.66 329.96,317.42 
		333.48,318.01 338.35,288.79 339.07,284.43 	"/>
	<polygon class="st2" points="377.3,260.52 387.78,218.06 388.63,214.59 388.66,214.5 389.61,210.63 392.14,200.41 395.87,185.27 
		392.41,184.41 389.97,194.3 385.72,211.5 384.77,215.38 384.31,217.24 373.7,260.2 372.84,263.71 367.11,286.91 366.26,290.37 
		357.63,325.31 361.09,326.17 369.74,291.13 370.6,287.67 371.08,285.72 376.43,264.03 	"/>
	<polygon class="st2" points="511,218.27 513.49,216.79 521.88,211.81 541.81,199.98 542.68,197.55 541.75,195.87 524.57,206.07 
		511.85,213.62 509.14,215.23 	"/>
	<polygon class="st2" points="506.07,217.05 505.16,217.59 501.88,219.54 491.69,225.59 483.3,230.57 485.12,233.64 493.12,228.89 
		507.93,220.09 	"/>
	<polygon class="st2" points="546.61,197.13 550.48,194.83 570.73,182.81 568.91,179.74 550.44,190.71 548.48,191.87 	"/>
	<polygon class="st2" points="546.58,197.23 544.98,201.71 548.78,208.56 563.8,235.65 566.92,233.92 550.19,203.74 	"/>
	<polygon class="st2" points="542.68,197.55 544.27,193.06 531.41,169.87 521.44,151.87 518.32,153.6 527.37,169.93 541.75,195.87 	
		"/>
	<polygon class="st2" points="534.64,256.82 534.61,256.78 530.07,256.2 531.72,258.89 	"/>
	<polygon class="st2" points="548.68,286.54 551.72,284.68 536.5,259.87 533.59,261.94 	"/>
	<polygon class="st2" points="527.25,251.59 527.68,252.3 532.22,252.88 530.6,250.24 528.78,247.27 	"/>
	<polygon class="st2" points="490.46,191.59 506.07,217.05 507.93,220.09 524.85,247.68 526.39,243.36 511,218.27 509.14,215.23 
		494.14,190.77 492.17,187.55 482.14,171.19 476.81,162.51 473.77,164.37 482.2,178.13 488.49,188.38 	"/>
	<polygon class="st2" points="515.11,275.09 510.25,288.74 498.58,321.57 501.94,322.77 514.01,288.82 520.17,271.49 	"/>
	<polygon class="st2" points="522.26,265.63 525.8,255.66 522.18,255.2 517.19,269.23 	"/>
	<polygon class="st2" points="542.68,197.55 541.81,199.98 526.39,243.36 524.85,247.68 523.4,251.76 527.02,252.22 527.25,251.59 
		528.78,247.27 544.98,201.71 546.58,197.23 546.61,197.13 548.48,191.87 550.39,186.5 559.01,162.25 555.65,161.06 550.29,176.15 
		544.27,193.06 	"/>
	<polygon class="st2" points="527.68,252.3 527.02,252.22 523.4,251.76 502.12,249.06 495.13,248.17 494.68,251.71 503.86,252.87 
		522.18,255.2 525.8,255.66 528.04,255.95 530.07,256.2 534.61,256.78 534.68,256.79 537.57,254.73 539.47,257.4 550.86,258.84 
		551.31,255.31 532.22,252.88 	"/>
	<polygon class="st2" points="534.68,256.79 534.64,256.82 531.72,258.89 527.6,261.82 522.26,265.63 517.19,269.23 504.22,278.46 
		491.2,287.72 493.27,290.63 504.07,282.95 515.11,275.09 520.17,271.49 527.7,266.13 533.59,261.94 536.5,259.87 539.64,257.64 
		539.47,257.4 537.57,254.73 	"/>
</g>
<g>
	<path class="st3" d="M281.77,90.25c-0.72,0-1.31,0.28-1.77,0.83c-0.43,0.51-0.65,1.11-0.65,1.81c0,0.28,0.16,0.42,0.48,0.42
		c0.84,0,2.15-0.12,3.92-0.36c0.37-0.05,0.56-0.14,0.56-0.25c0-0.65-0.25-1.22-0.75-1.71C283.06,90.49,282.46,90.25,281.77,90.25z"
		/>
	<path class="st3" d="M309.23,91.35c-0.98,0-1.77,0.29-2.37,0.86c-0.6,0.58-0.9,1.31-0.9,2.21c0,0.85,0.32,1.58,0.95,2.18
		c0.64,0.61,1.41,0.91,2.32,0.91c0.97,0,1.76-0.29,2.37-0.87c0.61-0.58,0.92-1.32,0.92-2.22c0-0.89-0.3-1.62-0.91-2.21
		C311,91.64,310.21,91.35,309.23,91.35z"/>
	<path class="st3" d="M243.77,91.35c-0.98,0-1.77,0.29-2.37,0.86c-0.6,0.58-0.9,1.31-0.9,2.21c0,0.85,0.32,1.58,0.95,2.18
		c0.64,0.61,1.41,0.91,2.32,0.91c0.97,0,1.76-0.29,2.37-0.87c0.61-0.58,0.92-1.32,0.92-2.22c0-0.89-0.3-1.62-0.91-2.21
		C245.54,91.64,244.75,91.35,243.77,91.35z"/>
	<path class="st3" d="M146.69,61.38v63.91h311.46V61.38H146.69z M181.85,104.4c-10.54,0-15.81-7.2-15.81-14.4
		c0-7.2,5.27-14.4,15.81-14.4c10.58,0,15.85,7.2,15.85,14.4C197.69,97.2,192.42,104.4,181.85,104.4z M232.25,102.1
		c-0.05,0.03-0.2,0.06-0.48,0.08c-0.69,0.06-1.67,0.09-2.93,0.09c-1.78,0-2.83-0.03-3.14-0.09c-0.31-0.06-0.47-0.2-0.47-0.42
		c0-0.83,0.04-2.07,0.13-3.73c0.09-1.66,0.13-2.9,0.13-3.73c0-0.41-0.13-0.64-0.38-0.71c-0.39-0.08-1.76-0.13-4.12-0.13
		c-2.38,0-3.76,0.04-4.16,0.13c-0.25,0.05-0.37,0.29-0.37,0.71c0,0.82,0.03,2.04,0.09,3.67c0.06,1.63,0.09,2.85,0.09,3.67
		c0,0.31-0.15,0.5-0.46,0.55c-0.36,0.06-1.43,0.09-3.2,0.09c-1.53,0-2.51-0.03-2.93-0.09c-0.33-0.05-0.49-0.21-0.49-0.49
		c0-1.13,0.06-2.84,0.18-5.12c0.12-2.28,0.18-3.99,0.18-5.13c0-1.21-0.06-3.04-0.17-5.47c-0.11-2.43-0.17-4.26-0.17-5.47
		c0-0.23,0.12-0.35,0.36-0.35c0.35,0,0.88,0.02,1.59,0.05c0.71,0.03,1.24,0.05,1.59,0.05c0.36,0,0.91-0.02,1.64-0.05
		c0.73-0.03,1.28-0.05,1.64-0.05c0.19,0,0.29,0.09,0.29,0.28c0,0.79-0.06,1.96-0.19,3.52c-0.13,1.56-0.19,2.74-0.19,3.52
		c0,0.37,0.11,0.58,0.32,0.64c0.3,0.08,1.75,0.13,4.36,0.13c2.43,0,3.84-0.04,4.23-0.13c0.27-0.06,0.41-0.28,0.41-0.64
		c0-0.75-0.04-1.89-0.12-3.41c-0.08-1.52-0.12-2.67-0.12-3.43c0-0.32,0.14-0.49,0.43-0.49c0.33,0,0.83,0.02,1.51,0.05
		s1.18,0.05,1.53,0.05c0.33,0,0.83-0.02,1.51-0.05c0.68-0.03,1.18-0.05,1.53-0.05c0.33,0,0.49,0.13,0.49,0.38
		c0,1.2-0.05,3.02-0.16,5.45c-0.11,2.43-0.16,4.25-0.16,5.46c0,1.14,0.06,2.85,0.18,5.13c0.12,2.28,0.18,3.99,0.18,5.12
		C232.41,101.91,232.35,102.05,232.25,102.1z M253.1,88.32c-0.36,1.89-0.55,3.9-0.55,6.01c0,0.81,0.05,2,0.15,3.6
		c0.1,1.59,0.15,2.78,0.15,3.58c0,0.42-0.2,0.64-0.6,0.67c-1.41,0.09-3.02,0.14-4.84,0.14c-0.22,0-0.36-0.3-0.43-0.9
		c-0.07-0.6-0.16-0.91-0.26-0.92c-0.09,0.04-0.21,0.13-0.36,0.27c-1.27,1.18-2.64,1.77-4.09,1.77c-2.22,0-4.05-0.81-5.51-2.42
		c-1.38-1.51-2.06-3.31-2.06-5.4c0-2.42,0.71-4.36,2.13-5.84c1.48-1.53,3.5-2.29,6.07-2.29c1.78,0,3.19,0.58,4.23,1.73
		c0.05,0.05,0.09,0.08,0.12,0.08c0.1,0,0.22-0.25,0.35-0.76c0.13-0.51,0.29-0.76,0.47-0.76c0.42,0,1.22,0.11,2.4,0.33
		c1.13,0.21,1.93,0.39,2.42,0.53c0.17,0.06,0.26,0.15,0.26,0.25C253.15,88.03,253.13,88.14,253.1,88.32z M272.15,94.46
		c-0.26,0.74-1.05,2-2.35,3.78c-1.14,1.53-2.11,2.72-2.91,3.58c-0.3,0.32-1.19,0.49-2.68,0.49c-1.3,0-2.14-0.04-2.52-0.13
		c-0.24-0.05-0.44-0.16-0.6-0.31c-0.68-0.68-1.65-1.86-2.91-3.55c-1.35-1.81-2.16-3.05-2.42-3.72c-0.28-0.72-0.43-1.81-0.43-3.25
		c0-0.41,0.01-1.02,0.02-1.84c0.01-0.82,0.02-1.44,0.02-1.86c0-0.27,0.2-0.41,0.6-0.41c0.58,0,1.45,0.02,2.62,0.05
		c1.16,0.03,2.04,0.05,2.62,0.05c0.26,0,0.39,0.16,0.39,0.49c0,0.29-0.02,0.74-0.07,1.33c-0.05,0.59-0.07,1.04-0.07,1.34
		c0,1.09,0.03,1.98,0.1,2.67c0.03,0.36,0.36,1.03,0.99,2.01c0.65,1.04,1.12,1.55,1.41,1.55c0.28,0,0.74-0.51,1.36-1.52
		c0.6-0.95,0.93-1.6,0.97-1.95c0.09-0.74,0.14-1.64,0.14-2.7c0-0.3-0.03-0.76-0.1-1.37c-0.07-0.61-0.1-1.06-0.1-1.36
		c0-0.32,0.12-0.49,0.36-0.49c0.27,0,0.68,0.01,1.22,0.02c0.54,0.01,0.95,0.02,1.22,0.02c0.27,0,0.68-0.02,1.24-0.06
		c0.55-0.04,0.96-0.06,1.24-0.06c0.28,0,0.47,0.14,0.56,0.41c0.19,0.6,0.29,1.81,0.29,3.64C272.34,93.07,272.28,94.13,272.15,94.46z
		 M281.09,97.85c0.66,0.29,1.41,0.44,2.25,0.44c1.01,0,2.03-0.25,3.05-0.75c0.43-0.25,0.86-0.5,1.3-0.75c0.24,0.1,0.64,0.64,1.2,1.6
		c0.56,0.96,0.84,1.58,0.84,1.84c0,0.07-0.09,0.19-0.26,0.36c-1.39,1.37-3.54,2.06-6.46,2.06c-2.7,0-4.89-0.73-6.55-2.18
		c-1.7-1.48-2.56-3.45-2.56-5.92c0-2.41,0.76-4.38,2.28-5.92c1.57-1.59,3.65-2.39,6.24-2.39c2.18,0,4.03,0.73,5.56,2.2
		c1.52,1.47,2.28,3.21,2.28,5.23c0,1.06-0.37,1.66-1.11,1.81c-0.13,0.02-1.3,0.14-3.53,0.35c-1.34,0.14-3.34,0.3-6,0.49
		C279.8,96.97,280.28,97.49,281.09,97.85z M318.55,88.32c-0.36,1.89-0.55,3.9-0.55,6.01c0,0.81,0.05,2,0.15,3.6
		c0.1,1.59,0.15,2.78,0.15,3.58c0,0.42-0.2,0.64-0.6,0.67c-1.41,0.09-3.02,0.14-4.84,0.14c-0.22,0-0.36-0.3-0.43-0.9
		c-0.07-0.6-0.16-0.91-0.26-0.92c-0.09,0.04-0.21,0.13-0.36,0.27c-1.27,1.18-2.64,1.77-4.09,1.77c-2.22,0-4.05-0.81-5.51-2.42
		c-1.38-1.51-2.06-3.31-2.06-5.4c0-2.42,0.71-4.36,2.13-5.84c1.48-1.53,3.5-2.29,6.07-2.29c1.78,0,3.19,0.58,4.23,1.73
		c0.05,0.05,0.09,0.08,0.12,0.08c0.1,0,0.22-0.25,0.35-0.76c0.13-0.51,0.29-0.76,0.47-0.76c0.42,0,1.22,0.11,2.4,0.33
		c1.13,0.21,1.93,0.39,2.42,0.53c0.17,0.06,0.26,0.15,0.26,0.25C318.6,88.03,318.59,88.14,318.55,88.32z M352.89,86.02
		c-0.11,2.39-0.16,4.19-0.16,5.39v10.35c0,0.28-0.16,0.42-0.49,0.42c-0.27,0-0.68,0.01-1.24,0.03s-0.96,0.03-1.24,0.03
		c-0.3,0-0.74-0.02-1.33-0.06c-0.59-0.04-1.03-0.06-1.33-0.06c-0.2,0-0.45-0.17-0.73-0.52c-0.82-1.02-2.66-3.27-5.52-6.75
		c-0.78-0.97-1.98-2.41-3.58-4.3c-0.05-0.06-0.13-0.13-0.26-0.19c-0.09,0.07-0.14,0.19-0.14,0.35c0,1.21,0.04,3.04,0.11,5.46
		c0.07,2.43,0.11,4.25,0.11,5.46c0,0.37-0.15,0.55-0.46,0.55h-5.9c-0.33,0-0.49-0.16-0.49-0.49c0-1.13,0.06-2.84,0.18-5.12
		s0.18-3.99,0.18-5.13c0-1.2-0.05-3-0.16-5.4c-0.11-2.4-0.16-4.19-0.16-5.38c0-0.23,0.22-0.35,0.66-0.35c0.66,0,1.47-0.04,2.44-0.13
		c0.23-0.02,0.68-0.09,1.35-0.2c0.57-0.09,1.02-0.14,1.35-0.14c0.14,0,0.35,0.18,0.63,0.53l6.36,8.02c0.57,0.72,1.43,1.78,2.57,3.17
		c0.28,0.32,0.53,0.49,0.73,0.49c0.15,0,0.22-0.41,0.22-1.22c0-1.1-0.07-2.75-0.2-4.96c-0.13-2.21-0.2-3.87-0.2-4.98
		c0-0.39,0.12-0.58,0.36-0.58c0.68,0,1.71-0.03,3.08-0.08c1.38-0.05,2.4-0.08,3.09-0.08c0.22,0,0.32,0.16,0.32,0.49
		C353.05,81.83,353,83.63,352.89,86.02z M362.78,87.88c-0.25,2.04-0.37,4.41-0.37,7.1c0,0.76,0.02,1.9,0.05,3.41
		c0.03,1.51,0.05,2.65,0.05,3.4c0,0.22-0.14,0.35-0.43,0.39c-0.39,0.06-1.26,0.09-2.61,0.09c-1.36,0-2.24-0.03-2.62-0.09
		c-0.25-0.04-0.4-0.11-0.46-0.2c-0.02-0.04-0.03-0.2-0.03-0.47c0-0.72,0.02-1.81,0.05-3.26c0.03-1.45,0.05-2.54,0.05-3.27
		c0-2.97-0.13-5.34-0.37-7.1c-0.02-0.17-0.03-0.28-0.03-0.33c0-0.21,0.15-0.31,0.46-0.31c0.32,0,0.8,0.03,1.46,0.09
		c0.65,0.06,1.14,0.09,1.47,0.09c0.33,0,0.82-0.03,1.48-0.08c0.66-0.05,1.15-0.08,1.48-0.08c0.27,0,0.41,0.1,0.41,0.31
		C362.82,87.62,362.81,87.72,362.78,87.88z M359.51,86.04c-0.95,0-1.74-0.23-2.37-0.69c-0.68-0.5-1.02-1.18-1.02-2.04
		c0-0.82,0.35-1.49,1.06-2.01c0.65-0.48,1.43-0.72,2.34-0.72c0.89,0,1.65,0.25,2.3,0.74c0.69,0.52,1.04,1.19,1.04,1.99
		C362.85,85.13,361.74,86.04,359.51,86.04z M371.97,96.69c0.66,0.55,1.52,0.82,2.57,0.82c0.5,0,1.06-0.12,1.69-0.35
		c0.62-0.24,0.92-0.35,0.89-0.35c0.19,0,0.44,0.66,0.75,1.99c0.26,1.21,0.39,2.02,0.39,2.42c0,0.4-0.7,0.74-2.11,1.02
		c-1.09,0.22-1.97,0.33-2.64,0.33c-2.5,0-4.56-0.77-6.19-2.32c-1.63-1.55-2.44-3.48-2.44-5.79c0-2.29,0.82-4.22,2.45-5.78
		c1.63-1.56,3.69-2.35,6.18-2.35c1.69,0,3.18,0.33,4.47,1c0.3,0.15,0.44,0.29,0.44,0.42c0,0.14-0.17,0.75-0.51,1.85
		c-0.32,1.06-0.53,1.7-0.62,1.92c-0.1,0.22-0.2,0.33-0.3,0.33c-0.01,0-0.36-0.08-1.03-0.25c-0.68-0.17-1.22-0.25-1.64-0.25
		c-1.01,0-1.82,0.28-2.42,0.84c-0.6,0.56-0.9,1.31-0.9,2.24C370.98,95.39,371.31,96.14,371.97,96.69z M386.65,97.85
		c0.66,0.29,1.41,0.44,2.25,0.44c1.01,0,2.03-0.25,3.05-0.75c0.43-0.25,0.86-0.5,1.3-0.75c0.24,0.1,0.64,0.64,1.2,1.6
		c0.56,0.96,0.84,1.58,0.84,1.84c0,0.07-0.09,0.19-0.26,0.36c-1.39,1.37-3.54,2.06-6.46,2.06c-2.7,0-4.89-0.73-6.55-2.18
		c-1.7-1.48-2.56-3.45-2.56-5.92c0-2.41,0.76-4.38,2.28-5.92c1.57-1.59,3.65-2.39,6.24-2.39c2.18,0,4.03,0.73,5.56,2.2
		c1.52,1.47,2.28,3.21,2.28,5.23c0,1.06-0.37,1.66-1.11,1.81c-0.13,0.02-1.3,0.14-3.53,0.35c-1.34,0.14-3.34,0.3-6,0.49
		C385.36,96.97,385.84,97.49,386.65,97.85z M422.51,104.4c-10.54,0-15.81-7.2-15.81-14.4c0-7.2,5.27-14.4,15.81-14.4
		c10.58,0,15.85,7.2,15.85,14.4C438.36,97.2,433.09,104.4,422.51,104.4z"/>
	<path class="st3" d="M387.33,90.25c-0.72,0-1.31,0.28-1.77,0.83c-0.43,0.51-0.65,1.11-0.65,1.81c0,0.28,0.16,0.42,0.48,0.42
		c0.84,0,2.15-0.12,3.92-0.36c0.37-0.05,0.56-0.14,0.56-0.25c0-0.65-0.25-1.22-0.75-1.71C388.62,90.49,388.02,90.25,387.33,90.25z"
		/>
	<path class="st2" d="M181.85,75.59c-10.54,0-15.81,7.2-15.81,14.4c0,7.2,5.27,14.4,15.81,14.4c10.58,0,15.85-7.2,15.85-14.4
		C197.69,82.79,192.42,75.59,181.85,75.59z"/>
	<path class="st2" d="M232.05,91.44c0-1.21,0.05-3.04,0.16-5.46c0.11-2.43,0.16-4.24,0.16-5.45c0-0.25-0.16-0.38-0.49-0.38
		c-0.34,0-0.85,0.02-1.53,0.05c-0.68,0.03-1.18,0.05-1.51,0.05c-0.34,0-0.85-0.02-1.53-0.05s-1.18-0.05-1.51-0.05
		c-0.28,0-0.43,0.16-0.43,0.49c0,0.76,0.04,1.91,0.12,3.43c0.08,1.52,0.12,2.66,0.12,3.41c0,0.37-0.14,0.58-0.41,0.64
		c-0.39,0.08-1.8,0.13-4.23,0.13c-2.61,0-4.07-0.04-4.36-0.13c-0.22-0.06-0.32-0.28-0.32-0.64c0-0.78,0.06-1.96,0.19-3.52
		c0.12-1.56,0.19-2.74,0.19-3.52c0-0.19-0.1-0.28-0.29-0.28c-0.36,0-0.91,0.02-1.64,0.05c-0.73,0.03-1.28,0.05-1.64,0.05
		c-0.35,0-0.88-0.02-1.59-0.05c-0.71-0.03-1.24-0.05-1.59-0.05c-0.24,0-0.36,0.11-0.36,0.35c0,1.21,0.06,3.04,0.17,5.47
		c0.11,2.43,0.17,4.26,0.17,5.47c0,1.14-0.06,2.85-0.18,5.13c-0.12,2.28-0.18,3.99-0.18,5.12c0,0.27,0.16,0.43,0.49,0.49
		c0.42,0.06,1.4,0.09,2.93,0.09c1.77,0,2.84-0.03,3.2-0.09c0.31-0.05,0.46-0.24,0.46-0.55c0-0.82-0.03-2.04-0.09-3.67
		c-0.06-1.63-0.09-2.85-0.09-3.67c0-0.42,0.12-0.65,0.37-0.71c0.4-0.08,1.78-0.13,4.16-0.13c2.36,0,3.74,0.04,4.12,0.13
		c0.25,0.06,0.38,0.3,0.38,0.71c0,0.83-0.04,2.07-0.13,3.73c-0.09,1.66-0.13,2.9-0.13,3.73c0,0.22,0.16,0.36,0.47,0.42
		c0.31,0.06,1.36,0.09,3.14,0.09c1.26,0,2.24-0.03,2.93-0.09c0.27-0.02,0.43-0.05,0.48-0.08c0.1-0.05,0.15-0.19,0.15-0.41
		c0-1.13-0.06-2.84-0.18-5.12C232.11,94.29,232.05,92.58,232.05,91.44z"/>
	<path class="st2" d="M252.89,87.74c-0.49-0.15-1.3-0.32-2.42-0.53c-1.18-0.22-1.98-0.33-2.4-0.33c-0.18,0-0.34,0.25-0.47,0.76
		c-0.13,0.51-0.25,0.76-0.35,0.76c-0.03,0-0.07-0.03-0.12-0.08c-1.03-1.15-2.44-1.73-4.23-1.73c-2.57,0-4.59,0.76-6.07,2.29
		c-1.42,1.48-2.13,3.42-2.13,5.84c0,2.09,0.69,3.89,2.06,5.4c1.45,1.61,3.29,2.42,5.51,2.42c1.45,0,2.82-0.59,4.09-1.77
		c0.15-0.14,0.27-0.22,0.36-0.27c0.1,0.01,0.19,0.32,0.26,0.92c0.07,0.6,0.22,0.9,0.43,0.9c1.82,0,3.43-0.05,4.84-0.14
		c0.4-0.03,0.6-0.26,0.6-0.67c0-0.8-0.05-1.99-0.15-3.58c-0.1-1.59-0.15-2.79-0.15-3.6c0-2.11,0.18-4.12,0.55-6.01
		c0.03-0.18,0.05-0.29,0.05-0.33C253.15,87.88,253.06,87.8,252.89,87.74z M246.14,96.65c-0.61,0.58-1.4,0.87-2.37,0.87
		c-0.91,0-1.68-0.3-2.32-0.91c-0.64-0.61-0.95-1.33-0.95-2.18c0-0.9,0.3-1.64,0.9-2.21c0.6-0.58,1.39-0.86,2.37-0.86
		c0.98,0,1.77,0.29,2.38,0.87c0.61,0.58,0.91,1.32,0.91,2.21C247.06,95.33,246.76,96.07,246.14,96.65z"/>
	<path class="st2" d="M271.49,87.23c-0.27,0-0.68,0.02-1.24,0.06c-0.55,0.04-0.96,0.06-1.24,0.06c-0.27,0-0.68,0-1.22-0.02
		c-0.54-0.01-0.95-0.02-1.22-0.02c-0.24,0-0.36,0.16-0.36,0.49c0,0.29,0.03,0.75,0.1,1.36c0.07,0.61,0.1,1.07,0.1,1.37
		c0,1.06-0.05,1.96-0.14,2.7c-0.05,0.35-0.37,0.99-0.97,1.95c-0.62,1.02-1.08,1.52-1.36,1.52c-0.3,0-0.77-0.52-1.41-1.55
		c-0.62-0.98-0.95-1.65-0.99-2.01c-0.07-0.69-0.1-1.58-0.1-2.67c0-0.3,0.02-0.75,0.07-1.34c0.05-0.59,0.07-1.03,0.07-1.33
		c0-0.32-0.13-0.49-0.39-0.49c-0.58,0-1.45-0.02-2.62-0.05c-1.17-0.03-2.04-0.05-2.62-0.05c-0.4,0-0.6,0.14-0.6,0.41
		c0,0.42-0.01,1.04-0.02,1.86c-0.01,0.82-0.02,1.44-0.02,1.84c0,1.44,0.14,2.53,0.43,3.25c0.26,0.67,1.07,1.91,2.42,3.72
		c1.26,1.69,2.23,2.87,2.91,3.55c0.16,0.16,0.36,0.26,0.6,0.31c0.39,0.08,1.23,0.13,2.52,0.13c1.49,0,2.38-0.16,2.68-0.49
		c0.81-0.86,1.78-2.05,2.91-3.58c1.31-1.78,2.09-3.04,2.35-3.78c0.12-0.32,0.19-1.38,0.19-3.17c0-1.83-0.1-3.05-0.29-3.64
		C271.96,87.37,271.77,87.23,271.49,87.23z"/>
	<path class="st2" d="M289.17,95.46c0.74-0.15,1.11-0.75,1.11-1.81c0-2.02-0.76-3.76-2.28-5.23c-1.52-1.47-3.37-2.2-5.56-2.2
		c-2.59,0-4.67,0.8-6.24,2.39c-1.52,1.54-2.28,3.51-2.28,5.92c0,2.47,0.85,4.44,2.56,5.92c1.66,1.45,3.84,2.18,6.55,2.18
		c2.92,0,5.07-0.69,6.46-2.06c0.17-0.17,0.26-0.29,0.26-0.36c0-0.26-0.28-0.87-0.84-1.84c-0.56-0.96-0.96-1.5-1.2-1.6
		c-0.43,0.25-0.86,0.5-1.3,0.75c-1.02,0.5-2.04,0.75-3.05,0.75c-0.84,0-1.59-0.15-2.25-0.44c-0.81-0.36-1.29-0.87-1.45-1.55
		c2.66-0.19,4.66-0.35,6-0.49C287.86,95.6,289.04,95.48,289.17,95.46z M283.75,92.95c-1.77,0.24-3.08,0.36-3.92,0.36
		c-0.32,0-0.48-0.14-0.48-0.42c0-0.69,0.22-1.29,0.65-1.81c0.47-0.55,1.06-0.83,1.77-0.83c0.69,0,1.29,0.25,1.79,0.74
		c0.5,0.49,0.75,1.06,0.75,1.71C284.31,92.81,284.12,92.9,283.75,92.95z"/>
	<path class="st2" d="M318.35,87.74c-0.49-0.15-1.3-0.32-2.42-0.53c-1.18-0.22-1.98-0.33-2.4-0.33c-0.18,0-0.34,0.25-0.47,0.76
		c-0.13,0.51-0.25,0.76-0.35,0.76c-0.03,0-0.07-0.03-0.12-0.08c-1.03-1.15-2.44-1.73-4.23-1.73c-2.57,0-4.59,0.76-6.07,2.29
		c-1.42,1.48-2.13,3.42-2.13,5.84c0,2.09,0.69,3.89,2.06,5.4c1.45,1.61,3.29,2.42,5.51,2.42c1.45,0,2.82-0.59,4.09-1.77
		c0.15-0.14,0.27-0.22,0.36-0.27c0.1,0.01,0.19,0.32,0.26,0.92c0.07,0.6,0.22,0.9,0.43,0.9c1.82,0,3.43-0.05,4.84-0.14
		c0.4-0.03,0.6-0.26,0.6-0.67c0-0.8-0.05-1.99-0.15-3.58c-0.1-1.59-0.15-2.79-0.15-3.6c0-2.11,0.18-4.12,0.55-6.01
		c0.03-0.18,0.05-0.29,0.05-0.33C318.6,87.88,318.52,87.8,318.35,87.74z M311.6,96.65c-0.61,0.58-1.4,0.87-2.37,0.87
		c-0.91,0-1.68-0.3-2.32-0.91c-0.64-0.61-0.95-1.33-0.95-2.18c0-0.9,0.3-1.64,0.9-2.21c0.6-0.58,1.39-0.86,2.37-0.86
		c0.98,0,1.77,0.29,2.38,0.87c0.61,0.58,0.91,1.32,0.91,2.21C312.52,95.33,312.21,96.07,311.6,96.65z"/>
	<path class="st2" d="M352.73,80.15c-0.68,0-1.71,0.03-3.09,0.08c-1.38,0.05-2.4,0.08-3.08,0.08c-0.24,0-0.36,0.19-0.36,0.58
		c0,1.11,0.07,2.77,0.2,4.98c0.13,2.21,0.2,3.86,0.2,4.96c0,0.82-0.07,1.22-0.22,1.22c-0.2,0-0.45-0.16-0.73-0.49
		c-1.15-1.39-2.01-2.45-2.57-3.17l-6.36-8.02c-0.28-0.36-0.49-0.53-0.63-0.53c-0.33,0-0.78,0.05-1.35,0.14
		c-0.67,0.12-1.12,0.18-1.35,0.2c-0.97,0.08-1.78,0.13-2.44,0.13c-0.44,0-0.66,0.12-0.66,0.35c0,1.19,0.05,2.99,0.16,5.38
		c0.11,2.4,0.16,4.2,0.16,5.4c0,1.14-0.06,2.85-0.18,5.13s-0.18,3.99-0.18,5.12c0,0.32,0.16,0.49,0.49,0.49h5.9
		c0.31,0,0.46-0.18,0.46-0.55c0-1.21-0.04-3.03-0.11-5.46c-0.07-2.43-0.11-4.25-0.11-5.46c0-0.16,0.05-0.27,0.14-0.35
		c0.12,0.06,0.21,0.13,0.26,0.19c1.6,1.89,2.8,3.33,3.58,4.3c2.86,3.49,4.7,5.74,5.52,6.75c0.28,0.35,0.53,0.52,0.73,0.52
		c0.3,0,0.74,0.02,1.33,0.06c0.59,0.04,1.03,0.06,1.33,0.06c0.27,0,0.68-0.01,1.24-0.03s0.96-0.03,1.24-0.03
		c0.33,0,0.49-0.14,0.49-0.42V91.41c0-1.2,0.05-3,0.16-5.39c0.11-2.39,0.16-4.18,0.16-5.38C353.05,80.32,352.94,80.15,352.73,80.15z
		"/>
	<path class="st2" d="M362.41,87.27c-0.33,0-0.82,0.03-1.48,0.08c-0.66,0.05-1.15,0.08-1.48,0.08c-0.33,0-0.82-0.03-1.47-0.09
		c-0.65-0.06-1.14-0.09-1.46-0.09c-0.31,0-0.46,0.1-0.46,0.31c0,0.05,0.01,0.16,0.03,0.33c0.25,1.76,0.37,4.12,0.37,7.1
		c0,0.73-0.02,1.82-0.05,3.27c-0.03,1.45-0.05,2.54-0.05,3.26c0,0.27,0.01,0.43,0.03,0.47c0.06,0.09,0.21,0.16,0.46,0.2
		c0.39,0.06,1.26,0.09,2.62,0.09c1.35,0,2.22-0.03,2.61-0.09c0.28-0.04,0.43-0.17,0.43-0.39c0-0.75-0.02-1.89-0.05-3.4
		c-0.03-1.51-0.05-2.65-0.05-3.41c0-2.69,0.12-5.05,0.37-7.1c0.02-0.16,0.03-0.26,0.03-0.3C362.82,87.37,362.68,87.27,362.41,87.27z
		"/>
	<path class="st2" d="M361.81,81.32c-0.65-0.49-1.41-0.74-2.3-0.74c-0.91,0-1.69,0.24-2.34,0.72c-0.7,0.52-1.06,1.19-1.06,2.01
		c0,0.86,0.34,1.54,1.02,2.04c0.62,0.46,1.41,0.69,2.37,0.69c2.23,0,3.34-0.91,3.34-2.73C362.85,82.5,362.51,81.84,361.81,81.32z"/>
	<path class="st2" d="M374.31,91.35c0.42,0,0.97,0.08,1.64,0.25c0.68,0.17,1.02,0.25,1.03,0.25c0.1,0,0.2-0.11,0.3-0.33
		c0.1-0.22,0.3-0.86,0.62-1.92c0.34-1.1,0.51-1.72,0.51-1.85c0-0.14-0.15-0.28-0.44-0.42c-1.28-0.67-2.77-1-4.47-1
		c-2.49,0-4.55,0.78-6.18,2.35c-1.63,1.56-2.45,3.49-2.45,5.78c0,2.31,0.81,4.24,2.44,5.79c1.63,1.55,3.69,2.32,6.19,2.32
		c0.67,0,1.55-0.11,2.64-0.33c1.41-0.28,2.11-0.62,2.11-1.02c0-0.4-0.13-1.2-0.39-2.42c-0.31-1.33-0.56-1.99-0.75-1.99
		c0.03,0-0.26,0.12-0.89,0.35c-0.62,0.24-1.19,0.35-1.69,0.35c-1.06,0-1.91-0.27-2.57-0.82c-0.66-0.55-0.99-1.31-0.99-2.27
		c0-0.93,0.3-1.68,0.9-2.24C372.49,91.63,373.3,91.35,374.31,91.35z"/>
	<path class="st2" d="M394.73,95.46c0.74-0.15,1.11-0.75,1.11-1.81c0-2.02-0.76-3.76-2.28-5.23c-1.52-1.47-3.38-2.2-5.56-2.2
		c-2.59,0-4.67,0.8-6.24,2.39c-1.52,1.54-2.28,3.51-2.28,5.92c0,2.47,0.85,4.44,2.56,5.92c1.66,1.45,3.84,2.18,6.55,2.18
		c2.92,0,5.07-0.69,6.46-2.06c0.17-0.17,0.26-0.29,0.26-0.36c0-0.26-0.28-0.87-0.84-1.84c-0.56-0.96-0.96-1.5-1.2-1.6
		c-0.43,0.25-0.86,0.5-1.3,0.75c-1.02,0.5-2.04,0.75-3.05,0.75c-0.84,0-1.59-0.15-2.25-0.44c-0.81-0.36-1.29-0.87-1.45-1.55
		c2.66-0.19,4.66-0.35,6-0.49C393.43,95.6,394.6,95.48,394.73,95.46z M389.31,92.95c-1.77,0.24-3.08,0.36-3.92,0.36
		c-0.32,0-0.48-0.14-0.48-0.42c0-0.69,0.22-1.29,0.65-1.81c0.47-0.55,1.06-0.83,1.77-0.83c0.69,0,1.29,0.25,1.79,0.74
		c0.5,0.49,0.75,1.06,0.75,1.71C389.87,92.81,389.68,92.9,389.31,92.95z"/>
	<path class="st2" d="M422.51,75.59c-10.54,0-15.81,7.2-15.81,14.4c0,7.2,5.27,14.4,15.81,14.4c10.58,0,15.85-7.2,15.85-14.4
		C438.36,82.79,433.09,75.59,422.51,75.59z"/>
</g>
<g>
	<rect x="138.59" y="48.07" class="st4" width="27.56" height="6.26"/>
	<polygon class="st4" points="78.78,74 138.59,99.84 138.59,48.15 	"/>
</g>
<g>
	
		<rect x="437.16" y="132.42" transform="matrix(-1 -4.488821e-11 4.488821e-11 -1 901.87 271.0898)" class="st4" width="27.56" height="6.26"/>
	<polygon class="st4" points="524.53,112.74 464.71,86.9 464.71,138.59 	"/>
</g>
<path class="st5" d="M42.47,731.32c-0.24,0-0.57-0.31-1-0.92c-3.77-5.38-5.65-12-5.65-19.88c0-4.9,0.75-10.19,2.25-15.88
	c1.41-5.25,3.15-9.71,5.22-13.38c0.48-0.88,0.86-1.31,1.15-1.31c0.24,0,0.49,0.29,0.75,0.85c0.14,0.35,0.88,1.57,2.22,3.67
	c1.19,1.88,1.79,2.93,1.79,3.15c0-0.44-0.61,1.06-1.83,4.49c-1.22,3.43-1.83,7.01-1.83,10.73c0,2.97,0.89,6.13,2.67,9.48
	c1.78,3.35,2.67,5.06,2.67,5.15c0,0.74-0.6,1.99-1.79,3.74c-0.79,1.09-1.57,2.19-2.36,3.28c-0.72,1.22-1.44,2.47-2.18,3.74
	C43.33,730.29,42.63,731.32,42.47,731.32z"/>
<path class="st6" d="M104.27,775.66c0,0.92-0.11,1.49-0.32,1.71c-0.1,0.13-0.43,0.24-1,0.33c-1.46,0.26-3.51,0.39-6.16,0.39
	c-3.75,0-5.95-0.13-6.6-0.39s-0.98-0.85-0.98-1.77c0-3.45,0.09-8.65,0.27-15.58c0.18-6.93,0.27-12.12,0.27-15.58
	c0-1.71-0.26-2.69-0.79-2.95c-0.81-0.35-3.7-0.52-8.66-0.52c-4.99,0-7.9,0.18-8.73,0.52c-0.52,0.22-0.79,1.2-0.79,2.95
	c0,3.41,0.06,8.52,0.18,15.32c0.12,6.8,0.18,11.91,0.18,15.32c0,1.31-0.32,2.08-0.97,2.3c-0.76,0.26-3.01,0.39-6.73,0.39
	c-3.22,0-5.27-0.13-6.16-0.39c-0.69-0.22-1.04-0.9-1.04-2.03c0-4.72,0.13-11.85,0.38-21.38c0.25-9.53,0.38-16.68,0.38-21.45
	c0-5.07-0.12-12.69-0.36-22.86c-0.24-10.17-0.36-17.79-0.36-22.86c0-0.96,0.25-1.44,0.75-1.44c0.74,0,1.85,0.07,3.35,0.2
	c1.49,0.13,2.61,0.2,3.35,0.2c0.76,0,1.91-0.07,3.45-0.2c1.54-0.13,2.69-0.2,3.45-0.2c0.41,0,0.61,0.39,0.61,1.18
	c0,3.28-0.13,8.19-0.39,14.73c-0.26,6.54-0.39,11.45-0.39,14.73c0,1.53,0.23,2.43,0.68,2.69c0.62,0.35,3.67,0.52,9.16,0.52
	c5.1,0,8.06-0.17,8.88-0.52c0.57-0.26,0.86-1.16,0.86-2.69c0-3.15-0.08-7.9-0.25-14.27c-0.17-6.36-0.25-11.14-0.25-14.33
	c0-1.35,0.3-2.03,0.89-2.03c0.69,0,1.75,0.07,3.17,0.2c1.42,0.13,2.49,0.2,3.2,0.2c0.69,0,1.75-0.07,3.17-0.2
	c1.42-0.13,2.49-0.2,3.2-0.2c0.69,0,1.04,0.52,1.04,1.57c0,5.03-0.11,12.62-0.34,22.76c-0.23,10.15-0.34,17.76-0.34,22.83
	c0,4.77,0.13,11.92,0.38,21.45C104.15,763.81,104.27,770.94,104.27,775.66z"/>
<path class="st5" d="M125.38,729.22c0,5.16,0.07,12.92,0.21,23.29s0.21,18.13,0.21,23.29c0,0.88-0.11,1.42-0.32,1.64
	c-0.05,0.04-0.36,0.13-0.93,0.26c-1.55,0.35-3.63,0.52-6.23,0.52c-3.48,0-5.7-0.17-6.66-0.52c-0.69-0.26-1.04-0.94-1.04-2.03
	c0,0.7,0.11-3.15,0.32-11.54c0.43-17.71,0.64-29.34,0.64-34.9c0-4.68-0.08-11.7-0.25-21.06c-0.17-9.36-0.25-16.38-0.25-21.06
	c0-0.96,0.27-1.44,0.82-1.44c0.74,0,1.85,0.07,3.35,0.2c1.49,0.13,2.61,0.2,3.35,0.2c0.74,0,1.83-0.07,3.27-0.2
	c1.44-0.13,2.53-0.2,3.27-0.2c0.69,0,1.04,0.48,1.04,1.44c0,4.68-0.14,11.7-0.41,21.06C125.52,717.52,125.38,724.54,125.38,729.22z"
	/>
<path class="st6" d="M179.78,775.6c0.05,1.18-0.29,1.77-1,1.77c-0.45,0-1.76-0.48-3.92-1.44c-2.16-0.96-3.49-1.62-3.99-1.97
	c-4.99,3.59-9.77,5.38-14.35,5.38c-7.37,0-13.42-4.5-18.14-13.51c-4.68-8.88-7.01-20.09-7.01-33.65c0-13.86,2.27-25.36,6.8-34.5
	c4.68-9.45,10.75-14.17,18.22-14.17c3.63,0,7.04,1.27,10.23,3.8c3.46,2.8,6.18,6.74,8.16,11.81c0.41,1.05,0.61,1.79,0.61,2.23
	c0,1.4-1.07,4.54-3.2,9.41c-2.14,4.88-3.51,7.31-4.13,7.31c-0.14,0-0.69-0.9-1.65-2.69c-1.17-2.14-2.36-3.8-3.58-4.99
	c-1.81-1.79-3.82-2.69-6.01-2.69c-3.58,0-6.42,2.45-8.52,7.35c-1.96,4.5-2.93,10.12-2.93,16.86c0,7.13,1.01,12.77,3.04,16.92
	c2.1,4.29,5.07,6.43,8.91,6.43c2.43,0,5.15-1.12,8.16-3.35c-0.07-1.44-0.29-5.12-0.64-11.02c-0.31-4.55-0.46-8.22-0.46-11.02
	c0-0.83,0.15-1.33,0.46-1.51c0.12-0.09,0.31-0.13,0.57-0.13c0.69,0,1.74,0.12,3.13,0.36c1.4,0.24,2.45,0.36,3.17,0.36
	c0.76,0,1.91-0.1,3.44-0.29c1.53-0.2,2.67-0.3,3.44-0.3c0.6,0,0.89,0.72,0.89,2.17c0,2.1-0.07,5.27-0.2,9.51
	c-0.13,4.24-0.2,7.41-0.2,9.51c0,5.64,0.23,14.08,0.68,25.32L179.78,775.6z"/>
<path class="st5" d="M232.81,775.66c0,0.92-0.11,1.49-0.32,1.71c-0.1,0.13-0.43,0.24-1,0.33c-1.46,0.26-3.51,0.39-6.16,0.39
	c-3.75,0-5.95-0.13-6.6-0.39s-0.98-0.85-0.98-1.77c0-3.45,0.09-8.65,0.27-15.58c0.18-6.93,0.27-12.12,0.27-15.58
	c0-1.71-0.26-2.69-0.79-2.95c-0.81-0.35-3.7-0.52-8.66-0.52c-4.99,0-7.9,0.18-8.73,0.52c-0.52,0.22-0.79,1.2-0.79,2.95
	c0,3.41,0.06,8.52,0.18,15.32c0.12,6.8,0.18,11.91,0.18,15.32c0,1.31-0.32,2.08-0.97,2.3c-0.76,0.26-3.01,0.39-6.73,0.39
	c-3.22,0-5.27-0.13-6.16-0.39c-0.69-0.22-1.04-0.9-1.04-2.03c0-4.72,0.13-11.85,0.38-21.38c0.25-9.53,0.38-16.68,0.38-21.45
	c0-5.07-0.12-12.69-0.36-22.86c-0.24-10.17-0.36-17.79-0.36-22.86c0-0.96,0.25-1.44,0.75-1.44c0.74,0,1.85,0.07,3.35,0.2
	c1.49,0.13,2.61,0.2,3.35,0.2c0.76,0,1.91-0.07,3.45-0.2c1.54-0.13,2.69-0.2,3.45-0.2c0.41,0,0.61,0.39,0.61,1.18
	c0,3.28-0.13,8.19-0.39,14.73c-0.26,6.54-0.39,11.45-0.39,14.73c0,1.53,0.23,2.43,0.68,2.69c0.62,0.35,3.67,0.52,9.16,0.52
	c5.1,0,8.06-0.17,8.88-0.52c0.57-0.26,0.86-1.16,0.86-2.69c0-3.15-0.08-7.9-0.25-14.27c-0.17-6.36-0.25-11.14-0.25-14.33
	c0-1.35,0.3-2.03,0.89-2.03c0.69,0,1.75,0.07,3.17,0.2c1.42,0.13,2.49,0.2,3.2,0.2c0.69,0,1.75-0.07,3.17-0.2
	c1.42-0.13,2.49-0.2,3.2-0.2c0.69,0,1.04,0.52,1.04,1.57c0,5.03-0.11,12.62-0.34,22.76c-0.23,10.15-0.34,17.76-0.34,22.83
	c0,4.77,0.13,11.92,0.38,21.45C232.69,763.81,232.81,770.94,232.81,775.66z"/>
<path class="st6" d="M292.58,705.74c0,0.88-0.26,1.31-0.79,1.31c-0.91,0-4.5-0.33-10.77-0.98c-0.14,11.06-0.21,18.78-0.21,23.16
	c0,5.16,0.11,12.92,0.34,23.29c0.23,10.36,0.34,18.13,0.34,23.29c0,0.83-0.11,1.36-0.32,1.57c-0.07,0.09-0.41,0.2-1,0.33
	c-1.43,0.35-3.53,0.52-6.3,0.52c-3.08,0-5.24-0.17-6.48-0.52c-0.67-0.22-1-0.9-1-2.03c0-5.16,0.12-12.9,0.36-23.22
	c0.24-10.32,0.36-18.06,0.36-23.22c0-3.41-0.1-11.02-0.29-22.83c-4.77,0.88-8.58,1.31-11.42,1.31c-0.38,0-0.57-0.22-0.57-0.66
	c0-0.57,0.17-2.25,0.5-5.05c0.38-3.06,0.6-4.92,0.64-5.58c0.07-2.05,0.15-4.11,0.25-6.17c0.17-3.28,0.45-4.92,0.86-4.92
	c0.05,0,0.21,0.02,0.5,0.07c3.86,0.92,9.58,1.38,17.14,1.38c2.15,0,6.11-0.42,11.88-1.25c3.1-0.44,4.66-0.66,4.69-0.66
	c0.48,0,0.75,0.06,0.82,0.16c0.07,0.11,0.12,0.54,0.14,1.28c0,1.18-0.02,2.82-0.07,4.92c-0.05,2.32-0.07,3.96-0.07,4.92
	c0,1.09,0.08,2.7,0.23,4.82C292.5,703.1,292.58,704.69,292.58,705.74z"/>
<path class="st5" d="M333.05,757.29c0,1.88-0.2,5.34-0.61,10.36c-0.43,5.47-0.81,8.72-1.15,9.77c-0.29,0.83-0.68,1.25-1.18,1.25
	c-0.21,0-0.57-0.07-1.07-0.2c-1.74-0.44-6.82-0.66-15.25-0.66c-1.84,0-4.57-0.02-8.2-0.07c-3.63-0.04-6.35-0.07-8.16-0.07
	c-0.79,0-1.18-0.63-1.18-1.9c0-4.9,0.15-12.25,0.45-22.07c0.3-9.82,0.45-17.17,0.45-22.07c0-4.99-0.14-14.28-0.43-27.88
	c-0.07-3.5-0.2-8.72-0.39-15.68l-0.04-0.92c-0.05-1.01,0.25-1.51,0.9-1.51c1.76,0,4.42,0.09,7.96,0.26s6.2,0.26,7.96,0.26
	c1.74,0,4.37-0.09,7.87-0.26c3.51-0.17,6.13-0.26,7.87-0.26c1.24,0,1.96,0.85,2.15,2.56c0.12,1.01,0.3,4.06,0.55,9.15
	c0.25,5.09,0.38,8.19,0.38,9.28c0,0.92-0.24,1.38-0.72,1.38c-0.14,0-0.39-0.02-0.75-0.07c-6.35-0.96-12.05-1.44-17.11-1.44
	c-1.26,0-2.04,0.55-2.33,1.64c-0.12,0.52-0.18,2.21-0.18,5.05c0,2.97,0.24,4.94,0.72,5.9c0.41,0.83,1.18,1.25,2.33,1.25
	c0.24,0,0.7-0.03,1.4-0.1c0.69-0.07,1.26-0.1,1.72-0.1c3.01,0,6.05-0.15,9.13-0.46c0.26-0.04,0.92-0.15,1.97-0.33
	c0.81-0.17,1.46-0.26,1.93-0.26c0.57,0,0.86,0.5,0.86,1.51c0-0.92-0.21,2.43-0.64,10.04c-0.19,3.5-0.29,7-0.29,10.5
	c0,0.88-0.35,1.31-1.04,1.31l-3.22-0.66c-1.36-0.26-4.46-0.39-9.3-0.39h-3.79c-0.98,0-1.55,0.44-1.72,1.31
	c-0.02,0.22-0.04,1.57-0.04,4.07c0,3.32,0.12,5.47,0.36,6.43c0.41,1.66,1.93,2.65,4.58,2.95c-0.05,0,1.69,0,5.22,0
	c1.26,0,3.14-0.21,5.64-0.62c2.49-0.42,4.36-0.62,5.6-0.62C332.79,754.93,333.05,755.72,333.05,757.29z"/>
<path class="st6" d="M385.69,687.7c0,4.99-0.11,12.47-0.34,22.47c-0.23,9.99-0.34,17.5-0.34,22.53v43.23c0,1.18-0.35,1.77-1.04,1.77
	c-0.57,0-1.44,0.04-2.59,0.13c-1.16,0.09-2.02,0.13-2.59,0.13c-0.62,0-1.55-0.09-2.79-0.26c-1.24-0.17-2.17-0.26-2.79-0.26
	c-0.43,0-0.94-0.72-1.54-2.16c-1.72-4.24-5.58-13.64-11.59-28.21c-1.65-4.07-4.15-10.06-7.52-17.97c-0.1-0.26-0.27-0.52-0.54-0.79
	c-0.19,0.31-0.29,0.79-0.29,1.44c0,5.07,0.08,12.68,0.23,22.83c0.16,10.15,0.23,17.76,0.23,22.83c0,1.53-0.32,2.3-0.97,2.3h-12.38
	c-0.69,0-1.04-0.68-1.04-2.03c0-4.72,0.13-11.85,0.38-21.38c0.25-9.53,0.38-16.68,0.38-21.45c0-5.03-0.11-12.55-0.34-22.57
	c-0.23-10.01-0.34-17.51-0.34-22.5c0-0.96,0.46-1.44,1.4-1.44c1.38,0,3.09-0.17,5.12-0.53c0.48-0.09,1.42-0.37,2.83-0.85
	c1.19-0.39,2.13-0.59,2.83-0.59c0.29,0,0.73,0.74,1.32,2.23l13.35,33.52c1.19,3.02,2.99,7.43,5.4,13.25
	c0.6,1.36,1.11,2.03,1.54,2.03c0.31,0,0.46-1.71,0.46-5.12c0-4.59-0.14-11.5-0.41-20.73c-0.28-9.23-0.41-16.16-0.41-20.79
	c0-1.62,0.25-2.43,0.75-2.43c1.43,0,3.59-0.11,6.48-0.33s5.05-0.33,6.48-0.33C385.47,685.66,385.69,686.34,385.69,687.7z"/>
<path class="st5" d="M416.76,747.52c0,8.88-2.04,16.49-6.12,22.83c-3.58,5.6-7.93,9.16-13.06,10.69c-0.19,0.04-0.35,0.07-0.47,0.07
	c-0.55,0-1.77-3.07-3.65-9.22s-2.83-9.89-2.83-11.25c0-0.48,0.18-0.79,0.54-0.92c3.46-1.44,5.75-2.67,6.87-3.67
	c2.48-2.27,3.72-5.64,3.72-10.1c0-2.84-0.81-6.01-2.43-9.51c-2.82-5.95-4.34-9.25-4.58-9.9c-1.65-4.55-2.47-9.58-2.47-15.09
	c0-8,2.02-14.65,6.05-19.94c3.29-4.37,7.34-7.22,12.13-8.53c0.26-0.04,0.46-0.07,0.61-0.07c0.36,0,0.64,0.52,0.86,1.57
	c0.62,3.19,2.06,8.96,4.33,17.32c0.07,0.26,0.11,0.48,0.11,0.66c0,0.74-0.21,1.12-0.64,1.12c-0.19,0-0.51-0.07-0.97-0.2
	c-0.45-0.13-0.8-0.2-1.04-0.2c-1.72,0-3.22,0.72-4.51,2.16c-1.55,1.66-2.33,3.98-2.33,6.95c0,2.67,0.86,5.95,2.58,9.84
	c3.03,7,4.62,10.67,4.76,11.02C415.91,737.97,416.76,742.75,416.76,747.52z"/>
<path class="st6" d="M437.23,729.22c0,5.16,0.07,12.92,0.21,23.29c0.14,10.36,0.21,18.13,0.21,23.29c0,0.88-0.11,1.42-0.32,1.64
	c-0.05,0.04-0.36,0.13-0.93,0.26c-1.55,0.35-3.63,0.52-6.23,0.52c-3.48,0-5.7-0.17-6.66-0.52c-0.69-0.26-1.04-0.94-1.04-2.03
	c0,0.7,0.11-3.15,0.32-11.54c0.43-17.71,0.64-29.34,0.64-34.9c0-4.68-0.08-11.7-0.25-21.06s-0.25-16.38-0.25-21.06
	c0-0.96,0.27-1.44,0.82-1.44c0.74,0,1.85,0.07,3.35,0.2c1.49,0.13,2.61,0.2,3.35,0.2s1.83-0.07,3.27-0.2
	c1.44-0.13,2.54-0.2,3.27-0.2c0.69,0,1.04,0.48,1.04,1.44c0,4.68-0.14,11.7-0.41,21.06C437.36,717.52,437.23,724.54,437.23,729.22z"
	/>
<path class="st5" d="M494.23,731.78c0,13.64-2.37,25.08-7.12,34.31c-4.84,9.36-10.97,14.04-18.39,14.04
	c-7.37,0-13.49-4.72-18.36-14.17c-4.77-9.23-7.16-20.62-7.16-34.18c0-13.6,2.39-25.04,7.16-34.31c4.87-9.49,10.99-14.23,18.36-14.23
	c7.32,0,13.43,4.75,18.32,14.23C491.83,706.83,494.23,718.26,494.23,731.78z M480.67,731.65c0-6.56-1.09-12.14-3.26-16.73
	c-2.27-4.81-5.17-7.22-8.7-7.22c-3.36,0-6.21,2.49-8.55,7.48c-2.27,4.81-3.4,10.34-3.4,16.6c0,6.69,1.06,12.27,3.18,16.73
	c2.24,4.68,5.17,7.02,8.77,7.02c3.36,0,6.23-2.47,8.59-7.41C479.55,743.39,480.67,737.9,480.67,731.65z"/>
<path class="st6" d="M547.45,687.7c0,4.99-0.11,12.47-0.34,22.47c-0.23,9.99-0.34,17.5-0.34,22.53v43.23c0,1.18-0.35,1.77-1.04,1.77
	c-0.57,0-1.44,0.04-2.59,0.13c-1.16,0.09-2.02,0.13-2.59,0.13c-0.62,0-1.55-0.09-2.79-0.26c-1.24-0.17-2.17-0.26-2.79-0.26
	c-0.43,0-0.94-0.72-1.54-2.16c-1.72-4.24-5.58-13.64-11.59-28.21c-1.65-4.07-4.15-10.06-7.52-17.97c-0.1-0.26-0.27-0.52-0.54-0.79
	c-0.19,0.31-0.29,0.79-0.29,1.44c0,5.07,0.08,12.68,0.23,22.83c0.16,10.15,0.23,17.76,0.23,22.83c0,1.53-0.32,2.3-0.97,2.3H500.6
	c-0.69,0-1.04-0.68-1.04-2.03c0-4.72,0.13-11.85,0.38-21.38c0.25-9.53,0.38-16.68,0.38-21.45c0-5.03-0.11-12.55-0.34-22.57
	c-0.23-10.01-0.34-17.51-0.34-22.5c0-0.96,0.46-1.44,1.4-1.44c1.38,0,3.09-0.17,5.12-0.53c0.48-0.09,1.42-0.37,2.83-0.85
	c1.19-0.39,2.13-0.59,2.83-0.59c0.29,0,0.73,0.74,1.32,2.23l13.35,33.52c1.19,3.02,2.99,7.43,5.4,13.25
	c0.6,1.36,1.11,2.03,1.54,2.03c0.31,0,0.46-1.71,0.46-5.12c0-4.59-0.14-11.5-0.41-20.73c-0.28-9.23-0.41-16.16-0.41-20.79
	c0-1.62,0.25-2.43,0.75-2.43c1.43,0,3.59-0.11,6.48-0.33s5.05-0.33,6.48-0.33C547.22,685.66,547.45,686.34,547.45,687.7z"/>
<path class="st5" d="M567.95,701.8c0,4.94-0.75,10.23-2.25,15.87c-1.38,5.21-3.13,9.67-5.22,13.38c-0.48,0.88-0.86,1.31-1.14,1.31
	c-0.24,0-0.49-0.31-0.75-0.92c-0.14-0.3-0.88-1.51-2.22-3.61c-1.19-1.88-1.79-2.93-1.79-3.15c0,0.44,0.61-1.06,1.83-4.49
	c1.22-3.43,1.83-7.01,1.83-10.73c0-2.84-0.89-5.96-2.67-9.35c-1.78-3.39-2.67-5.17-2.67-5.35c0-0.7,0.6-1.92,1.79-3.67
	c0.79-1.09,1.57-2.19,2.36-3.28c0.74-1.27,1.47-2.51,2.18-3.74c1.22-2.05,1.91-3.08,2.08-3.08c0.24,0,0.58,0.31,1.04,0.92
	C566.08,687.3,567.95,693.93,567.95,701.8z"/>
</svg>
