<?xml version="1.0" encoding="utf-8"?>
<!-- Generator: Adobe Illustrator 24.2.1, SVG Export Plug-In . SVG Version: 6.00 Build 0)  -->
<svg version="1.1" id="Layer_1" xmlns="http://www.w3.org/2000/svg" xmlns:xlink="http://www.w3.org/1999/xlink" x="0px" y="0px"
	 viewBox="0 0 595.28 841.89" style="enable-background:new 0 0 595.28 841.89;" xml:space="preserve">
<style type="text/css">
	.st0{fill:#262262;}
	.st1{fill:#662D91;stroke:#662D91;stroke-width:6;stroke-miterlimit:10;}
	.st2{fill:#F15A29;stroke:#F15A29;stroke-width:6;stroke-miterlimit:10;}
	.st3{fill:#59B994;}
	.st4{fill:#73439A;stroke:#662D91;stroke-miterlimit:10;}
	.st5{fill:#FFFFFF;stroke:#FFFFFF;stroke-miterlimit:10;}
	.st6{fill:#F7986E;}
	.st7{fill:#A72170;}
	.st8{fill:#E25EA3;}
	.st9{fill:#FFFFFF;stroke:#FFFFFF;stroke-width:7;stroke-miterlimit:10;}
	.st10{fill:#690045;}
	.st11{fill:none;stroke:#FFFFFF;stroke-width:6;stroke-miterlimit:10;}
	.st12{fill:#961E2E;}
	.st13{fill:#795599;}
	.st14{fill:#543378;}
	.st15{fill:#C3CE5D;}
</style>
<rect x="-1.72" y="-0.07" class="st0" width="595.82" height="842.16"/>
<g>
	<g>
		<path class="st1" d="M119.55,149.97c0.92-0.31,1.87-0.36,2.87-0.16c0.5,0.1,1.06,0.7,1.69,1.78c0.62,1.09,0.94,2.04,0.94,2.87
			c0,1.65-1,2.64-3,2.94c-1.42,0.31-2.37,0.62-2.87,0.93c-0.5,0.31-1.25,0.57-2.25,0.77c-0.83,0.1-1.5,0.31-2,0.62
			c-1.25,0.83-4.12,1.76-8.62,2.79c-0.92,0.31-1.94,0.78-3.06,1.39c-1.12,0.62-2.48,1.19-4.06,1.71c-1.67,0.41-2.79,0.93-3.37,1.55
			c-0.75,0.62-1.75,1.03-3,1.24c-1.25,0.31-1.98,0.62-2.19,0.93c-0.21,0.31-0.19,0.93,0.06,1.86c0.17,0.93,0.21,2.09,0.13,3.49
			c-0.08,1.4-0.13,2.71-0.13,3.95c0.17,9.41,0.42,14.68,0.75,15.81c0.25,0.72,1.37,0.57,3.37-0.46c1.16-0.52,1.89-0.78,2.19-0.78
			c0.29,0,0.87-0.31,1.75-0.93c0.87-0.62,1.48-0.93,1.81-0.93c0.33,0,0.81-0.18,1.44-0.54c0.63-0.36,1.48-0.8,2.56-1.32
			c1.17-0.31,1.91-0.62,2.25-0.93c0.25-0.31,0.96-0.62,2.12-0.93c1.58-0.62,3.5-1.45,5.75-2.48c0.75-0.31,2.21-0.93,4.37-1.86
			c2-0.83,3.29-1.45,3.87-1.86c1.16-0.62,2.29-0.31,3.37,0.93c0.67,0.72,1,1.78,1,3.18c0,1.39-0.29,2.25-0.87,2.56
			c-0.58,0.31-1.62,0.62-3.12,0.93c-1.5,0.31-2.83,0.77-4,1.39c-1.17,0.62-2.37,1.19-3.62,1.71c-3.42,1.24-5.75,2.22-7,2.95
			c-0.5,0.31-1,0.46-1.5,0.46c-0.33,0-0.75,0.31-1.25,0.93c-0.67,0.31-1.5,0.62-2.5,0.93c-1,0.31-1.62,0.62-1.87,0.93
			c-0.25,0.31-0.69,0.54-1.31,0.7c-0.62,0.16-1.19,0.49-1.69,1.01c-0.5,0.41-1.25,0.72-2.25,0.93c-0.75,0.1-1.62,0.57-2.62,1.4
			l-1.25,1.09l0.12,2.17c0.25,1.86,0.46,3.77,0.63,5.74c0.08,2.69,0.25,4.65,0.5,5.89l0.37,3.26c0.17,0.62,0.33,1.09,0.5,1.39
			c0.17,0.31,0.54,0.34,1.12,0.08c0.58-0.26,1.27-0.7,2.06-1.32c0.79-0.62,2.02-1.55,3.69-2.79c0.75-0.62,1.87-1.29,3.37-2.01
			c1.58-0.93,2.62-1.55,3.12-1.86c0.42-0.31,0.87-0.57,1.37-0.77c0.33-0.1,1.25-0.72,2.75-1.86c1.5-1.03,2.5-1.6,3-1.71
			c0.5-0.1,0.87-0.36,1.12-0.77c0.25-0.31,0.87-0.62,1.87-0.93c0.75-0.31,1.56-0.9,2.44-1.78c0.87-0.88,1.31-1.52,1.31-1.94
			c0-0.31,0.19-0.67,0.56-1.09c0.37-0.41,0.89-0.36,1.56,0.16c1.5,1.03,2.25,2.89,2.25,5.58c0,1.34-0.23,2.22-0.69,2.64
			c-0.46,0.41-0.94,0.62-1.44,0.62c-0.5,0-1.04,0.21-1.62,0.62c-0.67,0.31-1.29,0.62-1.87,0.93c-0.67,0.21-1.25,0.62-1.75,1.24
			c-0.58,0.41-1.04,0.62-1.37,0.62c-0.33,0-0.75,0.26-1.25,0.77c-0.58,0.62-1.12,1.09-1.62,1.4c-2,1.03-3.37,1.96-4.12,2.79
			c-0.5,0.41-1,0.62-1.5,0.62c-0.5,0-0.87,0.16-1.12,0.47c-0.42,0.52-0.92,0.93-1.5,1.24c-0.67,0.31-1.25,0.67-1.75,1.09
			c-0.33,0.52-0.75,0.83-1.25,0.93c-0.92,0.31-2.17,1.39-3.75,3.26c-0.5,0.62-1.37,1.24-2.62,1.86c-1.25,0.62-2.21,0.93-2.87,0.93
			c-0.33,0-1-0.18-2-0.54c-1-0.36-1.62-0.7-1.87-1.01c-0.17-0.21-0.37-0.67-0.62-1.39c0-0.62-0.17-1.24-0.5-1.86
			c-0.67-1.24-1-4.03-1-8.37c0-1.86-0.13-3.2-0.37-4.03c-0.25-0.93-0.42-1.91-0.5-2.95c-0.17-0.93-0.44-1.63-0.81-2.09
			c-0.37-0.47-1.19-1.16-2.44-2.09c-2.25-1.45-2.5-3.1-0.75-4.96c0.75-0.72,1.25-1.09,1.5-1.09c0.25,0,0.58-0.46,1-1.4
			c0.5-0.83,0.62-1.55,0.37-2.17c-0.5-2.17-0.83-8.58-1-19.22c0-2.69-0.02-4.26-0.06-4.73c-0.04-0.46-0.27-0.75-0.69-0.85
			c-0.33,0-1.08,0.31-2.25,0.93c-1.08,0.62-1.92,0.93-2.5,0.93c-0.58,0-1.25,0.16-2,0.46c-1.33,0.72-2.12,0.78-2.37,0.16
			c-0.25-0.31-0.5-0.41-0.75-0.31c-0.25,0.1-0.37,0.36-0.37,0.77c0,1.45-0.46,2.17-1.37,2.17c-0.75,0-1.67-1.09-2.75-3.26
			c-0.42-0.93-0.5-1.55-0.25-1.86c0.25-0.31,0.67-0.39,1.25-0.23c0.58,0.16,0.92-0.18,1-1.01c0.5-1.55,1.58-2.53,3.25-2.95
			c0.75-0.21,1.42-0.52,2-0.93c0.75-0.52,1.71-0.83,2.87-0.93c1.08-0.21,1.85-0.49,2.31-0.85c0.46-0.36,0.98-0.7,1.56-1.01
			c0.5-0.21,1.12-0.67,1.87-1.4c0.75-0.93,1.71-1.34,2.87-1.24c1.25,0.21,2.06,0.18,2.44-0.08c0.37-0.26,1.69-0.75,3.93-1.47
			c2.5-0.83,4.12-1.39,4.87-1.7c3.33-1.55,6.12-2.64,8.37-3.26c1.25-0.31,2.31-0.7,3.19-1.16c0.87-0.46,1.56-0.7,2.06-0.7
			c0.5,0,1.5-0.52,3-1.55C117.96,150.75,118.96,150.18,119.55,149.97z"/>
		<path class="st1" d="M166.02,168.11c1.33-1.14,2.62-0.62,3.87,1.55c0.75,1.24,1.06,2.25,0.94,3.02c-0.12,0.78-0.73,1.94-1.81,3.49
			c-1.42,1.55-2.12,2.64-2.12,3.26c-0.08,0.62-0.25,1.5-0.5,2.64c-0.17,0.31-0.37,0.85-0.62,1.63c-0.25,0.78-0.37,1.32-0.37,1.63
			c-0.25,0.93-0.62,1.76-1.12,2.48c-0.25,0.52-0.37,1.01-0.37,1.47s-0.25,1.01-0.75,1.63c-0.5,0.72-0.75,1.24-0.75,1.55
			c0,0.31-0.42,1.24-1.25,2.79c-0.92,1.55-1.54,2.74-1.87,3.57c-0.42,0.93-0.67,1.6-0.75,2.01c-0.17,0.21-0.33,0.54-0.5,1.01
			c-0.17,0.46-0.33,0.85-0.5,1.16c-0.25,0.62-0.87,1.91-1.87,3.88c-2,4.34-3.04,6.82-3.12,7.44c-1.42,3.72-2.37,5.84-2.87,6.36
			c-0.25,0.41-0.42,0.93-0.5,1.55c-0.5,1.86-1.37,3.26-2.62,4.19c-1.67,1.24-3.04,1.09-4.12-0.46c-0.75-0.93-1.12-1.6-1.12-2.02
			c0-0.31-0.13-0.88-0.37-1.71c-0.42-0.72-0.75-2.25-1-4.57c-0.25-2.33-0.5-3.8-0.75-4.42c-0.25-0.62-0.5-1.63-0.75-3.02
			c-0.25-1.4-0.5-2.38-0.75-2.95c-0.25-0.57-0.42-1.32-0.5-2.25c-0.17-1.03-0.5-2.17-1-3.41c-0.5-1.24-0.75-2.17-0.75-2.79
			s-0.25-1.5-0.75-2.64c-0.5-0.93-0.75-1.88-0.75-2.87c0-0.98-0.17-2.04-0.5-3.18c-0.42-1.03-0.96-3.15-1.62-6.36
			c-0.67-3.2-0.96-5.01-0.87-5.43c0.5-2.79,2.08-3.1,4.75-0.93c1,0.93,1.56,1.71,1.69,2.33c0.13,0.62,0.31,1.24,0.56,1.86
			c1.5,4.44,2.29,7.6,2.37,9.46c0.25,1.86,0.5,3.1,0.75,3.72c0.42,0.52,0.63,0.98,0.63,1.4c0,0.62,0.17,1.55,0.5,2.79
			c0.42,1.45,0.79,2.79,1.12,4.03c0.25,1.34,0.46,2.17,0.62,2.48c0.25,0.31,0.5,1.09,0.75,2.33c0.08,1.24,0.23,2.09,0.44,2.56
			c0.21,0.47,0.52,0.67,0.94,0.62c0.42-0.05,0.75-0.39,1-1.01c0.42-0.62,1.42-2.48,3-5.58c2-3.72,3.21-5.99,3.62-6.82
			c0.58-1.34,1.08-2.27,1.5-2.79c0.25-0.41,0.54-1.03,0.87-1.86c0.17-0.41,0.67-1.65,1.5-3.72c0.75-1.55,1.25-2.94,1.5-4.19
			c0.25-1.03,0.5-1.81,0.75-2.33c0.42-0.62,0.62-1.14,0.62-1.55c0-0.31,0.27-1.29,0.81-2.95c0.54-1.65,1.12-3.33,1.75-5.04
			c0.62-1.71,1.14-2.76,1.56-3.18C164.85,169.14,165.35,168.52,166.02,168.11z"/>
		<path class="st1" d="M197.25,167.49c1.75-1.03,3.83-0.88,6.25,0.46c2,1.24,3.39,2.25,4.18,3.02c0.79,0.78,1.52,2.04,2.19,3.8
			c0.58,1.55,0.81,3.18,0.69,4.88c-0.13,1.71-0.37,2.82-0.75,3.33c-0.37,0.52-0.61,1.09-0.69,1.71c-0.17,0.52-0.42,1.09-0.75,1.71
			c-0.42,0.62-0.62,1.09-0.62,1.39c0,0.62-0.71,1.63-2.12,3.02c-1.42,1.39-3.08,2.56-5,3.49c-0.58,0.41-1.12,0.72-1.62,0.93
			c-0.5,0.41-1.5,0.78-3,1.09c-1.42,0.31-2.42,0.72-3,1.24c-0.5,0.31-1.23,0.46-2.19,0.46c-0.96,0-1.77,0.18-2.44,0.54
			c-0.67,0.36-1.75,0.54-3.25,0.54c-1.5,0-2.5,0.31-3,0.93l-0.75,0.93l0.13,5.12c0,3.41,0.37,5.74,1.12,6.98
			c1.5,2.79,2.96,4.6,4.37,5.43c0.75,0.41,2.5,0.72,5.25,0.93c2.83,0,4.87-0.16,6.12-0.47c1.25-0.31,3.21-1.34,5.87-3.1
			c2.33-1.55,4.08-2.84,5.25-3.88c2.08-2.17,3.62-3.26,4.62-3.26c0.42,0,0.83,0.49,1.25,1.47c0.42,0.98,0.62,1.94,0.62,2.87
			c0,1.24-0.21,2.33-0.62,3.26c-0.42,0.93-1.19,1.91-2.31,2.95c-1.12,1.03-2.81,2.38-5.06,4.03c-1.92,1.45-3.58,2.2-5,2.25
			c-1.42,0.05-2.25,0.34-2.5,0.85c-1.25,1.24-5.62,1.45-13.12,0.62c-1.92-0.1-3.14-0.31-3.69-0.62c-0.54-0.31-1.44-1.34-2.69-3.1
			c-2.67-3.72-4.37-6.67-5.12-8.84c-0.5-1.55-0.77-4.73-0.81-9.53c-0.04-4.81-0.15-7.52-0.31-8.14c-0.5-1.55-0.29-2.95,0.62-4.19
			c0.83-1.03,1.62-3.1,2.37-6.2c0.67-2.48,1.5-4.29,2.5-5.43c0.25-0.31,0.5-0.77,0.75-1.39c1-1.86,2.79-3.93,5.37-6.2
			c2.41-2.17,4.04-3.26,4.87-3.26c0.42,0,0.92-0.26,1.5-0.77c0.75-0.41,1.5-0.72,2.25-0.93
			C195.75,168.32,196.5,168.01,197.25,167.49z M203.49,175.71c-0.5-0.52-1-0.83-1.5-0.93c-0.67-0.21-1.77-0.02-3.31,0.54
			c-1.54,0.57-2.64,1.06-3.31,1.47c-0.58,0.52-1.31,0.88-2.19,1.09c-0.87,0.21-2.27,1.5-4.18,3.88c-3.08,3.82-4.62,6.46-4.62,7.91
			c0,0.72,0.04,1.19,0.13,1.39c0.25,0,1.54-0.16,3.87-0.46c2.33-0.31,3.79-0.62,4.37-0.93c5.25-1.86,8.74-4.29,10.49-7.29
			c0.92-1.34,1.42-2.33,1.5-2.95C204.99,177.98,204.57,176.74,203.49,175.71z"/>
		<path class="st1" d="M221.61,167.33c0.25-0.31,0.75-0.46,1.5-0.46c1.5,0,2.66,1.6,3.5,4.81c0.5,2.07,0.83,5.97,1,11.7
			c0.17,5.74,0.33,8.68,0.5,8.84c0.17,0.16,1.42-1.32,3.75-4.42c5.41-7.03,9.91-11.01,13.49-11.94c1.16-0.1,2.16-0.46,3-1.09
			c1.16-0.52,1.91-0.78,2.25-0.78c0.33,0,0.92-0.31,1.75-0.93c2.5-1.55,4.75-1.24,6.75,0.93c0.67,0.83,1,1.86,1,3.1
			c0,1.24-0.46,2.33-1.37,3.26c-1,1.24-2.46,1.86-4.37,1.86c-2.33,0-4.91,0.93-7.75,2.79c-0.83,0.41-1.42,0.62-1.75,0.62
			c-0.5,0-2.21,1.84-5.12,5.5c-2.92,3.67-5.04,6.59-6.37,8.76c-1.5,2.27-2.5,4.81-3,7.6c-0.17,1.45-0.36,2.33-0.56,2.64
			c-0.21,0.31-0.44,1.4-0.69,3.26c-0.17,1.65-0.42,3.2-0.75,4.65c-0.33,1.24-0.58,2.48-0.75,3.72c-0.25,2.27-1,4.03-2.25,5.27
			c-0.33,0.31-1.04,0.46-2.12,0.46c-1.08,0-1.96-0.46-2.62-1.4l-0.87-1.39l0.13-4.65c0.17-3.2,0.42-5.53,0.75-6.98
			c0.5-1.34,0.75-8.22,0.75-20.62c0-12.4,0.21-18.86,0.62-19.38c0.5-0.72,0.46-1.4-0.13-2.02c-0.33-0.52-0.52-1.16-0.56-1.94
			C221.25,168.34,221.36,167.75,221.61,167.33z"/>
		<path class="st1" d="M307.3,160.98c1.25-1.34,2.58-1.34,4,0c1.33,1.45,1.96,3.77,1.87,6.98c-0.5,9.82-0.96,15.66-1.37,17.52
			c-0.25,1.24-0.5,3.57-0.75,6.98c-0.08,3.2-0.25,5.12-0.5,5.74c-0.17,0.83-0.42,2.53-0.75,5.12c-0.25,3-0.58,4.96-1,5.89
			c-0.25,1.03-0.5,2.33-0.75,3.88c-0.25,1.55-0.5,2.48-0.75,2.79c-0.25,0.31-0.42,1.24-0.5,2.79c0,1.55-0.21,2.64-0.62,3.26
			c-0.25,0.62-0.5,1.55-0.75,2.79c-0.33,1.14-0.71,2.01-1.12,2.64c-0.33,0.62-0.58,1.24-0.75,1.86c-0.08,0.72-0.21,1.19-0.37,1.39
			c-0.08,0.1-0.38,0.72-0.87,1.86c-0.25,0.93-1.46,2.69-3.62,5.27c-2.08,2.48-3.25,3.72-3.5,3.72c-0.17,0-0.87,0.39-2.12,1.16
			c-1.25,0.77-2.79,1.16-4.62,1.16c-1.92,0-3.92-0.36-6-1.09c-2.25-1.14-4.58-2.64-6.99-4.5c-1.25-1.03-3.02-3.1-5.31-6.2
			c-2.29-3.1-3.43-4.96-3.43-5.58c0-0.21-0.21-0.52-0.63-0.93c-0.33-0.52-0.58-1.14-0.75-1.86c-0.08-0.83-0.33-1.4-0.75-1.71
			c-0.83-0.93-1.08-2.33-0.75-4.19c0.25-0.62,0.69-1.24,1.31-1.86c0.62-0.62,1.27-0.93,1.94-0.93c0.33,0,0.73,0.21,1.19,0.62
			c0.46,0.41,0.83,0.88,1.12,1.39c0.29,0.52,0.56,1.09,0.81,1.71c0.17,0.93,0.33,1.47,0.5,1.63c0.17,0.16,0.37,0.7,0.62,1.63
			c0.5,1.76,2.08,4.34,4.75,7.75c2.58,3.2,5.33,5.43,8.24,6.67c2,0.83,3.41,1.14,4.25,0.93c1.67-0.41,3.29-1.65,4.87-3.72
			c0.92-0.93,2.06-2.48,3.44-4.65c1.37-2.17,2.06-3.46,2.06-3.88c0-0.21,0.17-0.93,0.5-2.17c1.5-3.82,2.25-6.61,2.25-8.37
			c0-0.41,0.25-1.5,0.75-3.26c0.5-1.86,0.87-4.03,1.12-6.51c0.25-2.27,0.5-4.03,0.75-5.27c0.25-0.83,0.38-2.01,0.38-3.57
			c0-1.55-0.13-2.38-0.38-2.48c-0.33,0.31-0.58,0.62-0.75,0.93c-0.25,0.93-0.75,1.86-1.5,2.79c-0.75,0.93-1.12,1.45-1.12,1.55
			c0,0.21-0.4,0.8-1.19,1.78c-0.79,0.98-1.4,1.63-1.81,1.94c-1,1.14-2.5,2.38-4.5,3.72c-1.75,1.14-3.37,1.09-4.87-0.16
			c-1.83-1.24-3-4.44-3.5-9.61c-0.25-1.96-0.35-6.64-0.31-14.03c0.04-7.39,0.19-11.55,0.44-12.48c0.42-0.72,0.67-1.5,0.75-2.33
			c0.42-1.55,1.41-2.48,3-2.79c0.92-0.1,1.69,0.26,2.31,1.09c0.63,0.83,0.94,1.86,0.94,3.1c0,1.24-0.13,2.27-0.37,3.1
			c-0.75,2.48-1.13,7.8-1.13,15.97c0,5.58,0.13,8.63,0.38,9.15c0.83,1.55,2.62,0.62,5.37-2.79c2.16-2.69,3.91-5.63,5.25-8.84
			c0.17-0.52,0.5-1.24,1-2.17c0.33-0.41,0.58-1.19,0.75-2.33c0.08-0.93,0.25-1.71,0.5-2.32c0.91-1.55,1.37-3.46,1.37-5.74
			c0-1.14,0.17-2.33,0.5-3.57c0.25-1.24,0.46-2.79,0.62-4.65C306.51,162.74,306.8,161.5,307.3,160.98z"/>
		<path class="st1" d="M338.16,149.51c1.91-1.14,3.75,0.41,5.5,4.65c0.5,1.55,0.75,4.24,0.75,8.06c0,3.93-0.12,6.2-0.37,6.82
			c-0.25,0.41-0.38,2.74-0.38,6.98c0,4.13,0.25,6.46,0.75,6.98c0.75,0.72,2.54,0.57,5.37-0.46c1-0.31,2.33-0.62,4-0.93
			c1.75-0.31,2.91-0.72,3.5-1.24c0.67-0.31,1.75-0.52,3.25-0.62c1.5-0.31,2.37-0.62,2.62-0.93c1-1.14,2.5-1.71,4.5-1.71
			c1.25,0,2.5,0.88,3.75,2.64c0.5,0.62,0.75,1.09,0.75,1.39c0,0.31-0.21,0.83-0.62,1.55c-1,1.86-2.37,2.79-4.12,2.79
			c-4.08,0-6.87,0.46-8.37,1.4c-0.67,0.52-1.25,0.77-1.75,0.77c-0.5,0-1.37,0.21-2.62,0.62c-1,0.52-2.12,0.83-3.37,0.93
			c-1,0.21-2.39,0.62-4.19,1.24c-1.79,0.62-2.89,1.09-3.31,1.4c-0.25,0.31-0.31,2.43-0.19,6.36c0.12,3.93,0.31,6.3,0.56,7.13
			c0.42,0.62,0.62,1.4,0.62,2.33c0,0.93,0.17,2.53,0.5,4.81c0.25,2.07,0.5,3.93,0.75,5.58c0.17,1.45,0.29,2.33,0.37,2.64
			c0.17,0.1,0.79,0.46,1.87,1.09c1.91,1.24,3.75,1.4,5.5,0.46c0.5-0.31,1.29-0.62,2.37-0.93c2.75-0.62,4.95-1.86,6.62-3.72
			c1-1.03,1.79-1.81,2.37-2.33c0.75-0.31,1.62-0.18,2.62,0.39c1,0.57,1.71,1.32,2.12,2.25c0.33,0.93,0.5,1.6,0.5,2.02
			c0,0.52-0.33,1.27-1,2.25c-0.67,0.98-1.12,1.47-1.37,1.47c-0.25,0-1.08,0.62-2.5,1.86c-2.25,1.86-4.41,3.05-6.5,3.57
			c-1,0.1-2.71,0.57-5.12,1.4c-2.08,0.62-3.83,0.77-5.25,0.46c-2.58-0.52-4.5-1.6-5.75-3.26c-2.17-2.79-3.25-4.81-3.25-6.05
			c0-0.62-0.12-1.4-0.37-2.33c-0.25-0.83-0.5-3.41-0.75-7.75s-0.5-7.18-0.75-8.53c-0.25-1.45-0.37-3.31-0.37-5.58
			c0-2.17-0.13-3.46-0.38-3.88c-0.25-0.41-0.92-0.47-2-0.16c-1,0.31-1.73,0.54-2.19,0.7c-0.46,0.16-2.31,0.31-5.56,0.46
			c-3.25,0.16-5.29,0.23-6.12,0.23c-0.92-0.31-1.87-1.09-2.87-2.32c-1.58-1.96-1.87-3.51-0.87-4.65c0.5-0.41,3.16-0.72,7.99-0.93
			c5.75-0.1,9.49-0.62,11.24-1.55c1.16-0.62,1.54-1.96,1.12-4.03c-0.33-2.17-0.33-8.27,0-18.29c0.17-4.03,0.04-6.61-0.37-7.75
			C336.32,152.45,336.57,150.54,338.16,149.51z"/>
		<path class="st1" d="M376.75,137.88c0.5-0.62,0.81-0.93,0.94-0.93c0.13,0,0.52,0.16,1.19,0.47c1,0.52,1.71,1.34,2.12,2.48
			c0.42,1.14,0.79,3.36,1.13,6.67c0,0.31,0.08,0.78,0.25,1.39c0.17,0.62,0.27,1.32,0.31,2.09c0.04,0.78,0.1,1.37,0.19,1.78
			c0.33,2.17,0.5,6.15,0.5,11.94c0,5.58,0.17,8.73,0.5,9.46c0.25,0.83,0.38,3.62,0.38,8.37c-0.08,3.31,0,5.22,0.25,5.74
			c0.25,0.52,0.79,0.41,1.62-0.31c1-0.83,1.91-1.76,2.75-2.79c1.16-1.14,2.29-2.12,3.37-2.94c1.08-0.83,2.62-1.37,4.62-1.63
			c2-0.26,3.29-0.31,3.87-0.15c0.58,0.15,1.54,0.93,2.87,2.32c1.33,1.4,2.25,2.56,2.75,3.49c1.75,3.93,2.66,6.72,2.75,8.37
			c0.33,1.45,0.54,2.53,0.62,3.26c0.25,0.93,0.25,1.96,0,3.1c-0.25,1.03-0.21,2.27,0.13,3.72c0.5,1.55,0.71,3.77,0.62,6.67
			c0,3.31-0.15,5.14-0.44,5.5c-0.29,0.36-0.52,1.94-0.69,4.73c-0.17,5.17-0.92,8.27-2.25,9.3c-1.75,1.45-3.25,0.98-4.5-1.39
			c-0.67-1.03-0.92-2.58-0.75-4.65c0.17-2.17,0.42-4.08,0.75-5.74c0.33-2.07,0.5-4.96,0.5-8.68c0-3.82-0.04-7.34-0.13-10.54
			c-0.08-3.2-0.46-5.63-1.12-7.29c-0.5-1.76-1.04-2.89-1.62-3.41c-0.58-0.52-1.42-0.75-2.5-0.7c-1.08,0.05-2.21,0.65-3.37,1.78
			c-4.33,4.44-7,8.53-7.99,12.25c-1.33,4.86-2,7.75-2,8.68s-0.08,2.17-0.25,3.72c-0.83,4.44-1.17,8.17-1,11.16
			c0.25,3.2-0.1,5.56-1.06,7.05c-0.96,1.5-2.23,1.78-3.81,0.85c-0.58-0.52-1.04-0.98-1.37-1.4c-0.67-2.17-0.92-5.37-0.75-9.61
			c0.42-9.61,0.75-15.24,1-16.9c0.25-0.83,0.44-2.87,0.56-6.12c0.13-3.26,0.23-6.67,0.31-10.23c0.08-3.57,0.04-6.9-0.13-10
			c-0.17-5.06-0.25-9.4-0.25-13.02c0.17-3.41,0.13-5.48-0.12-6.2c-0.25-0.83-0.5-3.02-0.75-6.59c-0.25-3.57-0.5-5.5-0.75-5.81
			c-0.25-0.31-0.29-1.76-0.13-4.34C376.05,140.16,376.34,138.5,376.75,137.88z"/>
		<path class="st1" d="M420.85,144.7c1.17-0.31,2.42-0.26,3.75,0.16c1.33,0.41,2.44,1.03,3.31,1.86c0.87,0.83,1.52,1.86,1.94,3.1
			c0.08,0.83,0.02,1.81-0.19,2.95c-0.21,1.14-0.4,1.86-0.56,2.17c-0.33,0.31-0.83,1.34-1.5,3.1c-0.67,1.65-1.37,2.95-2.12,3.88
			l-1.13,1.24h-3.37c-2.42,0-3.87-0.26-4.37-0.78c-1.33-1.24-2.12-3.46-2.37-6.67c0-2.17,0.06-3.64,0.19-4.42
			c0.13-0.78,0.56-1.78,1.31-3.02C416.64,146.72,418.35,145.53,420.85,144.7z M421.6,177.1c0.67-0.52,1.08-0.77,1.25-0.77
			c1.17,0,2.16,0.62,3,1.86l1,1.24l-0.25,15.04c0,10.13-0.13,15.97-0.38,17.52c-0.58,4.96-0.79,8.27-0.62,9.92
			c0.33,1.55,0.33,2.95,0,4.19c-0.17,0.93-0.25,1.71-0.25,2.33c0,0.31-0.17,0.75-0.5,1.32c-0.33,0.57-0.69,1.03-1.06,1.4
			c-0.37,0.36-0.77,0.65-1.19,0.85c-0.58,0.1-1.25-0.02-2-0.39c-0.75-0.36-1.25-0.8-1.5-1.32c-1-2.48-1.12-8.06-0.37-16.74
			c0.25-3.51,0.46-9.46,0.62-17.83c0-8.27,0.08-12.71,0.25-13.33c0.33-0.41,0.58-1.34,0.75-2.79
			C420.52,178.34,420.93,177.52,421.6,177.1z"/>
		<path class="st1" d="M463.57,169.82c0.75-0.21,1.29-0.36,1.62-0.46c1.42,0,2.67,0.52,3.75,1.55c0.67,0.52,1.42,1.24,2.25,2.17
			c3,2.79,4.75,8.68,5.25,17.67c0.33,2.48,0.46,8.32,0.37,17.52c-0.08,9.2-0.21,14.21-0.37,15.04c-0.08,0.41-0.52,0.98-1.31,1.71
			c-0.79,0.72-1.44,1.09-1.94,1.09c-1.33,0-2.5-0.88-3.5-2.64c-0.5-0.93-0.67-2.53-0.5-4.81c0-2.17,0.12-3.77,0.37-4.81
			c0.25-1.03,0.37-4.96,0.37-11.78c0-6.92-0.25-11.78-0.75-14.57c-0.5-3.93-1.13-6.67-1.87-8.22c-0.75-1.34-1.87-1.86-3.37-1.55
			c-0.83,0.31-2.58,2.07-5.25,5.27c-2.67,3.41-4.08,5.37-4.25,5.89c-0.33,0.72-0.79,1.65-1.37,2.79c-1.58,2.48-2.58,4.81-3,6.98
			c-0.08,0.93-0.29,1.71-0.62,2.33c-0.58,1.03-1.17,7.29-1.75,18.76c-0.17,3-0.42,4.83-0.75,5.5c-0.33,0.67-1.25,1.27-2.75,1.78
			c-0.33,0.1-0.83-0.02-1.5-0.39c-0.67-0.36-1.17-0.8-1.5-1.32c-0.08-0.41-0.13-6.17-0.13-17.28c0-11.11-0.25-17.44-0.75-18.99
			c-0.42-1.34-0.67-2.64-0.75-3.88c-0.08-1.24-0.37-2.27-0.87-3.1c-0.42-0.62-0.87-1.55-1.37-2.79c-0.5-1.03-1.04-1.7-1.62-2.02
			c-1.42-0.93-2.12-2.27-2.12-4.03c0-0.93,0.38-1.7,1.13-2.32c0.75-0.62,1.42-0.93,2-0.93c0.67,0,1.58,0.39,2.75,1.16
			c1.16,0.77,1.83,1.42,2,1.94c0,0.62,0.42,1.45,1.25,2.48c2,2.69,3.08,6.2,3.25,10.54c0,1.24,0.13,1.86,0.37,1.86
			c0.42,0,1.71-1.5,3.87-4.5c2.66-3.41,4.08-5.27,4.25-5.58c0.5-1.65,1.54-3.2,3.12-4.65C460.16,171.26,462.16,170.13,463.57,169.82
			z"/>
		<path class="st1" d="M514.17,162.22c2.08-0.41,4.08,0,6,1.24c1.5,0.93,2.54,1.91,3.12,2.95c0.67,1.24,1,2.17,1,2.79
			s0.58,1.55,1.75,2.79l1.5,1.86v8.22v13.64c0.08,8.06-0.17,12.81-0.75,14.26c-0.33,0.62-0.54,2.07-0.62,4.34
			c-0.25,2.38-0.54,4.03-0.87,4.96c-0.42,0.93-0.62,1.78-0.62,2.56c0,0.77-0.25,1.73-0.75,2.87c-0.5,1.14-0.75,1.96-0.75,2.48
			c0,0.41-0.27,1.37-0.81,2.87c-0.54,1.5-0.81,2.4-0.81,2.71c0,0.31-0.25,1.09-0.75,2.33c-0.42,0.62-1.27,1.81-2.56,3.57
			c-1.29,1.76-2.67,3.41-4.12,4.96c-1.46,1.55-2.39,2.43-2.81,2.64c-0.5,0.31-1.13,0.39-1.87,0.23c-0.75-0.16-1.5-0.05-2.25,0.31
			c-0.75,0.36-1.87,0.23-3.37-0.39c-1.5-0.62-2.33-1.03-2.5-1.24c-0.17-0.21-0.75-0.46-1.75-0.78c-2.5-0.62-4.33-1.65-5.5-3.1
			c-0.67-0.72-1.5-1.55-2.5-2.48c-1.42-1.24-2.67-2.64-3.75-4.19c-1.17-1.45-2.08-2.53-2.75-3.26c-2.67-3.31-4.21-6.56-4.62-9.77
			c0-0.93,0.25-1.81,0.75-2.64c1-1.24,2.12-1.42,3.37-0.54c1.25,0.88,2.37,2.61,3.37,5.19c0.5,1.45,2.02,3.59,4.56,6.43
			c2.54,2.84,4.56,4.83,6.06,5.97c1.5,0.93,2.42,1.55,2.75,1.86c0.5,0.31,0.96,0.46,1.37,0.46c0.42,0,1,0.21,1.75,0.62
			c1,0.62,2.25,0.62,3.75,0c1.91-0.93,3.62-2.64,5.12-5.12c2-3.1,3.16-5.94,3.5-8.53c0.17-0.83,0.42-1.76,0.75-2.79
			c1.25-3.62,2-6.98,2.25-10.08c0.17-1.86,0.33-3.15,0.5-3.88c0.33-0.83,0.62-3.59,0.87-8.29c0.25-4.7,0.21-7.31-0.13-7.83
			c-0.58-1.03-0.87-0.72-0.87,0.93c0,0.52-0.37,1.29-1.12,2.33c-0.83,1.14-1.42,2.07-1.75,2.79c-0.33,0.93-1.33,2.43-3,4.49
			c-1.5,1.86-2.67,2.95-3.5,3.26c-0.75,0.31-1.12,0.52-1.12,0.62c0,0.93-1.62,1.4-4.87,1.4c-2,0-3.37-0.31-4.12-0.93
			c-0.92-0.72-1.54-1.24-1.87-1.55c-1.5-1.14-2.42-3.31-2.75-6.51c-0.33-2.17-0.33-3.51,0-4.03c0.08-0.62,0.17-1.55,0.25-2.79
			c0.17-1.34,0.37-2.33,0.62-2.95c1.08-2.48,1.83-5.43,2.25-8.84c0.42-2.79,1.29-5.06,2.62-6.82c0.67-0.93,1.29-1.91,1.87-2.94
			c1.08-2.38,2.04-3.57,2.87-3.57c0.33,0,0.75-0.21,1.25-0.62C510.13,164.23,512.25,162.74,514.17,162.22z M517.91,169.97
			c-0.42,0-0.71,0-0.87,0c-1.17-0.52-2.37-0.21-3.62,0.93c-1.08,0.93-1.71,1.45-1.87,1.55c-0.75,0.52-1.31,0.85-1.69,1.01
			c-0.38,0.15-0.94,0.72-1.69,1.7c-0.75,0.98-1.12,1.73-1.12,2.25c0,0.1-0.17,0.46-0.5,1.09c-1.33,1.76-2.17,4.39-2.5,7.91
			c-0.17,1.86-0.42,3.26-0.75,4.19c-0.25,0.83-0.5,2.22-0.75,4.19c-0.33,2.69-0.21,4.44,0.38,5.27c0.58,0.83,1.87,0.93,3.87,0.31
			c1.5-0.62,3.25-2.38,5.25-5.27c1.33-1.86,2.25-3.1,2.75-3.72c0.5-0.83,0.75-1.34,0.75-1.55c0-0.21,0.33-0.93,1-2.17
			c0.91-1.45,1.5-2.53,1.75-3.26c0.25-0.93,0.25-1.78,0-2.56c-0.25-0.77-0.5-1.32-0.75-1.63c-0.25-0.52,0-1.6,0.75-3.26
			c0.75-2.07,1.1-3.74,1.06-5.04C519.31,170.62,518.83,169.97,517.91,169.97z"/>
	</g>
	<g>
		<path class="st2" d="M115.13,145.18c0.92-0.31,1.87-0.36,2.87-0.16c0.5,0.1,1.06,0.7,1.69,1.78c0.62,1.09,0.94,2.04,0.94,2.87
			c0,1.65-1,2.64-3,2.94c-1.42,0.31-2.37,0.62-2.87,0.93c-0.5,0.31-1.25,0.57-2.25,0.77c-0.83,0.1-1.5,0.31-2,0.62
			c-1.25,0.83-4.12,1.76-8.62,2.79c-0.92,0.31-1.94,0.78-3.06,1.39c-1.12,0.62-2.48,1.19-4.06,1.71c-1.67,0.41-2.79,0.93-3.37,1.55
			c-0.75,0.62-1.75,1.03-3,1.24c-1.25,0.31-1.98,0.62-2.19,0.93c-0.21,0.31-0.19,0.93,0.06,1.86c0.17,0.93,0.21,2.09,0.13,3.49
			c-0.08,1.4-0.13,2.71-0.13,3.95c0.17,9.41,0.42,14.68,0.75,15.81c0.25,0.72,1.37,0.57,3.37-0.46c1.16-0.52,1.89-0.78,2.19-0.78
			c0.29,0,0.87-0.31,1.75-0.93c0.87-0.62,1.48-0.93,1.81-0.93c0.33,0,0.81-0.18,1.44-0.54c0.63-0.36,1.48-0.8,2.56-1.32
			c1.17-0.31,1.91-0.62,2.25-0.93c0.25-0.31,0.96-0.62,2.12-0.93c1.58-0.62,3.5-1.45,5.75-2.48c0.75-0.31,2.21-0.93,4.37-1.86
			c2-0.83,3.29-1.45,3.87-1.86c1.16-0.62,2.29-0.31,3.37,0.93c0.67,0.72,1,1.78,1,3.18c0,1.39-0.29,2.25-0.87,2.56
			c-0.58,0.31-1.62,0.62-3.12,0.93c-1.5,0.31-2.83,0.77-4,1.39c-1.17,0.62-2.37,1.19-3.62,1.71c-3.42,1.24-5.75,2.22-7,2.95
			c-0.5,0.31-1,0.46-1.5,0.46c-0.33,0-0.75,0.31-1.25,0.93c-0.67,0.31-1.5,0.62-2.5,0.93c-1,0.31-1.62,0.62-1.87,0.93
			c-0.25,0.31-0.69,0.54-1.31,0.7c-0.62,0.16-1.19,0.49-1.69,1.01c-0.5,0.41-1.25,0.72-2.25,0.93c-0.75,0.1-1.62,0.57-2.62,1.4
			l-1.25,1.09l0.12,2.17c0.25,1.86,0.46,3.77,0.63,5.74c0.08,2.69,0.25,4.65,0.5,5.89l0.37,3.26c0.17,0.62,0.33,1.09,0.5,1.39
			c0.17,0.31,0.54,0.34,1.12,0.08c0.58-0.26,1.27-0.7,2.06-1.32c0.79-0.62,2.02-1.55,3.69-2.79c0.75-0.62,1.87-1.29,3.37-2.01
			c1.58-0.93,2.62-1.55,3.12-1.86c0.42-0.31,0.87-0.57,1.37-0.77c0.33-0.1,1.25-0.72,2.75-1.86c1.5-1.03,2.5-1.6,3-1.71
			c0.5-0.1,0.87-0.36,1.12-0.77c0.25-0.31,0.87-0.62,1.87-0.93c0.75-0.31,1.56-0.9,2.44-1.78c0.87-0.88,1.31-1.52,1.31-1.94
			c0-0.31,0.19-0.67,0.56-1.09c0.37-0.41,0.89-0.36,1.56,0.16c1.5,1.03,2.25,2.89,2.25,5.58c0,1.34-0.23,2.22-0.69,2.64
			c-0.46,0.41-0.94,0.62-1.44,0.62c-0.5,0-1.04,0.21-1.62,0.62c-0.67,0.31-1.29,0.62-1.87,0.93c-0.67,0.21-1.25,0.62-1.75,1.24
			c-0.58,0.41-1.04,0.62-1.37,0.62c-0.33,0-0.75,0.26-1.25,0.77c-0.58,0.62-1.12,1.09-1.62,1.4c-2,1.03-3.37,1.96-4.12,2.79
			c-0.5,0.41-1,0.62-1.5,0.62c-0.5,0-0.87,0.16-1.12,0.47c-0.42,0.52-0.92,0.93-1.5,1.24c-0.67,0.31-1.25,0.67-1.75,1.09
			c-0.33,0.52-0.75,0.83-1.25,0.93c-0.92,0.31-2.17,1.39-3.75,3.26c-0.5,0.62-1.37,1.24-2.62,1.86c-1.25,0.62-2.21,0.93-2.87,0.93
			c-0.33,0-1-0.18-2-0.54c-1-0.36-1.62-0.7-1.87-1.01c-0.17-0.21-0.37-0.67-0.62-1.39c0-0.62-0.17-1.24-0.5-1.86
			c-0.67-1.24-1-4.03-1-8.37c0-1.86-0.13-3.2-0.37-4.03c-0.25-0.93-0.42-1.91-0.5-2.95c-0.17-0.93-0.44-1.63-0.81-2.09
			c-0.37-0.47-1.19-1.16-2.44-2.09c-2.25-1.45-2.5-3.1-0.75-4.96c0.75-0.72,1.25-1.09,1.5-1.09c0.25,0,0.58-0.46,1-1.4
			c0.5-0.83,0.62-1.55,0.37-2.17c-0.5-2.17-0.83-8.58-1-19.22c0-2.69-0.02-4.26-0.06-4.73c-0.04-0.46-0.27-0.75-0.69-0.85
			c-0.33,0-1.08,0.31-2.25,0.93c-1.08,0.62-1.92,0.93-2.5,0.93c-0.58,0-1.25,0.16-2,0.46c-1.33,0.72-2.12,0.78-2.37,0.16
			c-0.25-0.31-0.5-0.41-0.75-0.31c-0.25,0.1-0.37,0.36-0.37,0.77c0,1.45-0.46,2.17-1.37,2.17c-0.75,0-1.67-1.09-2.75-3.26
			c-0.42-0.93-0.5-1.55-0.25-1.86c0.25-0.31,0.67-0.39,1.25-0.23c0.58,0.16,0.92-0.18,1-1.01c0.5-1.55,1.58-2.53,3.25-2.95
			c0.75-0.21,1.42-0.52,2-0.93c0.75-0.52,1.71-0.83,2.87-0.93c1.08-0.21,1.85-0.49,2.31-0.85c0.46-0.36,0.98-0.7,1.56-1.01
			c0.5-0.21,1.12-0.67,1.87-1.4c0.75-0.93,1.71-1.34,2.87-1.24c1.25,0.21,2.06,0.18,2.44-0.08c0.37-0.26,1.69-0.75,3.93-1.47
			c2.5-0.83,4.12-1.39,4.87-1.7c3.33-1.55,6.12-2.64,8.37-3.26c1.25-0.31,2.31-0.7,3.19-1.16c0.87-0.46,1.56-0.7,2.06-0.7
			c0.5,0,1.5-0.52,3-1.55C113.55,145.95,114.55,145.38,115.13,145.18z"/>
		<path class="st2" d="M161.6,163.31c1.33-1.14,2.62-0.62,3.87,1.55c0.75,1.24,1.06,2.25,0.94,3.02c-0.12,0.78-0.73,1.94-1.81,3.49
			c-1.42,1.55-2.12,2.64-2.12,3.26c-0.08,0.62-0.25,1.5-0.5,2.64c-0.17,0.31-0.37,0.85-0.62,1.63c-0.25,0.78-0.37,1.32-0.37,1.63
			c-0.25,0.93-0.62,1.76-1.12,2.48c-0.25,0.52-0.37,1.01-0.37,1.47s-0.25,1.01-0.75,1.63c-0.5,0.72-0.75,1.24-0.75,1.55
			c0,0.31-0.42,1.24-1.25,2.79c-0.92,1.55-1.54,2.74-1.87,3.57c-0.42,0.93-0.67,1.6-0.75,2.01c-0.17,0.21-0.33,0.54-0.5,1.01
			c-0.17,0.46-0.33,0.85-0.5,1.16c-0.25,0.62-0.87,1.91-1.87,3.88c-2,4.34-3.04,6.82-3.12,7.44c-1.42,3.72-2.37,5.84-2.87,6.36
			c-0.25,0.41-0.42,0.93-0.5,1.55c-0.5,1.86-1.37,3.26-2.62,4.19c-1.67,1.24-3.04,1.09-4.12-0.46c-0.75-0.93-1.12-1.6-1.12-2.02
			c0-0.31-0.13-0.88-0.37-1.71c-0.42-0.72-0.75-2.25-1-4.57c-0.25-2.33-0.5-3.8-0.75-4.42c-0.25-0.62-0.5-1.63-0.75-3.02
			c-0.25-1.4-0.5-2.38-0.75-2.95c-0.25-0.57-0.42-1.32-0.5-2.25c-0.17-1.03-0.5-2.17-1-3.41c-0.5-1.24-0.75-2.17-0.75-2.79
			s-0.25-1.5-0.75-2.64c-0.5-0.93-0.75-1.88-0.75-2.87c0-0.98-0.17-2.04-0.5-3.18c-0.42-1.03-0.96-3.15-1.62-6.36
			c-0.67-3.2-0.96-5.01-0.87-5.43c0.5-2.79,2.08-3.1,4.75-0.93c1,0.93,1.56,1.71,1.69,2.33c0.13,0.62,0.31,1.24,0.56,1.86
			c1.5,4.44,2.29,7.6,2.37,9.46c0.25,1.86,0.5,3.1,0.75,3.72c0.42,0.52,0.63,0.98,0.63,1.4c0,0.62,0.17,1.55,0.5,2.79
			c0.42,1.45,0.79,2.79,1.12,4.03c0.25,1.34,0.46,2.17,0.62,2.48c0.25,0.31,0.5,1.09,0.75,2.33c0.08,1.24,0.23,2.09,0.44,2.56
			c0.21,0.47,0.52,0.67,0.94,0.62c0.42-0.05,0.75-0.39,1-1.01c0.42-0.62,1.42-2.48,3-5.58c2-3.72,3.21-5.99,3.62-6.82
			c0.58-1.34,1.08-2.27,1.5-2.79c0.25-0.41,0.54-1.03,0.87-1.86c0.17-0.41,0.67-1.65,1.5-3.72c0.75-1.55,1.25-2.94,1.5-4.19
			c0.25-1.03,0.5-1.81,0.75-2.33c0.42-0.62,0.62-1.14,0.62-1.55c0-0.31,0.27-1.29,0.81-2.95c0.54-1.65,1.12-3.33,1.75-5.04
			c0.62-1.71,1.14-2.76,1.56-3.18C160.43,164.35,160.93,163.73,161.6,163.31z"/>
		<path class="st2" d="M192.83,162.69c1.75-1.03,3.83-0.88,6.25,0.46c2,1.24,3.39,2.25,4.18,3.02c0.79,0.78,1.52,2.04,2.19,3.8
			c0.58,1.55,0.81,3.18,0.69,4.88c-0.13,1.71-0.37,2.82-0.75,3.33c-0.37,0.52-0.61,1.09-0.69,1.71c-0.17,0.52-0.42,1.09-0.75,1.71
			c-0.42,0.62-0.62,1.09-0.62,1.39c0,0.62-0.71,1.63-2.12,3.02c-1.42,1.39-3.08,2.56-5,3.49c-0.58,0.41-1.12,0.72-1.62,0.93
			c-0.5,0.41-1.5,0.78-3,1.09c-1.42,0.31-2.42,0.72-3,1.24c-0.5,0.31-1.23,0.46-2.19,0.46c-0.96,0-1.77,0.18-2.44,0.54
			c-0.67,0.36-1.75,0.54-3.25,0.54s-2.5,0.31-3,0.93l-0.75,0.93l0.13,5.12c0,3.41,0.37,5.74,1.12,6.98c1.5,2.79,2.96,4.6,4.37,5.43
			c0.75,0.41,2.5,0.72,5.25,0.93c2.83,0,4.87-0.16,6.12-0.47c1.25-0.31,3.21-1.34,5.87-3.1c2.33-1.55,4.08-2.84,5.25-3.88
			c2.08-2.17,3.62-3.26,4.62-3.26c0.42,0,0.83,0.49,1.25,1.47c0.42,0.98,0.62,1.94,0.62,2.87c0,1.24-0.21,2.33-0.62,3.26
			c-0.42,0.93-1.19,1.91-2.31,2.95c-1.12,1.03-2.81,2.38-5.06,4.03c-1.92,1.45-3.58,2.2-5,2.25c-1.42,0.05-2.25,0.34-2.5,0.85
			c-1.25,1.24-5.62,1.45-13.12,0.62c-1.92-0.1-3.14-0.31-3.69-0.62c-0.54-0.31-1.44-1.34-2.69-3.1c-2.67-3.72-4.37-6.67-5.12-8.84
			c-0.5-1.55-0.77-4.73-0.81-9.53c-0.04-4.81-0.15-7.52-0.31-8.14c-0.5-1.55-0.29-2.95,0.62-4.19c0.83-1.03,1.62-3.1,2.37-6.2
			c0.67-2.48,1.5-4.29,2.5-5.43c0.25-0.31,0.5-0.77,0.75-1.39c1-1.86,2.79-3.93,5.37-6.2c2.41-2.17,4.04-3.26,4.87-3.26
			c0.42,0,0.92-0.26,1.5-0.77c0.75-0.41,1.5-0.72,2.25-0.93C191.33,163.52,192.08,163.21,192.83,162.69z M199.08,170.91
			c-0.5-0.52-1-0.83-1.5-0.93c-0.67-0.21-1.77-0.02-3.31,0.54c-1.54,0.57-2.64,1.06-3.31,1.47c-0.58,0.52-1.31,0.88-2.19,1.09
			c-0.87,0.21-2.27,1.5-4.18,3.88c-3.08,3.82-4.62,6.46-4.62,7.91c0,0.72,0.04,1.19,0.13,1.39c0.25,0,1.54-0.16,3.87-0.46
			c2.33-0.31,3.79-0.62,4.37-0.93c5.25-1.86,8.74-4.29,10.49-7.29c0.92-1.34,1.42-2.33,1.5-2.95
			C200.57,173.18,200.16,171.94,199.08,170.91z"/>
		<path class="st2" d="M217.19,162.54c0.25-0.31,0.75-0.46,1.5-0.46c1.5,0,2.66,1.6,3.5,4.81c0.5,2.07,0.83,5.97,1,11.7
			c0.17,5.74,0.33,8.68,0.5,8.84c0.17,0.16,1.42-1.32,3.75-4.42c5.41-7.03,9.91-11.01,13.49-11.94c1.16-0.1,2.16-0.46,3-1.09
			c1.16-0.52,1.91-0.78,2.25-0.78c0.33,0,0.92-0.31,1.75-0.93c2.5-1.55,4.75-1.24,6.75,0.93c0.67,0.83,1,1.86,1,3.1
			c0,1.24-0.46,2.33-1.37,3.26c-1,1.24-2.46,1.86-4.37,1.86c-2.33,0-4.91,0.93-7.75,2.79c-0.83,0.41-1.42,0.62-1.75,0.62
			c-0.5,0-2.21,1.84-5.12,5.5c-2.92,3.67-5.04,6.59-6.37,8.76c-1.5,2.27-2.5,4.81-3,7.6c-0.17,1.45-0.36,2.33-0.56,2.64
			c-0.21,0.31-0.44,1.4-0.69,3.26c-0.17,1.65-0.42,3.2-0.75,4.65c-0.33,1.24-0.58,2.48-0.75,3.72c-0.25,2.27-1,4.03-2.25,5.27
			c-0.33,0.31-1.04,0.46-2.12,0.46c-1.08,0-1.96-0.46-2.62-1.4l-0.87-1.39l0.13-4.65c0.17-3.2,0.42-5.53,0.75-6.98
			c0.5-1.34,0.75-8.22,0.75-20.62c0-12.4,0.21-18.86,0.62-19.38c0.5-0.72,0.46-1.4-0.13-2.02c-0.33-0.52-0.52-1.16-0.56-1.94
			C216.83,163.55,216.94,162.95,217.19,162.54z"/>
		<path class="st2" d="M302.88,156.18c1.25-1.34,2.58-1.34,4,0c1.33,1.45,1.96,3.77,1.87,6.98c-0.5,9.82-0.96,15.66-1.37,17.52
			c-0.25,1.24-0.5,3.57-0.75,6.98c-0.08,3.2-0.25,5.12-0.5,5.74c-0.17,0.83-0.42,2.53-0.75,5.12c-0.25,3-0.58,4.96-1,5.89
			c-0.25,1.03-0.5,2.33-0.75,3.88c-0.25,1.55-0.5,2.48-0.75,2.79c-0.25,0.31-0.42,1.24-0.5,2.79c0,1.55-0.21,2.64-0.62,3.26
			c-0.25,0.62-0.5,1.55-0.75,2.79c-0.33,1.14-0.71,2.01-1.12,2.64c-0.33,0.62-0.58,1.24-0.75,1.86c-0.08,0.72-0.21,1.19-0.37,1.39
			c-0.08,0.1-0.38,0.72-0.87,1.86c-0.25,0.93-1.46,2.69-3.62,5.27c-2.08,2.48-3.25,3.72-3.5,3.72c-0.17,0-0.87,0.39-2.12,1.16
			c-1.25,0.77-2.79,1.16-4.62,1.16c-1.92,0-3.92-0.36-6-1.09c-2.25-1.14-4.58-2.64-7-4.5c-1.25-1.03-3.02-3.1-5.31-6.2
			c-2.29-3.1-3.43-4.96-3.43-5.58c0-0.21-0.21-0.52-0.63-0.93c-0.33-0.52-0.58-1.14-0.75-1.86c-0.08-0.83-0.33-1.4-0.75-1.71
			c-0.83-0.93-1.08-2.33-0.75-4.19c0.25-0.62,0.69-1.24,1.31-1.86c0.62-0.62,1.27-0.93,1.94-0.93c0.33,0,0.73,0.21,1.19,0.62
			c0.46,0.41,0.83,0.88,1.12,1.39c0.29,0.52,0.56,1.09,0.81,1.71c0.17,0.93,0.33,1.47,0.5,1.63c0.17,0.16,0.37,0.7,0.62,1.63
			c0.5,1.76,2.08,4.34,4.75,7.75c2.58,3.2,5.33,5.43,8.24,6.67c2,0.83,3.41,1.14,4.25,0.93c1.67-0.41,3.29-1.65,4.87-3.72
			c0.92-0.93,2.06-2.48,3.44-4.65c1.37-2.17,2.06-3.46,2.06-3.88c0-0.21,0.17-0.93,0.5-2.17c1.5-3.82,2.25-6.61,2.25-8.37
			c0-0.41,0.25-1.5,0.75-3.26c0.5-1.86,0.87-4.03,1.12-6.51c0.25-2.27,0.5-4.03,0.75-5.27c0.25-0.83,0.38-2.01,0.38-3.57
			c0-1.55-0.13-2.38-0.38-2.48c-0.33,0.31-0.58,0.62-0.75,0.93c-0.25,0.93-0.75,1.86-1.5,2.79c-0.75,0.93-1.12,1.45-1.12,1.55
			c0,0.21-0.4,0.8-1.19,1.78c-0.79,0.98-1.4,1.63-1.81,1.94c-1,1.14-2.5,2.38-4.5,3.72c-1.75,1.14-3.37,1.09-4.87-0.16
			c-1.83-1.24-3-4.44-3.5-9.61c-0.25-1.96-0.35-6.64-0.31-14.03c0.04-7.39,0.19-11.55,0.44-12.48c0.42-0.72,0.67-1.5,0.75-2.33
			c0.42-1.55,1.41-2.48,3-2.79c0.92-0.1,1.69,0.26,2.31,1.09c0.63,0.83,0.94,1.86,0.94,3.1c0,1.24-0.13,2.27-0.37,3.1
			c-0.75,2.48-1.13,7.8-1.13,15.97c0,5.58,0.13,8.63,0.38,9.15c0.83,1.55,2.62,0.62,5.37-2.79c2.16-2.69,3.91-5.63,5.25-8.84
			c0.17-0.52,0.5-1.24,1-2.17c0.33-0.41,0.58-1.19,0.75-2.33c0.08-0.93,0.25-1.71,0.5-2.32c0.91-1.55,1.37-3.46,1.37-5.74
			c0-1.14,0.17-2.33,0.5-3.57c0.25-1.24,0.46-2.79,0.62-4.65C302.09,157.94,302.38,156.7,302.88,156.18z"/>
		<path class="st2" d="M333.74,144.71c1.91-1.14,3.75,0.41,5.5,4.65c0.5,1.55,0.75,4.24,0.75,8.06c0,3.93-0.12,6.2-0.37,6.82
			c-0.25,0.41-0.38,2.74-0.38,6.98c0,4.13,0.25,6.46,0.75,6.98c0.75,0.72,2.54,0.57,5.37-0.46c1-0.31,2.33-0.62,4-0.93
			c1.75-0.31,2.91-0.72,3.5-1.24c0.67-0.31,1.75-0.52,3.25-0.62c1.5-0.31,2.37-0.62,2.62-0.93c1-1.14,2.5-1.71,4.5-1.71
			c1.25,0,2.5,0.88,3.75,2.64c0.5,0.62,0.75,1.09,0.75,1.39c0,0.31-0.21,0.83-0.62,1.55c-1,1.86-2.37,2.79-4.12,2.79
			c-4.08,0-6.87,0.46-8.37,1.4c-0.67,0.52-1.25,0.77-1.75,0.77c-0.5,0-1.37,0.21-2.62,0.62c-1,0.52-2.12,0.83-3.37,0.93
			c-1,0.21-2.39,0.62-4.19,1.24c-1.79,0.62-2.89,1.09-3.31,1.4c-0.25,0.31-0.31,2.43-0.19,6.36c0.12,3.93,0.31,6.3,0.56,7.13
			c0.42,0.62,0.62,1.4,0.62,2.33c0,0.93,0.17,2.53,0.5,4.81c0.25,2.07,0.5,3.93,0.75,5.58c0.17,1.45,0.29,2.33,0.37,2.64
			c0.17,0.1,0.79,0.46,1.87,1.09c1.91,1.24,3.75,1.4,5.5,0.46c0.5-0.31,1.29-0.62,2.37-0.93c2.75-0.62,4.95-1.86,6.62-3.72
			c1-1.03,1.79-1.81,2.37-2.33c0.75-0.31,1.62-0.18,2.62,0.39c1,0.57,1.71,1.32,2.12,2.25c0.33,0.93,0.5,1.6,0.5,2.02
			c0,0.52-0.33,1.27-1,2.25c-0.67,0.98-1.12,1.47-1.37,1.47c-0.25,0-1.08,0.62-2.5,1.86c-2.25,1.86-4.41,3.05-6.5,3.57
			c-1,0.1-2.71,0.57-5.12,1.4c-2.08,0.62-3.83,0.77-5.25,0.46c-2.58-0.52-4.5-1.6-5.75-3.26c-2.17-2.79-3.25-4.81-3.25-6.05
			c0-0.62-0.12-1.4-0.37-2.33c-0.25-0.83-0.5-3.41-0.75-7.75s-0.5-7.18-0.75-8.53c-0.25-1.45-0.37-3.31-0.37-5.58
			c0-2.17-0.13-3.46-0.38-3.88c-0.25-0.41-0.92-0.47-2-0.16c-1,0.31-1.73,0.54-2.19,0.7c-0.46,0.16-2.31,0.31-5.56,0.46
			c-3.25,0.16-5.29,0.23-6.12,0.23c-0.92-0.31-1.87-1.09-2.87-2.32c-1.58-1.96-1.87-3.51-0.87-4.65c0.5-0.41,3.16-0.72,7.99-0.93
			c5.75-0.1,9.49-0.62,11.24-1.55c1.16-0.62,1.54-1.96,1.12-4.03c-0.33-2.17-0.33-8.27,0-18.29c0.17-4.03,0.04-6.61-0.37-7.75
			C331.9,147.66,332.15,145.75,333.74,144.71z"/>
		<path class="st2" d="M372.34,133.09c0.5-0.62,0.81-0.93,0.94-0.93c0.13,0,0.52,0.16,1.19,0.47c1,0.52,1.71,1.34,2.12,2.48
			c0.42,1.14,0.79,3.36,1.13,6.67c0,0.31,0.08,0.78,0.25,1.39c0.17,0.62,0.27,1.32,0.31,2.09c0.04,0.78,0.1,1.37,0.19,1.78
			c0.33,2.17,0.5,6.15,0.5,11.94c0,5.58,0.17,8.73,0.5,9.46c0.25,0.83,0.38,3.62,0.38,8.37c-0.08,3.31,0,5.22,0.25,5.74
			c0.25,0.52,0.79,0.41,1.62-0.31c1-0.83,1.91-1.76,2.75-2.79c1.16-1.14,2.29-2.12,3.37-2.94c1.08-0.83,2.62-1.37,4.62-1.63
			c2-0.26,3.29-0.31,3.87-0.15c0.58,0.15,1.54,0.93,2.87,2.32c1.33,1.4,2.25,2.56,2.75,3.49c1.75,3.93,2.66,6.72,2.75,8.37
			c0.33,1.45,0.54,2.53,0.62,3.26c0.25,0.93,0.25,1.96,0,3.1c-0.25,1.03-0.21,2.27,0.13,3.72c0.5,1.55,0.71,3.77,0.62,6.67
			c0,3.31-0.15,5.14-0.44,5.5c-0.29,0.36-0.52,1.94-0.69,4.73c-0.17,5.17-0.92,8.27-2.25,9.3c-1.75,1.45-3.25,0.98-4.5-1.39
			c-0.67-1.03-0.92-2.58-0.75-4.65c0.17-2.17,0.42-4.08,0.75-5.74c0.33-2.07,0.5-4.96,0.5-8.68c0-3.82-0.04-7.34-0.13-10.54
			c-0.08-3.2-0.46-5.63-1.12-7.29c-0.5-1.76-1.04-2.89-1.62-3.41c-0.58-0.52-1.42-0.75-2.5-0.7c-1.08,0.05-2.21,0.65-3.37,1.78
			c-4.33,4.44-7,8.53-7.99,12.25c-1.33,4.86-2,7.75-2,8.68s-0.08,2.17-0.25,3.72c-0.83,4.44-1.17,8.17-1,11.16
			c0.25,3.2-0.1,5.56-1.06,7.05c-0.96,1.5-2.23,1.78-3.81,0.85c-0.58-0.52-1.04-0.98-1.37-1.4c-0.67-2.17-0.92-5.37-0.75-9.61
			c0.42-9.61,0.75-15.24,1-16.9c0.25-0.83,0.44-2.87,0.56-6.12c0.13-3.26,0.23-6.67,0.31-10.23c0.08-3.57,0.04-6.9-0.13-10
			c-0.17-5.06-0.25-9.4-0.25-13.02c0.17-3.41,0.13-5.48-0.12-6.2c-0.25-0.83-0.5-3.02-0.75-6.59c-0.25-3.57-0.5-5.5-0.75-5.81
			c-0.25-0.31-0.29-1.76-0.13-4.34C371.63,135.36,371.92,133.71,372.34,133.09z"/>
		<path class="st2" d="M416.43,139.91c1.17-0.31,2.42-0.26,3.75,0.16c1.33,0.41,2.44,1.03,3.31,1.86c0.87,0.83,1.52,1.86,1.94,3.1
			c0.08,0.83,0.02,1.81-0.19,2.95c-0.21,1.14-0.4,1.86-0.56,2.17c-0.33,0.31-0.83,1.34-1.5,3.1c-0.67,1.65-1.37,2.95-2.12,3.88
			l-1.13,1.24h-3.37c-2.42,0-3.87-0.26-4.37-0.78c-1.33-1.24-2.12-3.46-2.37-6.67c0-2.17,0.06-3.64,0.19-4.42
			c0.13-0.78,0.56-1.78,1.31-3.02C412.23,141.92,413.93,140.73,416.43,139.91z M417.18,172.3c0.67-0.52,1.08-0.77,1.25-0.77
			c1.17,0,2.16,0.62,3,1.86l1,1.24l-0.25,15.04c0,10.13-0.13,15.97-0.38,17.52c-0.58,4.96-0.79,8.27-0.62,9.92
			c0.33,1.55,0.33,2.95,0,4.19c-0.17,0.93-0.25,1.71-0.25,2.33c0,0.31-0.17,0.75-0.5,1.32c-0.33,0.57-0.69,1.03-1.06,1.4
			c-0.37,0.36-0.77,0.65-1.19,0.85c-0.58,0.1-1.25-0.02-2-0.39c-0.75-0.36-1.25-0.8-1.5-1.32c-1-2.48-1.12-8.06-0.37-16.74
			c0.25-3.51,0.46-9.46,0.62-17.83c0-8.27,0.08-12.71,0.25-13.33c0.33-0.41,0.58-1.34,0.75-2.79
			C416.1,173.54,416.51,172.72,417.18,172.3z"/>
		<path class="st2" d="M459.16,165.02c0.75-0.21,1.29-0.36,1.62-0.46c1.42,0,2.67,0.52,3.75,1.55c0.67,0.52,1.42,1.24,2.25,2.17
			c3,2.79,4.75,8.68,5.25,17.67c0.33,2.48,0.46,8.32,0.37,17.52c-0.08,9.2-0.21,14.21-0.37,15.04c-0.08,0.41-0.52,0.98-1.31,1.71
			c-0.79,0.72-1.44,1.09-1.94,1.09c-1.33,0-2.5-0.88-3.5-2.64c-0.5-0.93-0.67-2.53-0.5-4.81c0-2.17,0.12-3.77,0.37-4.81
			c0.25-1.03,0.37-4.96,0.37-11.78c0-6.92-0.25-11.78-0.75-14.57c-0.5-3.93-1.13-6.67-1.87-8.22c-0.75-1.34-1.87-1.86-3.37-1.55
			c-0.83,0.31-2.58,2.07-5.25,5.27c-2.67,3.41-4.08,5.37-4.25,5.89c-0.33,0.72-0.79,1.65-1.37,2.79c-1.58,2.48-2.58,4.81-3,6.98
			c-0.08,0.93-0.29,1.71-0.62,2.33c-0.58,1.03-1.17,7.29-1.75,18.76c-0.17,3-0.42,4.83-0.75,5.5c-0.33,0.67-1.25,1.27-2.75,1.78
			c-0.33,0.1-0.83-0.02-1.5-0.39c-0.67-0.36-1.17-0.8-1.5-1.32c-0.08-0.41-0.13-6.17-0.13-17.28c0-11.11-0.25-17.44-0.75-18.99
			c-0.42-1.34-0.67-2.64-0.75-3.88c-0.08-1.24-0.37-2.27-0.87-3.1c-0.42-0.62-0.87-1.55-1.37-2.79c-0.5-1.03-1.04-1.7-1.62-2.02
			c-1.42-0.93-2.12-2.27-2.12-4.03c0-0.93,0.38-1.7,1.13-2.32c0.75-0.62,1.42-0.93,2-0.93c0.67,0,1.58,0.39,2.75,1.16
			c1.16,0.77,1.83,1.42,2,1.94c0,0.62,0.42,1.45,1.25,2.48c2,2.69,3.08,6.2,3.25,10.54c0,1.24,0.13,1.86,0.37,1.86
			c0.42,0,1.71-1.5,3.87-4.5c2.66-3.41,4.08-5.27,4.25-5.58c0.5-1.65,1.54-3.2,3.12-4.65C455.74,166.47,457.74,165.33,459.16,165.02
			z"/>
		<path class="st2" d="M509.75,157.42c2.08-0.41,4.08,0,6,1.24c1.5,0.93,2.54,1.91,3.12,2.95c0.67,1.24,1,2.17,1,2.79
			s0.58,1.55,1.75,2.79l1.5,1.86v8.22v13.64c0.08,8.06-0.17,12.81-0.75,14.26c-0.33,0.62-0.54,2.07-0.62,4.34
			c-0.25,2.38-0.54,4.03-0.87,4.96c-0.42,0.93-0.62,1.78-0.62,2.56c0,0.77-0.25,1.73-0.75,2.87c-0.5,1.14-0.75,1.96-0.75,2.48
			c0,0.41-0.27,1.37-0.81,2.87c-0.54,1.5-0.81,2.4-0.81,2.71c0,0.31-0.25,1.09-0.75,2.33c-0.42,0.62-1.27,1.81-2.56,3.57
			c-1.29,1.76-2.67,3.41-4.12,4.96c-1.46,1.55-2.39,2.43-2.81,2.64c-0.5,0.31-1.13,0.39-1.87,0.23c-0.75-0.16-1.5-0.05-2.25,0.31
			c-0.75,0.36-1.87,0.23-3.37-0.39c-1.5-0.62-2.33-1.03-2.5-1.24c-0.17-0.21-0.75-0.46-1.75-0.78c-2.5-0.62-4.33-1.65-5.5-3.1
			c-0.67-0.72-1.5-1.55-2.5-2.48c-1.42-1.24-2.67-2.64-3.75-4.19c-1.17-1.45-2.08-2.53-2.75-3.26c-2.67-3.31-4.21-6.56-4.62-9.77
			c0-0.93,0.25-1.81,0.75-2.64c1-1.24,2.12-1.42,3.37-0.54c1.25,0.88,2.37,2.61,3.37,5.19c0.5,1.45,2.02,3.59,4.56,6.43
			c2.54,2.84,4.56,4.83,6.06,5.97c1.5,0.93,2.42,1.55,2.75,1.86c0.5,0.31,0.96,0.46,1.37,0.46c0.42,0,1,0.21,1.75,0.62
			c1,0.62,2.25,0.62,3.75,0c1.91-0.93,3.62-2.64,5.12-5.12c2-3.1,3.16-5.94,3.5-8.53c0.17-0.83,0.42-1.76,0.75-2.79
			c1.25-3.62,2-6.98,2.25-10.08c0.17-1.86,0.33-3.15,0.5-3.88c0.33-0.83,0.62-3.59,0.87-8.29c0.25-4.7,0.21-7.31-0.13-7.83
			c-0.58-1.03-0.87-0.72-0.87,0.93c0,0.52-0.37,1.29-1.12,2.33c-0.83,1.14-1.42,2.07-1.75,2.79c-0.33,0.93-1.33,2.43-3,4.49
			c-1.5,1.86-2.67,2.95-3.5,3.26c-0.75,0.31-1.12,0.52-1.12,0.62c0,0.93-1.62,1.4-4.87,1.4c-2,0-3.37-0.31-4.12-0.93
			c-0.92-0.72-1.54-1.24-1.87-1.55c-1.5-1.14-2.42-3.31-2.75-6.51c-0.33-2.17-0.33-3.51,0-4.03c0.08-0.62,0.17-1.55,0.25-2.79
			c0.17-1.34,0.37-2.33,0.62-2.95c1.08-2.48,1.83-5.43,2.25-8.84c0.42-2.79,1.29-5.06,2.62-6.82c0.67-0.93,1.29-1.91,1.87-2.94
			c1.08-2.38,2.04-3.57,2.87-3.57c0.33,0,0.75-0.21,1.25-0.62C505.71,159.44,507.83,157.94,509.75,157.42z M513.5,165.17
			c-0.42,0-0.71,0-0.87,0c-1.17-0.52-2.37-0.21-3.62,0.93c-1.08,0.93-1.71,1.45-1.87,1.55c-0.75,0.52-1.31,0.85-1.69,1.01
			c-0.38,0.15-0.94,0.72-1.69,1.7c-0.75,0.98-1.12,1.73-1.12,2.25c0,0.1-0.17,0.46-0.5,1.09c-1.33,1.76-2.17,4.39-2.5,7.91
			c-0.17,1.86-0.42,3.26-0.75,4.19c-0.25,0.83-0.5,2.22-0.75,4.19c-0.33,2.69-0.21,4.44,0.38,5.27c0.58,0.83,1.87,0.93,3.87,0.31
			c1.5-0.62,3.25-2.38,5.25-5.27c1.33-1.86,2.25-3.1,2.75-3.72c0.5-0.83,0.75-1.34,0.75-1.55c0-0.21,0.33-0.93,1-2.17
			c0.91-1.45,1.5-2.53,1.75-3.26c0.25-0.93,0.25-1.78,0-2.56c-0.25-0.77-0.5-1.32-0.75-1.63c-0.25-0.52,0-1.6,0.75-3.26
			c0.75-2.07,1.1-3.74,1.06-5.04C514.89,165.82,514.41,165.17,513.5,165.17z"/>
	</g>
</g>
<g>
	<path class="st3" d="M263.65,427.81c0.14-0.53,0.25-0.8,0.32-0.8c0.12,0,0.3,0.23,0.56,0.7c0.26,0.47,0.4,0.8,0.44,1
		c0.04,0.2,0.11,0.7,0.23,1.5c0.14,0.87,0.22,7.46,0.25,19.78c0,6.06,0.05,9.09,0.14,9.09c0.09,0,0.14-0.03,0.14-0.1
		c0-0.33,0.35-1.38,1.06-3.15c0.7-1.76,1.17-2.85,1.41-3.25c0.12-0.07,0.25-0.26,0.39-0.6c0.52-0.93,1.36-1.46,2.53-1.6l1.16-0.3
		l0.63,0.9c0.42,0.53,0.79,1.2,1.09,2l0.49,1.2v2.2c0,1.6-0.06,2.86-0.19,3.8c-0.13,0.93-0.19,1.57-0.19,1.9
		c0,0.4-0.26,1.97-0.77,4.7c-0.12,0.67-0.29,1.33-0.53,2c-0.21,0.73-0.46,1.9-0.74,3.5c-0.33,1.67-0.61,2.63-0.84,2.9
		c-0.19,0.13-0.33,0.47-0.42,1c-0.19,1-0.53,1.9-1.02,2.7c-0.16,0.2-0.28,0.43-0.35,0.7c-0.07,0.27-0.16,0.4-0.28,0.4
		c-0.07,0-0.42,0.42-1.06,1.25c-0.63,0.83-0.96,1.35-0.99,1.55c-0.05,0.13-0.26,0.47-0.65,1c-0.39,0.53-0.59,0.8-0.62,0.8
		c-0.14,0-0.48,0.6-1.02,1.8c-0.14,0.4-0.35,0.6-0.63,0.6c-0.35,0-0.68-0.7-0.99-2.1c-0.26-1.13-0.28-2.83-0.07-5.1
		c0.07-0.93,0.13-2.93,0.18-5.99c0.02-3.2,0.07-5.2,0.14-5.99c0.07-0.93,0.13-5.86,0.18-14.79c0.02-9.19,0-14.19-0.07-14.99
		c-0.02-1.07-0.02-2.06,0-3c0.05-1.06,0.04-2.06-0.04-3C263.37,429.87,263.42,428.48,263.65,427.81z M272.42,455.79
		c-0.16-0.53-0.62-0.66-1.37-0.4c-0.8,0.13-1.41,0.73-1.83,1.8c-0.12,0.27-0.29,0.67-0.53,1.2c-0.77,1.33-1.34,2.73-1.69,4.2
		c-0.07,0.27-0.2,0.7-0.39,1.3c-0.42,1.53-0.7,3.36-0.84,5.5c-0.28,3.6-0.42,6.59-0.42,8.99c0,0.93,0.2,1.1,0.6,0.5
		c0.16-0.2,0.34-0.43,0.53-0.7c0.14-0.13,0.35-0.47,0.63-1c0.28-0.53,0.5-0.93,0.67-1.2c1.06-1.26,1.97-3.5,2.74-6.69
		c0.42-1.93,0.69-3.1,0.81-3.5c0.52-2,0.87-4.06,1.06-6.2C272.54,457.65,272.56,456.39,272.42,455.79z"/>
	<path class="st3" d="M288.95,444.79c0.49-0.66,1.08-0.56,1.76,0.3c0.56,0.8,0.96,1.45,1.18,1.95c0.22,0.5,0.43,1.32,0.62,2.45
		c0.16,1,0.23,2.05,0.19,3.15s-0.11,1.82-0.21,2.15c-0.11,0.33-0.17,0.7-0.19,1.1c-0.05,0.33-0.12,0.7-0.21,1.1
		c-0.12,0.4-0.18,0.7-0.18,0.9c0,0.4-0.2,1.05-0.6,1.95c-0.4,0.9-0.87,1.65-1.41,2.25c-0.16,0.27-0.32,0.47-0.46,0.6
		c-0.14,0.27-0.42,0.5-0.84,0.7c-0.4,0.2-0.68,0.47-0.84,0.8c-0.14,0.2-0.35,0.3-0.62,0.3c-0.27,0-0.5,0.12-0.69,0.35
		c-0.19,0.23-0.49,0.35-0.91,0.35c-0.42,0-0.7,0.2-0.84,0.6l-0.21,0.6l0.04,3.3c0,2.2,0.11,3.7,0.32,4.5
		c0.42,1.8,0.83,2.97,1.23,3.5c0.21,0.27,0.7,0.47,1.48,0.6c0.8,0,1.37-0.1,1.72-0.3c0.35-0.2,0.9-0.87,1.65-2
		c0.66-1,1.15-1.83,1.48-2.5c0.59-1.4,1.02-2.1,1.3-2.1c0.12,0,0.23,0.32,0.35,0.95c0.12,0.63,0.18,1.25,0.18,1.85
		c0,0.8-0.06,1.5-0.18,2.1c-0.12,0.6-0.33,1.23-0.65,1.9c-0.32,0.67-0.79,1.53-1.43,2.6c-0.54,0.93-1.01,1.42-1.41,1.45
		c-0.4,0.03-0.63,0.22-0.7,0.55c-0.35,0.8-1.58,0.93-3.69,0.4c-0.54-0.07-0.89-0.2-1.04-0.4c-0.15-0.2-0.4-0.87-0.76-2
		c-0.75-2.4-1.23-4.3-1.44-5.69c-0.14-1-0.22-3.05-0.23-6.15c-0.01-3.1-0.04-4.85-0.09-5.25c-0.14-1-0.08-1.9,0.18-2.7
		c0.23-0.66,0.46-2,0.67-4c0.19-1.6,0.42-2.76,0.7-3.5c0.07-0.2,0.14-0.5,0.21-0.9c0.28-1.2,0.79-2.53,1.51-4
		c0.68-1.4,1.14-2.1,1.37-2.1c0.12,0,0.26-0.17,0.42-0.5c0.21-0.27,0.42-0.47,0.63-0.6C288.53,445.33,288.74,445.13,288.95,444.79z
		 M290.71,450.09c-0.14-0.33-0.28-0.53-0.42-0.6c-0.19-0.13-0.5-0.02-0.93,0.35c-0.43,0.37-0.75,0.68-0.93,0.95
		c-0.16,0.33-0.37,0.57-0.62,0.7c-0.25,0.13-0.64,0.97-1.18,2.5c-0.87,2.47-1.3,4.16-1.3,5.1c0,0.47,0.01,0.77,0.04,0.9
		c0.07,0,0.43-0.1,1.09-0.3c0.66-0.2,1.07-0.4,1.23-0.6c1.48-1.2,2.46-2.76,2.96-4.7c0.26-0.86,0.4-1.5,0.42-1.9
		C291.14,451.56,291.02,450.76,290.71,450.09z"/>
</g>
<g>
	<path class="st4" d="M505.57,298.37c-63.7,21.77-127.77,17.35-187.22-14.59c10.22,2.09,15.31,2.77,25.32,3.51
		c-5.6-8.15-8.09-12.33-12.42-20.77c7.8-1.73,11.56-2.81,18.77-5.32c-4.07-6.39-5.88-9.66-9.09-16.23
		c47.61,19.18,94.52,18.55,141.59-1.86c-2.85,6.56-4.47,9.83-8.14,16.26c7.09,2.45,10.79,3.5,18.45,5.18
		c-3.83,8.19-6.03,12.26-11.01,20.23C490.77,290.71,495.53,293.45,505.57,298.37z"/>
	<g>
		<path class="st5" d="M397.18,262.88c0.62-0.1,1.28-0.03,1.97,0.21c0.69,0.24,1.26,0.56,1.7,0.97c0.44,0.41,0.76,0.91,0.96,1.51
			c0.03,0.39-0.03,0.85-0.16,1.38c-0.14,0.53-0.25,0.86-0.35,1.01c-0.19,0.14-0.48,0.62-0.89,1.42c-0.39,0.75-0.83,1.34-1.27,1.75
			c-0.26,0.22-0.39,0.33-0.66,0.54c-0.75-0.05-1.12-0.07-1.87-0.13c-1.34-0.1-2.13-0.29-2.39-0.56c-0.68-0.64-1.09-1.8-1.02-3.24
			c0.05-0.97,0.19-1.7,0.29-2.06c0.1-0.36,0.38-0.81,0.83-1.35C394.88,263.66,395.83,263.17,397.18,262.88z M396.49,278.11
			c0.39-0.19,0.64-0.32,0.74-0.31c0.67,0.04,1.22,0.37,1.67,0.98c0.22,0.25,0.33,0.37,0.54,0.61c-0.21,2.82-0.32,4.23-0.54,7.05
			c-0.26,4.76-0.49,7.49-0.69,8.21c-0.5,2.31-0.77,3.92-0.66,4.64c0.11,0.7,0.09,1.41-0.12,1.97c-0.15,0.4-0.21,0.79-0.23,1.08
			c-0.01,0.15-0.13,0.35-0.36,0.6c-0.23,0.25-0.48,0.46-0.73,0.61c-0.26,0.15-0.55,0.31-0.8,0.35c-0.34,0.06-0.81-0.07-1.29-0.27
			c-0.48-0.21-0.79-0.44-0.93-0.69c-0.56-1.21-0.36-3.87,0.38-7.87c0.3-1.61,0.69-4.46,1.04-8.33c0.35-3.82,0.49-6.05,0.63-6.24
			c0.12-0.17,0.38-0.61,0.53-1.28C395.82,278.65,396.12,278.29,396.49,278.11z"/>
		<path class="st5" d="M419.34,269.86c1.9-0.39,3.54-0.42,4.82,0.11c0.43,0.21,0.85,0.3,1.26,0.26c0.41-0.04,0.81,0.1,1.08,0.41
			c0.32,0.37,0.48,0.69,0.5,0.83c0.01,0.1-0.12,0.35-0.38,0.77c-0.27,0.42-0.47,0.63-0.61,0.64c-0.26-0.09-0.39-0.14-0.65-0.24
			c-0.83-0.37-1.96-0.33-3.42,0.08c-1.46,0.42-2.59,1.05-3.4,1.91c-0.54,0.51-0.89,0.91-0.94,1.14c-0.06,0.26-0.16,0.61-0.39,0.89
			c-0.16,0.2-0.36,0.54-0.39,0.89c-0.02,0.3-0.09,0.7-0.32,1.07c-0.23,0.37-0.31,0.95-0.26,1.72c0.05,0.78,0.27,1.26,0.45,1.44
			c0.21,0.21,0.38,0.61,0.51,0.97c0.14,0.36,0.32,0.6,0.54,0.71c0.23,0.11,0.61,0.19,1.16,0.24c0.54,0.05,1.55,0.03,3.03-0.06
			c2.46-0.16,4.02-0.15,4.68,0.08c1.38,0.46,2.4,1.24,3.07,2.34c0.19,0.42,0.37,0.69,0.54,0.82c0.32,0.11,0.67,1.01,1.24,2.29
			c0.26,0.58,0.55,1.64,0.57,3.02c0.02,1.29-0.27,2.6-0.77,3.82c-0.63,1.57-1.41,2.91-2.33,3.97c-0.73,0.84-1.36,1.4-1.88,1.66
			c-0.52,0.26-1.29,0.48-2.31,0.65c-1.44,0.24-2.58,0.39-3.39,0.43c-2.38,0.13-3.93-0.01-4.64-0.38c-0.17-0.14-0.74-0.27-1.71-0.39
			c-2.11-0.29-3.9-1.58-5.33-3.87c-0.74-1.21-0.68-2,0-2.41c0.51-0.3,1.02-0.43,1.49-0.26c0.47,0.17,1.2,0.61,2.06,1.32
			c0.96,0.8,1.73,1.42,2.29,1.7c0.56,0.28,1.35,0.52,2.37,0.72c2.41,0.39,4.39,0.3,5.9-0.24c0.78-0.34,1.41-0.83,1.89-1.45
			c1-1.44,1.66-2.95,1.99-4.52c0.33-1.57,0.19-2.74-0.39-3.52c-0.45-0.45-0.81-0.83-1.09-1.15c-0.28-0.32-0.58-0.55-0.89-0.7
			c-0.31-0.15-0.66-0.23-1.04-0.25c-0.38-0.02-0.87,0.07-1.39,0.17c-0.75,0.14-1.87,0.21-3.16,0.26c-1.63,0.06-2.87-0.12-3.64-0.43
			c-0.76-0.31-1.49-1.01-2.08-2.06c-0.63-1.12-1.11-2.36-1.47-3.62c-0.1-0.44-0.13-1.21-0.07-2.33c0.06-1.12,0.19-1.83,0.4-2.12
			c0.21-0.3,0.38-0.73,0.44-1.25c0.05-0.42,0.24-0.88,0.61-1.33c1-1.53,1.75-2.53,2.28-2.98
			C417.12,270.68,418.2,270.09,419.34,269.86z"/>
	</g>
</g>
<path class="st6" d="M-57.98,556.94v-4.03l-0.07-7.98c-0.01,0-0.02,0-0.03,0.01L-57.98,556.94z"/>
<g>
	<g>
		<path class="st7" d="M590.86,648.77c-49.75,2.03-98.34,9.51-147.07,19.48c-1.78-35.17-3.62-70.33-5.47-105.49
			c49.06-2.04,98.04-2.95,147.12-1.29c-17.66,15.14-34.83,30.7-51.56,46.85C552.46,622.43,571.37,635.93,590.86,648.77z"/>
		<path class="st7" d="M10.58,447.63c49.36-5.03,98.59-9.26,148.25-8.29c2.56,49.05,5.34,98.1,8.14,147.14
			c-49.05,4.97-97.72,12.41-146.39,20.22c16.07-28.48,32.26-56.89,48.45-85.31C48.92,497.28,29.32,472.82,10.58,447.63z"/>
		<path class="st7" d="M509.14,609.63c-135.44,10.95-271.93,32.38-405.98,54.43c-2.79-48.13-5.75-96.24-8.54-144.37
			c68.4-7.42,136.45-5.6,205.1-6.31c68.3-0.71,136.53,0.6,204.79,3.13C506.04,547.55,507.62,578.59,509.14,609.63z"/>
		<g>
			<path class="st8" d="M509.33,598.77c-135.41,8.91-272.4,27.14-406.44,48.09c-2.01-34.22-4.08-68.44-6.11-102.66
				c68.17-8.1,136.29-8.05,204.79-10.32c68.14-2.26,136.27-2.86,204.43-1.71C507.11,554.37,508.23,576.57,509.33,598.77z"/>
			<g>
				<path class="st9" d="M118.4,545.84c2.79-0.31,4.18-0.46,6.97-0.75c7.17,29.71,14.43,59.4,21.62,89.1
					c-2.6,0.36-3.9,0.54-6.5,0.91c-3.77-16.62-7.57-33.23-11.37-49.83c-2.36-10.03-4.56-20.12-6.64-30.21
					c-0.12,0.01-0.18,0.02-0.29,0.03c-0.84,10.48-1.83,20.96-2.99,31.42c-1.85,17.51-3.69,35.02-5.51,52.53
					c-2.5,0.38-3.75,0.57-6.25,0.96C111.03,608.6,114.7,577.22,118.4,545.84z M113.82,601.27c8.91-1.22,13.36-1.8,22.26-2.9
					c0.21,3.69,0.32,5.54,0.54,9.23c-8.89,1.14-13.34,1.74-22.25,2.98C114.15,606.86,114.04,604.99,113.82,601.27z"/>
				<path class="st9" d="M155.71,542.34c2.47-0.19,3.7-0.28,6.17-0.45c1.51,26.65,3.04,53.3,4.56,79.96
					c8.42-1.02,12.62-1.5,21.04-2.4c0.21,3.81,0.32,5.72,0.54,9.54c-10.87,1.25-16.3,1.92-27.16,3.34
					C159.15,602.33,157.42,572.34,155.71,542.34z"/>
				<path class="st9" d="M198.99,540.12c2.47-0.06,3.7-0.09,6.17-0.13c1.44,25.76,2.89,51.52,4.34,77.27
					c8.43-0.76,12.64-1.22,21.07-2.09c0.2,3.65,0.31,5.47,0.51,9.13c-10.88,1.23-16.32,1.8-27.19,2.94
					C202.26,598.2,200.62,569.16,198.99,540.12z"/>
				<path class="st9" d="M286.71,537.92c6.08-0.22,9.13-0.34,15.21-0.57c11.71-0.76,17.79,10.86,18.17,20.91
					c0.37,9.96-3.65,23.1-15.7,24.09c-3.6,0.31-5.4,0.47-9,0.78c0.61,11.1,1.22,22.19,1.83,33.29c-2.46,0.3-3.69,0.45-6.14,0.75
					C289.63,590.76,288.17,564.34,286.71,537.92z M303.07,574.38c7.54-0.59,11.42-5.76,10.87-15.74
					c-0.55-10.13-4.91-13.54-12.46-13.19c-3.25,0.15-4.88,0.23-8.14,0.38c0.54,9.73,1.07,19.46,1.61,29.19
					C298.2,574.76,299.82,574.64,303.07,574.38z M303.03,579.74c1.82-2.22,2.73-3.32,4.55-5.51c5.61,12.97,11.26,25.91,16.96,38.84
					c-2.79,0.34-4.18,0.51-6.96,0.85C312.68,602.55,307.83,591.16,303.03,579.74z"/>
				<path class="st9" d="M336.22,536.12c2.47-0.08,3.71-0.12,6.18-0.2c1.35,24.83,2.69,49.66,4.04,74.5
					c-2.46,0.29-3.69,0.44-6.14,0.74C338.93,586.15,337.57,561.14,336.22,536.12z"/>
				<path class="st9" d="M362.22,571.93c-0.69-12.86,2.54-37.96,20.24-38.26c6.7-0.12,11.39,4.3,14.45,8.44
					c-1.23,2.33-1.84,3.5-3.07,5.85c-2.65-3.58-6.12-6.66-10.79-6.37c-13.16,0.81-15.04,19.07-14.48,29.65
					c0.56,10.6,4.05,28.88,17.63,27.9c3.37-0.24,6.71-2.2,8.48-4.98c-0.39-7.29-0.59-10.93-0.98-18.22
					c-4.1,0.28-6.14,0.42-10.24,0.71c-0.16-2.99-0.24-4.49-0.4-7.48c6.35-0.39,9.52-0.57,15.86-0.92
					c0.52,9.73,1.04,19.45,1.56,29.18c-2.86,4.95-7.96,8.98-14.44,9.7C368.42,609.1,362.89,584.53,362.22,571.93z"/>
				<path class="st9" d="M416.04,534.64c2.46-0.02,3.69-0.03,6.15-0.04c0.5,9.36,1,18.73,1.49,28.09
					c8.96-0.41,13.43-0.61,22.37-0.97c-0.57-10.9-0.85-16.35-1.42-27.23c2.46-0.01,3.68-0.01,6.14-0.01
					c1.11,21.49,2.23,42.99,3.34,64.48c-2.44,0.22-3.65,0.33-6.09,0.56c-0.53-10.19-1.06-20.38-1.59-30.56
					c-8.94,0.45-13.4,0.69-22.35,1.19c0.56,10.51,1.12,21.02,1.68,31.53c-2.44,0.24-3.66,0.37-6.1,0.62
					C418.45,579.74,417.24,557.19,416.04,534.64z"/>
				<path class="st9" d="M481.75,541.21c-5.85,0.01-8.77,0.02-14.61,0.06c-0.14-2.72-0.21-4.07-0.34-6.79
					c11.81,0.03,23.63,0.12,35.44,0.29c0.13,2.59,0.19,3.89,0.32,6.48c-5.87-0.04-8.8-0.05-14.65-0.05
					c0.91,18.27,1.83,36.54,2.74,54.82c-2.45,0.17-3.67,0.26-6.12,0.44C483.6,578.04,482.67,559.63,481.75,541.21z"/>
			</g>
		</g>
		<path class="st10" d="M162.86,514.04c-1.37-24.58-2.7-49.16-3.98-73.74c-22.24,25.68-43.36,52.23-64.2,79.05
			C117.38,517,140.06,515.15,162.86,514.04z"/>
		<path class="st10" d="M440.95,616.53c0.9,17.28,1.78,34.55,2.66,51.83c20.57-20.61,41.96-40.03,64.57-58.39
			C485.72,611.74,463.33,613.98,440.95,616.53z"/>
	</g>
</g>
<g>
	<path class="st6" d="M556.48,412.4c-139.66,81.36-289.94-63.1-429.6,18.26c-1.61-41.12-3.22-82.24-4.83-123.36
		c140.98-78.88,288.99,70.11,429.97-8.77C553.51,336.49,555,374.45,556.48,412.4z"/>
	<path class="st11" d="M552.52,311.18c-140.83,79.16-289.1-69.33-429.93,9.83"/>
	<path class="st11" d="M555.87,396.74c-139.84,81.03-289.81-64.07-429.65,16.96"/>
</g>
<g>
	<g>
		<path class="st12" d="M183.84,385.54c-2.49,0.71-4.72,0.92-6.71,0.62c-1.99-0.31-3.49-1.09-4.51-2.38
			c-1.02-1.3-1.39-3.01-1.1-5.15c0.33-2.44,1.51-4.94,3.54-7.42c2.03-2.48,4.25-4.55,6.66-6.16c-1.53-0.49-2.69-1.26-3.47-2.36
			c-0.78-1.1-1.06-2.47-0.84-4.14c0.32-2.38,1.64-4.88,3.94-7.43c2.3-2.55,4.95-4.55,7.92-5.95c-2.3-0.68-4.17-1.69-5.61-3.08
			c-1.44-1.39-2.01-3.2-1.71-5.46c0.53-3.93,2.23-7.44,5.09-10.43c2.86-2.98,6.49-5.53,10.87-7.45c4.38-1.92,9.08-3.29,14.09-4.01
			c2.03-0.29,3.73-0.46,5.1-0.53c1.37-0.07,2.58-0.06,3.63,0.02c3.17-1.86,5.42-3.54,6.77-5.13c1.34-1.59,2.07-2.79,2.18-3.62
			c6.57-0.28,9.84-0.25,16.33,0.05c-0.34,2.53-1.1,4.59-2.28,6.19c-1.18,1.61-2.75,2.88-4.7,3.85c-1.96,0.97-4.24,1.76-6.85,2.4
			c1.76,1.26,3.06,2.77,3.93,4.51c0.86,1.74,1.16,3.58,0.9,5.52c-0.47,3.47-1.88,6.29-4.23,8.51c-2.36,2.22-5.29,3.91-8.81,5.16
			c-3.52,1.25-7.27,2.08-11.25,2.57c-3.08,0.37-4.62,0.6-7.72,1.13c-2.31,0.39-4,0.96-5.05,1.63c-1.05,0.68-1.63,1.41-1.74,2.18
			c-0.1,0.77,0.23,1.33,1.02,1.69c0.78,0.36,2.47,0.27,5.05-0.17c7.34-1.26,10.98-1.66,18.22-2.09c6.16-0.37,10.45,1.06,12.93,3.89
			c2.47,2.83,3.42,6.46,2.83,10.81c-0.44,3.29-1.85,6.08-4.22,8.43c-2.38,2.35-5.33,4.18-8.87,5.57c-3.54,1.39-7.29,2.25-11.26,2.62
			C203.9,380.75,193.44,382.7,183.84,385.54z M196.3,372.91c6.4-1.34,9.57-1.83,15.88-2.52c1.01-0.11,1.94-0.38,2.8-0.81
			c0.86-0.43,1.56-1,2.12-1.72c0.56-0.72,0.9-1.52,1.02-2.4c0.18-1.36-0.19-2.38-1.13-3.06c-0.94-0.68-2.15-0.95-3.63-0.79
			c-6.31,0.68-9.48,1.16-15.88,2.48c-1.5,0.31-2.82,0.96-3.95,1.95c-1.13,0.98-1.78,2.16-1.97,3.53c-0.18,1.36,0.18,2.34,1.1,2.93
			C193.58,373.1,194.79,373.23,196.3,372.91z M208.97,335.7c2.37-0.36,4.33-1.06,5.87-2.17c1.54-1.11,2.45-2.65,2.72-4.66
			c0.27-2.01-0.24-3.42-1.53-4.2c-1.29-0.78-3.12-1.03-5.49-0.68c-2.1,0.31-3.97,1.09-5.59,2.31c-1.63,1.22-2.58,2.86-2.85,4.87
			c-0.18,1.3-0.02,2.34,0.48,3.11c0.49,0.77,1.29,1.25,2.39,1.46C206.08,335.95,207.41,335.94,208.97,335.7z"/>
		<path class="st12" d="M271.82,365.52c-5.84-1.05-10.82-2.67-14.92-4.98c-4.11-2.3-7.14-5.29-9.09-9.08
			c-1.95-3.79-2.56-8.35-1.84-13.75c0.73-5.45,2.56-9.91,5.47-13.28c2.91-3.37,6.66-5.73,11.25-6.95c4.58-1.22,9.79-1.31,15.62-0.19
			c5.83,1.12,10.77,3.16,14.84,5.96c4.07,2.81,7.05,6.33,8.95,10.49c1.9,4.16,2.49,8.93,1.76,14.31c-0.72,5.32-2.5,9.44-5.35,12.39
			c-2.85,2.95-6.55,4.77-11.11,5.55C282.84,366.77,277.65,366.57,271.82,365.52z M273.4,353.72c2.27,0.42,4.16,0.39,5.69-0.11
			c1.53-0.5,2.71-1.4,3.55-2.71c0.84-1.31,1.4-2.99,1.67-5.02c0.27-1.99,0.4-2.98,0.67-4.97c0.27-2.03,0.19-3.86-0.26-5.49
			c-0.45-1.62-1.33-2.98-2.64-4.06c-1.32-1.08-3.11-1.85-5.37-2.28c-2.27-0.43-4.15-0.36-5.66,0.2c-1.5,0.55-2.68,1.53-3.53,2.92
			c-0.85,1.39-1.41,3.11-1.69,5.15c-0.27,2-0.4,2.99-0.67,4.99c-0.27,2.04-0.18,3.84,0.27,5.4c0.45,1.56,1.33,2.84,2.62,3.85
			C269.35,352.61,271.13,353.31,273.4,353.72z"/>
		<path class="st12" d="M310,373.46c2.05-15.23,4.1-30.47,6.14-45.7c6.25,1.82,9.37,2.77,15.61,4.69c0.13,2.91,0.19,4.37,0.32,7.28
			c0.27,0.08,0.4,0.12,0.67,0.21c1.58-1.37,3.34-2.36,5.28-2.99c1.94-0.62,4.04-0.88,6.28-0.78c2.24,0.1,4.51,0.51,6.81,1.22
			c4.02,1.24,7.23,2.93,9.63,5.04c2.4,2.12,4.08,4.62,5.02,7.49c0.94,2.88,1.17,6.11,0.69,9.7c-1.31,9.74-2.62,19.47-3.93,29.21
			c-7.64-2.14-11.46-3.27-19.08-5.55c1.47-10.92,2.2-16.38,3.67-27.29c0.13-0.97,0.11-1.89-0.08-2.75
			c-0.18-0.86-0.49-1.66-0.93-2.38c-0.43-0.73-1.03-1.38-1.78-1.93c-0.75-0.56-1.68-1.01-2.76-1.34c-1.6-0.49-3.03-0.59-4.3-0.29
			c-1.27,0.3-2.31,0.87-3.12,1.73c-0.81,0.86-1.31,1.95-1.48,3.27c-1.44,10.68-2.15,16.02-3.59,26.7
			C321.46,376.72,317.65,375.59,310,373.46z"/>
		<path class="st12" d="M373.97,391.93c2.02-14.99,4.03-29.98,6.05-44.97c6.27,1.7,9.41,2.5,15.71,3.95
			c0.14,2.83,0.21,4.24,0.35,7.07c0.27,0.06,0.41,0.09,0.68,0.15c1.59-1.45,3.37-2.56,5.33-3.34c1.96-0.78,4.08-1.24,6.36-1.39
			c2.28-0.15,4.59-0.03,6.93,0.34c4.1,0.66,7.38,1.76,9.86,3.39c2.47,1.63,4.2,3.71,5.18,6.29c0.98,2.58,1.24,5.63,0.76,9.16
			c-1.29,9.58-2.58,19.16-3.86,28.74c-7.86-0.55-11.76-1.01-19.53-2.22c1.44-10.74,2.17-16.11,3.61-26.85
			c0.13-0.96,0.1-1.84-0.09-2.65c-0.19-0.81-0.51-1.54-0.95-2.19c-0.44-0.65-1.05-1.2-1.82-1.66c-0.77-0.45-1.7-0.78-2.81-0.99
			c-1.62-0.3-3.07-0.26-4.35,0.15c-1.29,0.41-2.33,1.06-3.15,1.96c-0.82,0.9-1.32,2-1.49,3.3c-1.41,10.51-2.12,15.76-3.53,26.27
			C385.48,394.84,381.64,393.91,373.97,391.93z"/>
		<path class="st12" d="M454.58,402.26c-2.75,0.21-5.23,0.14-7.45-0.2c-2.21-0.34-4.08-1.01-5.61-1.99
			c-1.53-0.97-2.63-2.28-3.31-3.89c-0.68-1.61-0.87-3.57-0.56-5.86c0.44-3.3,1.61-5.95,3.52-7.99c1.9-2.04,4.49-3.6,7.77-4.78
			c3.28-1.18,7.21-2.1,11.8-2.9c4.59-0.81,9.83-1.64,15.76-2.73c0.12-0.86,0.17-1.3,0.29-2.16c0.16-1.22-0.06-2.14-0.68-2.76
			c-0.61-0.62-1.47-1.03-2.57-1.24c-1.1-0.21-2.4-0.21-3.88-0.01c-1.15,0.15-2.35,0.41-3.59,0.76c-1.24,0.36-2.29,0.84-3.14,1.47
			c-0.85,0.63-1.34,1.44-1.47,2.44c-0.02,0.13-0.03,0.2-0.04,0.33c-7.9,0.68-11.82,0.77-19.61,0.58c-0.04-0.22-0.04-0.42-0.02-0.59
			c0.02-0.17,0.05-0.36,0.08-0.59c0.37-2.74,1.73-5.09,4.09-7.11c2.36-2.02,5.66-3.6,9.92-4.9c4.26-1.31,9.41-2.21,15.5-3.01
			c4.93-0.65,9.47-1.03,13.6-1.08c4.12-0.05,7.37,0.49,9.72,1.8c2.35,1.3,3.29,3.69,2.81,7.27c-0.92,6.81-1.37,10.22-2.29,17.03
			c-0.12,0.88,0.06,1.55,0.53,2c0.47,0.45,1.26,0.49,2.38,0.1c1.5-0.52,2.26-0.8,3.77-1.36c-0.51,3.8-0.77,5.7-1.28,9.49
			c-0.89,0.7-2.32,1.59-4.29,2.62c-1.97,1.03-4.23,1.95-6.79,2.72c-2.77,0.84-5.15,1.27-7.16,1.34c-2,0.08-3.58-0.18-4.73-0.73
			c-1.16-0.55-1.9-1.34-2.22-2.36c-0.29,0.06-0.43,0.09-0.72,0.14c-1.57,1.33-3.35,2.58-5.33,3.72c-1.98,1.14-4.19,2.11-6.61,2.88
			C460.33,401.5,457.6,402.02,454.58,402.26z M464.15,391.09c1.28-0.16,2.54-0.48,3.77-0.96c1.23-0.48,2.35-1.07,3.37-1.75
			c1.02-0.69,1.86-1.46,2.5-2.3c0.64-0.85,1.03-1.71,1.15-2.6c0.2-1.5,0.3-2.24,0.5-3.74c-4.02,0.74-7.29,1.44-9.82,2.25
			c-2.53,0.81-4.42,1.64-5.68,2.58c-1.26,0.94-1.96,1.96-2.11,3.07c-0.15,1.11,0.07,1.95,0.66,2.5c0.59,0.55,1.39,0.89,2.41,1
			C461.92,391.25,463,391.24,464.15,391.09z"/>
	</g>
</g>
<g>
	<circle class="st13" cx="262.84" cy="46.48" r="29.66"/>
</g>
<g>
	<circle class="st13" cx="524.95" cy="488.19" r="29.66"/>
</g>
<g>
	<circle class="st13" cx="52.91" cy="297.67" r="29.66"/>
</g>
<g>
	<circle class="st13" cx="473.99" cy="717.54" r="29.66"/>
</g>
<g>
	<circle class="st13" cx="276.19" cy="693.27" r="29.66"/>
</g>
<g>
	<circle class="st13" cx="111.16" cy="744.23" r="29.66"/>
</g>
<g>
	<circle class="st13" cx="473.97" cy="82.45" r="29.66"/>
</g>
<g>
	<circle class="st13" cx="350.21" cy="747.87" r="29.66"/>
</g>
<g>
	<circle class="st13" cx="97.81" cy="67.11" r="29.66"/>
</g>
<circle class="st14" cx="152.42" cy="109.17" r="15.8"/>
<circle class="st14" cx="355.07" cy="49.71" r="15.8"/>
<circle class="st14" cx="203.99" cy="487.17" r="10.34"/>
<circle class="st14" cx="568.04" cy="228.7" r="10.34"/>
<circle class="st14" cx="577.74" cy="194.72" r="10.34"/>
<circle class="st14" cx="542.55" cy="694.68" r="10.34"/>
<circle class="st14" cx="178.46" cy="692.83" r="10.34"/>
<circle class="st14" cx="55.9" cy="680.7" r="10.34"/>
<circle class="st14" cx="521.92" cy="49.1" r="10.34"/>
<circle class="st14" cx="339.9" cy="451.98" r="10.34"/>
<circle class="st14" cx="98.42" cy="343.98" r="10.34"/>
<circle class="st14" cx="26.82" cy="223.84" r="10.34"/>
<circle class="st14" cx="80.82" cy="387.06" r="15.8"/>
<circle class="st14" cx="492.19" cy="793.57" r="15.8"/>
<circle class="st14" cx="344.12" cy="660.07" r="15.8"/>
<circle class="st14" cx="152.39" cy="788.7" r="15.8"/>
<circle class="st14" cx="562.57" cy="446.52" r="15.8"/>
<path class="st15" d="M244.69,459.15c0,0-37.08-7.02-42.39-11.12c-5.31-4.1-7.69-11.02,0.48-20.99c7.9-9.64,22.29-12.31,20.89,3.29
	C222.34,445.19,244.69,459.15,244.69,459.15z"/>
</svg>
